<svg xmlns="http://www.w3.org/2000/svg" xmlns:xlink="http://www.w3.org/1999/xlink" id="desktop" x="0" y="0" enable-background="new 0 0 1920 574" version="1.1" viewBox="0 0 1920 574" xml:space="preserve"><style type="text/css">.st1,.st15{opacity:.31;fill:#52b1ff;enable-background:new}.st15{opacity:.15;fill-rule:evenodd;clip-rule:evenodd;fill:#fff}.st16{opacity:.85}.st18{fill:#f7931e}.st21{fill:#d67f1a}.st22{opacity:.7}.st29{opacity:.46}.st30{opacity:.5}.st34{opacity:.3}.st35{fill:#000b7a}.st37{opacity:.8}.st37,.st38,.st39,.st40,.st42{fill:#fff;enable-background:new}.st38{opacity:.89}.st39{opacity:.87}.st40{opacity:.7}.st42{opacity:.78}.st43{opacity:.88}.st43,.st44,.st47,.st48,.st50{fill:#fff;enable-background:new}.st56{enable-background:new}.st44{opacity:.81}.st47{opacity:.6}.st48{opacity:.74}.st50{opacity:.82}.st56{opacity:.2;fill:#ececec}.st57{opacity:.15}</style><g><rect width="1920" height="574" fill="#fff"/><path id="path355" d="M807,340.1c0,0-518.2,35.2-527.9,49.3C186,525.6,334.9,607.2,462.8,543.1 c172.4-86.3,313.8-104.3,456.8-10.2S807,340.1,807,340.1z" class="st1"/><path d="M1920,287.3v62.8c-112.9,84.8-165.6,82.1-234.6,57.6c-110.5-39.3-201.8,133-411.9,100.6l-0.7-0.1 c-11.2-1.7-22.7-4.1-34.6-7c-1.8-0.4-3.6-0.9-5.4-1.4l-2.7-0.7l0.1-0.1l0,0c132.9-67.9,296.3-146.6,435.3-204.5l0,0 c112.1-46.6,212.7-80.8,253.2-74h-0.1C1918.7,223.2,1917.9,205.4,1920,287.3L1920,287.3z" class="st1"/><g><path fill="#3259da" d="M1920,0v352.9c-6.6,3.6-16.8,9.2-17.6,9.7c-60.4,31.9-135.7,43-191,3.4c-25.8-18.4-26.4-31.2-48.8-37 c-6-1.6-25.5,0.9-37.4,17.6c-37.3,52.3-138.1,125.8-189.9,145c-28.8,10.7-65,19.8-96.7,24.6c-119.5,20.6-229.7-95-333.2-5.8 c-16.9,14.5-19.6,47.6-18.5,63.6H957C820.7,426.6,604.2,470.9,603.7,471c-50.7,9.2-75.9,20-122.3,35.8 c-104.3,31.3-223.9,36.6-222.6-70.3c5.8-55.8,65-81.1,55.2-95.2c-29.5-37.6-263.8,56.1-314-18.6V0H1920z"/><linearGradient id="SVGID_1_" x1="827.896" x2="1183.056" y1="186.418" y2="1474.018" gradientTransform="matrix(1 0 0 1 0 -504)" gradientUnits="userSpaceOnUse"><stop offset="0" stop-color="#69c8ff"/><stop offset=".11" stop-color="#58a2ec"/><stop offset=".25" stop-color="#4579d9"/><stop offset=".39" stop-color="#3657c9"/><stop offset=".53" stop-color="#2a3dbc"/><stop offset=".68" stop-color="#222ab4"/><stop offset=".83" stop-color="#1d1fae"/><stop offset="1" stop-color="#1c1cad"/></linearGradient><path fill="url(#SVGID_1_)" d="M1920,0v352.9c-6.6,3.6-16.8,9.2-17.6,9.7c-60.4,31.9-135.7,43-191,3.4c-25.8-18.4-26.4-31.2-48.8-37 c-6-1.6-25.5,0.9-37.4,17.6c-37.3,52.3-138.1,125.8-189.9,145c-28.8,10.7-65,19.8-96.7,24.6c-119.5,20.6-229.7-95-333.2-5.8 c-16.9,14.5-19.6,47.6-18.5,63.6H957C820.7,426.6,604.2,470.9,603.7,471c-50.7,9.2-75.9,20-122.3,35.8 c-104.3,31.3-223.9,36.6-222.6-70.3c5.8-55.8,65-81.1,55.2-95.2c-29.5-37.6-263.8,56.1-314-18.6V0H1920z" enable-background="new" opacity=".7"/></g><g id="g679"><path id="path671" d="M774.2,510.4c-22.7-1.7-39,4-63.3,20c-38.3-12.7-45-32.9-45-32.9 c30.3-26.1,91.1-18.4,105.2-13.5C771,495.9,774.2,510.4,774.2,510.4z" class="st1"/><g id="g677"><path id="path673" d="M1220.7,461.7c0.8-0.6,1.9-0.5,2.5,0.3l0,0c6.2,8.1,21.2,25.6,27.6,23c0.9-0.4,2,0,2.4,0.9 c0.2,0.4,0.2,0.8,0.1,1.2c-3.4,13.4-18.8,18.7-32.1,21c-16.8,2.9-34.3,3.1-47.3,0.3c-0.3-0.1-0.7-0.2-0.9-0.5 c-6.9-6.7-9.6-18.7-10.5-23.6c-0.2-1,0.5-2,1.5-2.1C1185.6,482.2,1203.3,474.7,1220.7,461.7L1220.7,461.7z" class="st1"/><path id="path675" fill="#d4e7ec" d="M1203.5,510.6c22.3-1.4,39.1-9.2,47.8-29C1258.2,488.7,1250.6,507.9,1203.5,510.6z" enable-background="new" opacity=".5"/></g></g></g><g id="g506"><linearGradient id="SVGID_00000170266800098260506320000006888176156101610897_" x1="297.977" x2="86.577" y1="795.527" y2="1069.557" gradientTransform="matrix(1 0 0 1 0 -504)" gradientUnits="userSpaceOnUse"><stop offset="0" stop-color="#3d8be6"/><stop offset=".09" stop-color="#3c76e2"/><stop offset=".25" stop-color="#3a55db"/><stop offset=".43" stop-color="#393cd7"/><stop offset=".6" stop-color="#382ad3"/><stop offset=".79" stop-color="#381fd1"/><stop offset="1" stop-color="#381cd1"/></linearGradient><path fill="url(#SVGID_00000170266800098260506320000006888176156101610897_)" d="M381.9,417.2c0,36.5-10.7,72.5-33.8,105.2c-6.5-0.5-13.2-1.3-20.2-2.2c-54.9-4.6-88.3-68.6-57.4-120.6 c17.7-29.7,48.8-48.4,44.4-59.9c-0.1-0.3-0.3-0.6-0.5-0.8c-18.6-15.5-87.7-2.3-114.4,1.6c-56.4,8.2-119.3,18.5-165.5,5.7 c40.2-91.8,147.3-135.2,239.1-94.9c16.9,7.4,32.6,17.4,46.6,29.6c4.1,3.6,8,7.4,11.8,11.3c31.8,33.2,49.6,77.3,50,123.3 C381.9,416.1,381.9,416.6,381.9,417.2z" enable-background="new" opacity=".3"/><path fill="none" stroke="#ececec" stroke-dasharray="0 0 0 0 0 0" stroke-linecap="round" stroke-miterlimit="10" stroke-width="2" d="M380.2,391.9c27.2-46.5,41-88.6,24.7-104.9c-12.9-12.9-39.4-10-73,5.2c-6.1,2.8-12.4,5.9-19,9.5l0,0 c-1.7,0.9-3.5,1.9-5.2,2.9c-14,8-27.6,16.8-40.7,26.3" enable-background="new" opacity=".25"/><linearGradient id="SVGID_00000044878254273386372550000004750196049836910507_" x1="130.808" x2="112.848" y1="776.853" y2="883.273" gradientTransform="matrix(1 0 0 1 0 -504)" gradientUnits="userSpaceOnUse"><stop offset="0" stop-color="#3d8be6"/><stop offset=".09" stop-color="#3c76e2"/><stop offset=".25" stop-color="#3a55db"/><stop offset=".43" stop-color="#393cd7"/><stop offset=".6" stop-color="#382ad3"/><stop offset=".79" stop-color="#381fd1"/><stop offset="1" stop-color="#381cd1"/></linearGradient><path fill="url(#SVGID_00000044878254273386372550000004750196049836910507_)" d="M198.7,310.6c-2.2,8.9-2.5,19.4-1,30.2c-41.3,6-117.2,18.6-157.9,7c17.3-27.4,43.4-47.5,69.5-59.5c41.2-19,82.6-18.1,89.6,5.3 C200.3,298.4,200.4,304,198.7,310.6z" enable-background="new" opacity=".3"/><linearGradient id="SVGID_00000065034060817259000390000009753989159399058584_" x1="362.453" x2="236.383" y1="902.455" y2="1052.485" gradientTransform="matrix(1 0 0 1 0 -504)" gradientUnits="userSpaceOnUse"><stop offset="0" stop-color="#3d8be6"/><stop offset=".09" stop-color="#3c76e2"/><stop offset=".25" stop-color="#3a55db"/><stop offset=".43" stop-color="#393cd7"/><stop offset=".6" stop-color="#382ad3"/><stop offset=".79" stop-color="#381fd1"/><stop offset="1" stop-color="#381cd1"/></linearGradient><path fill="url(#SVGID_00000065034060817259000390000009753989159399058584_)" d="M381.9,417.2c0,36.5-10.6,73.9-33.7,106.6c-6.5-0.5-13.8-1.9-20.8-2.8c-54.7-6.7-87.8-69.5-56.9-121.5c7.3-3.2,14.1-7.5,20.1-12.6 c18.1-14.9,38.5-21.2,55.4-18.6c20.1,3.1,35.3,18.7,35.8,47.3C381.9,416.1,381.9,416.6,381.9,417.2L381.9,417.2z" enable-background="new" opacity=".3"/><linearGradient id="SVGID_00000146478883793401591420000009665678025144989369_" x1="124.804" x2="70.624" y1="822.606" y2="880.946" gradientTransform="matrix(1 0 0 1 0 -504)" gradientUnits="userSpaceOnUse"><stop offset="0" stop-color="#3d8be6"/><stop offset=".09" stop-color="#3c76e2"/><stop offset=".25" stop-color="#3a55db"/><stop offset=".43" stop-color="#393cd7"/><stop offset=".6" stop-color="#382ad3"/><stop offset=".79" stop-color="#381fd1"/><stop offset="1" stop-color="#381cd1"/></linearGradient><path fill="url(#SVGID_00000146478883793401591420000009665678025144989369_)" d="M48.6,349.7c41.2-46.7,109.8-49.9,96.1-1.5C110,352.4,76,354.6,48.6,349.7z" enable-background="new" opacity=".3"/><linearGradient id="SVGID_00000133495245529492620740000014835676823975212180_" x1="347.311" x2="261.881" y1="939.857" y2="1050.307" gradientTransform="matrix(1 0 0 1 0 -504)" gradientUnits="userSpaceOnUse"><stop offset="0" stop-color="#3d8be6"/><stop offset=".09" stop-color="#3c76e2"/><stop offset=".25" stop-color="#3a55db"/><stop offset=".43" stop-color="#393cd7"/><stop offset=".6" stop-color="#382ad3"/><stop offset=".79" stop-color="#381fd1"/><stop offset="1" stop-color="#381cd1"/></linearGradient><path fill="url(#SVGID_00000133495245529492620740000014835676823975212180_)" d="M348.2,523.9c-2.9-0.3-6.5-0.4-20.8-2.8c-38.5-6.3-60.3-32.2-66.9-62.2c0.1-0.1,21.1-21.2,47.9-33.3c21.8-9.7,42.4-10.6,48.1,12.2 c2.1,8.1,3.4,16.4,4,24.7C362.5,486.7,356.6,506,348.2,523.9L348.2,523.9z" enable-background="new" opacity=".3"/><linearGradient id="SVGID_00000176017463611951680710000010364832363643376797_" x1="543.255" x2="140.885" y1="747.477" y2="936.367" gradientTransform="matrix(1 0 0 1 0 -504)" gradientUnits="userSpaceOnUse"><stop offset="0" stop-color="#ffdc85" stop-opacity=".8"/><stop offset=".14" stop-color="#fee081" stop-opacity=".57"/><stop offset=".29" stop-color="#fde57e" stop-opacity=".37"/><stop offset=".43" stop-color="#fde87c" stop-opacity=".21"/><stop offset=".55" stop-color="#fdea7a" stop-opacity=".09"/><stop offset=".66" stop-color="#fdec79" stop-opacity=".02"/><stop offset=".73" stop-color="#fded79" stop-opacity="0"/></linearGradient><path fill="url(#SVGID_00000176017463611951680710000010364832363643376797_)" d="M381.9,417.2c0,36.5-10.7,72.5-33.8,105.2 c-6.5-0.5-13.2-1.3-20.2-2.2c-54.9-4.6-88.3-68.6-57.4-120.6c17.7-29.7,48.8-48.4,44.4-59.9c-0.1-0.3-0.3-0.6-0.5-0.8 c-18.6-15.5-87.7-2.3-114.4,1.6c-56.4,8.2-119.3,16.9-165.5,4.1c40.2-91.8,147.3-133.6,239.1-93.3c16.9,7.4,32.6,17.4,46.6,29.6 c4.1,3.6,8,7.4,11.8,11.3c31.8,33.2,49.6,77.3,50,123.3C381.9,416.1,381.9,416.6,381.9,417.2z"/></g><g><path fill="#2b40c3" d="M458.3,513.2c-58.9,15-119.4,20.1-158.1,0.2c-0.5-5.7,10-8.3,18.5-7.2c-5.1-9.5,13-26.8,19.4-9.2 c0.7-1.5,5.7-1.1,9.4,1.7c-2-2.9-2.4-7.5-4.3-10.1c-30.4-20.1,6.3-49.8,14.7-20.1c0.3-6.3-3.1-12.3-2.9-19 c7.5-45.1,52.4-28.2,29.9,15.6c3.2-5.9,17.5-5.9,12.5,1.4c0.8-0.8,2.7-1.4,3.2-1.9c0,0.3,0,0.6,0,1c5.1-14.2,16.7-6.6,12.5,11.1 c17.5-61.3,49.8-22.4,20.4,16.6c0.3,0.2,1.4,0.1,2,0.1l0,0c10.6-5.7,21.1,4.8,6.8,16.6C450.6,506.8,456,509.1,458.3,513.2z" enable-background="new" opacity=".7"/><linearGradient id="SVGID_00000095306468678882944650000001480221617574357659_" x1="462.785" x2="327.105" y1="945.093" y2="1022.243" gradientTransform="matrix(1 0 0 1 0 -504)" gradientUnits="userSpaceOnUse"><stop offset="0" stop-color="#ffe521"/><stop offset=".18" stop-color="#fed824"/><stop offset=".52" stop-color="#feb72b"/><stop offset=".96" stop-color="#fd8338"/><stop offset="1" stop-color="#fd7e3a"/></linearGradient><path fill="url(#SVGID_00000095306468678882944650000001480221617574357659_)" d="M458.3,513.2c-8.7,2.2-17.4,4.2-26.1,6c-29.6,5.9-58.8,8.8-84.4,6.6c-17.8-1.5-34-5.4-47.5-12.3c-0.5-5.7,10-8.3,18.5-7.2 c-5.1-9.5,13-26.8,19.4-9.2c0.7-1.5,5.7-1.1,9.4,1.7c-2-2.9-2.4-7.5-4.3-10.1c-30.4-20.1,6.3-49.8,14.7-20.1 c0.3-6.3-3.1-12.3-2.9-19c7.5-45.1,52.4-28.2,29.9,15.6c3.2-5.9,17.5-5.9,12.5,1.4c0.8-0.8,2.7-1.4,3.2-1.9c0,0.3,0,0.6,0,1 c5.1-14.2,16.7-6.6,12.5,11.1c17.5-61.3,49.8-22.4,20.4,16.6c0.3,0.2,1.4,0.1,2,0.1l0,0c10.6-5.7,21.1,4.8,6.8,16.6 C450.6,506.8,456,509.1,458.3,513.2z" enable-background="new" opacity=".4"/><linearGradient id="SVGID_00000168836074904442834440000015067249489150195348_" x1="337.707" x2="440.196" y1="1005.626" y2="1005.626" gradientTransform="matrix(1 0 0 1 0 -504)" gradientUnits="userSpaceOnUse"><stop offset="0" stop-color="#ffe521"/><stop offset=".18" stop-color="#fed824"/><stop offset=".52" stop-color="#feb72b"/><stop offset=".96" stop-color="#fd8338"/><stop offset="1" stop-color="#fd7e3a"/></linearGradient><path fill="url(#SVGID_00000168836074904442834440000015067249489150195348_)" d="M436.7,513.3c-1.3,2.2-2.8,4.2-4.5,5.9c-29.6,5.9-58.8,8.8-84.4,6.6c-28.5-23.3,11.6-30.9,19.4-17.8c-9.4-18.9,9.9-52.9,11.7-10.5 c2.8-3.4,3.5-8.3,6.3-11.7c14.2-17.6,41.6-7.8,36.9,13.8C436.6,491.8,445.5,498.5,436.7,513.3L436.7,513.3z" enable-background="new" opacity=".2"/></g><path d="M364.6,541.1c-0.6,0.5-1.4-0.4-0.8-0.9S365.2,540.6,364.6,541.1z" class="st15"/><path d="M362.9,532.2c-1,0.8-2.1-0.6-1.2-1.4S363.9,531.4,362.9,532.2z" class="st15"/><path d="M323,524.8c-0.3,0.2-0.7,0.2-0.9-0.1c-0.2-0.3-0.2-0.7,0.1-0.9s0.7-0.2,0.9,0.1S323.3,524.6,323,524.8	L323,524.8z" class="st15"/><path d="M329.1,522.6c-0.3,0.2-0.7,0.2-0.9-0.1c-0.2-0.3-0.2-0.7,0.1-0.9C329.1,521.1,329.8,522.2,329.1,522.6z" class="st15"/><g class="st16"><linearGradient id="SVGID_00000072282672167757135110000015036625950559176872_" x1="709.782" x2="781.052" y1="562.108" y2="636.588" gradientTransform="matrix(1 0 0 1 0 -504)" gradientUnits="userSpaceOnUse"><stop offset="0" stop-color="#ffe521"/><stop offset=".18" stop-color="#fec528"/><stop offset=".4" stop-color="#fda630"/><stop offset=".61" stop-color="#fd8f35"/><stop offset=".82" stop-color="#fd8238"/><stop offset="1" stop-color="#fd7e3a"/></linearGradient><path fill="url(#SVGID_00000072282672167757135110000015036625950559176872_)" d="M706.3,77.9c12.1,3.7,23.6,19.9,37.7,19 c4.7-0.2,10.3-2.8,14.6-0.4c5.1,2.9,2.8-0.2,0.7-5.2c-13.9-32.7-29.3-14.9-47.4-16C709.1,74.9,703.6,77.1,706.3,77.9L706.3,77.9z"/><path d="M714.3,78.2c2.4,0.4,4.8,0.8,7.3,1l7.3,0.6c4.9,0.4,9.8,1.3,14.5,3.1c4.6,1.8,8.9,4.6,12.5,7.9 c3.6,3.4,6.5,7.5,9,11.7l-2.2-3l-1.1-1.5l-1.2-1.4c-0.8-0.9-1.6-1.9-2.4-2.8l-2.6-2.5c-3.6-3.2-7.8-5.9-12.3-7.6 c-4.5-1.8-9.3-2.7-14.2-3.3C724,80,719.1,79.6,714.3,78.2L714.3,78.2z" class="st18"/></g><g opacity=".48"><linearGradient id="SVGID_00000091016509548706184500000009451782542739757476_" x1="5752.377" x2="5725.227" y1="-197.416" y2="-209.756" gradientTransform="matrix(-0.7484 -0.6633 0.6633 -0.7484 5757.248 3932.0688)" gradientUnits="userSpaceOnUse"><stop offset="0" stop-color="#ffe521"/><stop offset=".18" stop-color="#fed824"/><stop offset=".52" stop-color="#feb72b"/><stop offset=".96" stop-color="#fd8338"/><stop offset="1" stop-color="#fd7e3a"/></linearGradient><path fill="url(#SVGID_00000091016509548706184500000009451782542739757476_)" d="M1293.8,268.6c19,9.4,23.1,36,58.3,11.6 c5.4-3.8,9.7-5.5,2.7-5.6c-5.9-0.1-10-6-14.6-8.8c-13.7-9.1-35.8,0.4-50.4-3C1286.5,262,1290.7,267.4,1293.8,268.6L1293.8,268.6z"/><path d="M1298.2,267.1c5.7,1.4,11,4,16.3,6.3c15.2,6.8,28.9,7.2,44.4,1.4l2-0.8l4.1-1.7c-17.1,8.9-33.2,10-50.7,1.7 C1309.7,271.9,1303.1,268.6,1298.2,267.1L1298.2,267.1L1298.2,267.1z" class="st21"/></g><g id="g529" class="st22"><linearGradient id="SVGID_00000179645639537344300670000000308543438799377822_" x1="1718.614" x2="1818.374" y1="663.093" y2="476.873" gradientTransform="matrix(1 0 0 1 0 -504)" gradientUnits="userSpaceOnUse"><stop offset="0" stop-color="#3d8be6"/><stop offset=".09" stop-color="#3c76e2"/><stop offset=".25" stop-color="#3a55db"/><stop offset=".43" stop-color="#393cd7"/><stop offset=".6" stop-color="#382ad3"/><stop offset=".79" stop-color="#381fd1"/><stop offset="1" stop-color="#381cd1"/></linearGradient><path fill="url(#SVGID_00000179645639537344300670000000308543438799377822_)" d="M1836.9,0c18.3,18.3,29.7,43.5,29.7,71.4c0,55.7-45.2,100.9-101,100.9s-101-45.2-101-100.9c0-27.9,11.3-53.2,29.7-71.4H1836.9 L1836.9,0z" enable-background="new" opacity=".7"/><linearGradient id="SVGID_00000106105341577358181700000000326068242253795224_" x1="1680.7" x2="1903.21" y1="715.342" y2="339.372" gradientTransform="matrix(1 0 0 1 0 -504)" gradientUnits="userSpaceOnUse"><stop offset="0" stop-color="#3d8be6"/><stop offset=".38" stop-color="#3a5bdd"/><stop offset=".79" stop-color="#382dd4"/><stop offset="1" stop-color="#381cd1"/></linearGradient><path fill="url(#SVGID_00000106105341577358181700000000326068242253795224_)" d="M1866.6,71.4c0,55.7-50.7,77.8-89.3,37.3c-61-63.8-112.7,18.4-112.7-37.3c0-27.9,11.3-53.2,29.7-71.4H1837 C1855.2,18.3,1866.6,43.5,1866.6,71.4L1866.6,71.4z" enable-background="new" opacity=".7"/><linearGradient id="SVGID_00000158722144954180575440000006704208355473993898_" x1="1749.267" x2="1824.427" y1="624.923" y2="416.753" gradientTransform="matrix(1 0 0 1 0 -504)" gradientUnits="userSpaceOnUse"><stop offset="0" stop-color="#3d8be6"/><stop offset=".09" stop-color="#3c76e2"/><stop offset=".25" stop-color="#3a55db"/><stop offset=".43" stop-color="#393cd7"/><stop offset=".6" stop-color="#382ad3"/><stop offset=".79" stop-color="#381fd1"/><stop offset="1" stop-color="#381cd1"/></linearGradient><path fill="url(#SVGID_00000158722144954180575440000006704208355473993898_)" d="M1866.6,71.5c0,55.7-22.5-8.8-66.8-43c-60-46.4-102.6,74.3-120,26.5c-6.8-18.6,0-38.9,15.1-54.9h141.9 C1855.2,18.3,1866.6,43.5,1866.6,71.5L1866.6,71.5z" enable-background="new" opacity=".7"/><linearGradient id="SVGID_00000172403752075445464900000004362848925452159110_" x1="1553.502" x2="1909.992" y1="755.178" y2="453.428" gradientTransform="matrix(1 0 0 1 0 -504)" gradientUnits="userSpaceOnUse"><stop offset="0" stop-color="#ffdc85" stop-opacity=".8"/><stop offset=".15" stop-color="#fee181" stop-opacity=".56"/><stop offset=".29" stop-color="#fde57e" stop-opacity=".36"/><stop offset=".43" stop-color="#fde87c" stop-opacity=".21"/><stop offset=".55" stop-color="#fdeb7a" stop-opacity=".09"/><stop offset=".66" stop-color="#fdec79" stop-opacity=".02"/><stop offset=".73" stop-color="#fded79" stop-opacity="0"/></linearGradient><path fill="url(#SVGID_00000172403752075445464900000004362848925452159110_)" d="M1866.6,71.4c0,55.7-45.2,100.9-101,100.9 s-101-45.2-101-100.9c0-27.9,11.3-53.2,29.7-71.4H1837C1855.2,18.3,1866.6,43.5,1866.6,71.4z"/></g><g class="st22"><linearGradient id="SVGID_00000020369256679527901900000005533571789029668506_" x1="2699.802" x2="2738.556" y1="3785.382" y2="3785.382" gradientTransform="matrix(-0.1709 0.9853 -0.9853 -0.1709 4342.8994 -1920.1978)" gradientUnits="userSpaceOnUse"><stop offset="0" stop-color="#ffe521"/><stop offset=".18" stop-color="#fed824"/><stop offset=".52" stop-color="#feb72b"/><stop offset=".96" stop-color="#fd8338"/><stop offset="1" stop-color="#fd7e3a"/></linearGradient><path fill="url(#SVGID_00000020369256679527901900000005533571789029668506_)" d="M128,89c-1-0.3-1.5,0.7-1.5,1.9 c-1.6,36.7,22.4,44.5,20,38.7c-0.4-1-6.1-7.4-6-9.1c2.9,4.9,7.6,6.4,9.1,7.2c6.3,3.2,13.2,3.7,18.8,4c3.8,0.2,2.8-3.2,1.2-5.2 c-1-1.2-10.2-5.9-11.4-6.8c-7.4-5.7-7.8-2.7-13.7-13.2c2.4-1.1,4.4-0.3,6.8-0.1c2.8,0.3,2-1.1-0.6-3.1 C144.8,98.6,138.2,103.3,128,89L128,89z"/><g><path d="M123.7,84.7c5.9,8,9.8,17.2,15.2,25.5c3.6,5.8,9.6,9.7,15.9,12.1c2.9,1,5.9,1.9,8.9,2.7 c-9.6-1.8-19.8-5.7-25.2-14.4C133,102.2,129.2,93,123.7,84.7C123.6,84.7,123.6,84.7,123.7,84.7z" class="st21"/><path d="M128.9,94.4c2.9,10.5,3.7,22.3,10.8,31.1C132,117.3,131,105,128.9,94.4L128.9,94.4z" class="st21"/><path d="M130.9,97.2c3.2,5.2,6.6,6.3,12.5,6c1.7,0,3.4,0,5,0.3c-1.7-0.1-3.3,0-5,0.1 C137.6,104.3,133.4,102.8,130.9,97.2L130.9,97.2L130.9,97.2z" class="st21"/></g></g><g class="st16"><g><linearGradient id="SVGID_00000023995170488452561380000018322341598154384023_" x1="-7182.412" x2="-7195.952" y1="-8946.126" y2="-8908.836" gradientTransform="matrix(-0.8167 -0.577 -0.577 0.8167 -10602.1123 3345.1553)" gradientUnits="userSpaceOnUse"><stop offset="0" stop-color="#ffe521"/><stop offset=".23" stop-color="#fedd28"/><stop offset=".58" stop-color="#fec93d"/><stop offset="1" stop-color="#fda960"/></linearGradient><path fill="url(#SVGID_00000023995170488452561380000018322341598154384023_)" d="M441.1,203.4c3.2,3.1-2.7,9.1-4.7,11.4 c-5.3,5-11.4,7.5-18.7,5.7c-3.8,7.3-7,3.1-11.9-0.8c-3.5-3.6-7.6-9.6-4.8-14.6c0.1-0.5,0.3-0.7,0.7-1c-3.8-7.8-1-17,4.1-23.6 c3.1-4,4.9,1.4,5.8,3.7c6.7,0.1,6.9-0.1,10.5-6.3c1.1-1.9,1.2-3.6,2.8-5c8,1.6,3.9,18.1,1.8,23.4c12.2-5.4,9.9-0.7,18.4-12.7 c0.6-0.8,2.1-1.7,2.2,0.7c0.1,4.2-1.2,9.1-3.4,13c-3.4,5.7-6.5,7.3-12.5,9.1C435.2,206.6,437.2,203.2,441.1,203.4L441.1,203.4z"/><path d="M388.5,192.9c-0.9,0.4-1.6,1-2.4,1.6c-0.4,0.3-0.4,1.1,0,1.4c2.3,1.9,4.4,4.1,6.8,5.9 c2.5,1.9,5.2,3.2,8.3,3.4c1.1,0.1,1.4-1.8,0.3-2c-2.6-0.5-5.1-1.7-7.2-3.3s-3.9-3.7-4.4-6.4c-0.1-0.6-1-0.9-1.5-0.6 c-0.7,0.5-1.6,1.2-1.3,2.2c0.2,0.7,0.9,1.2,1.4,1.7c0.9,0.9,2.3-0.5,1.4-1.4c-0.2-0.2-0.6-0.7-0.9-0.8c-0.1-0.1-0.1-0.1-0.1-0.1 c0.1,0.1,0.2,0.3,0,0.6c0,0,0.4-0.4,0.5-0.4c-0.5-0.2-1-0.4-1.5-0.6c0.6,3,2.6,5.5,4.9,7.3c2.4,1.8,5.2,3.2,8.1,3.8 c0.1-0.7,0.2-1.3,0.3-2c-5.8-0.5-9.6-5.4-13.7-8.8c0,0.5,0,0.9,0,1.4c0.6-0.5,1.3-0.9,2-1.3C390.7,194,389.7,192.3,388.5,192.9 L388.5,192.9L388.5,192.9z" class="st18"/><g><g class="st29"><path d="M403.2,205.5c1.6-3.3,1.7-7.5,2.3-11.1c0.5-3.3,1.1-8.1,2-11.3c-0.8,6.6-1.2,13.4-3,19.9 C404.1,203.8,403.8,204.8,403.2,205.5C402.8,205.9,402.8,205.9,403.2,205.5L403.2,205.5z" class="st18"/></g><g class="st29"><path d="M403.2,205.8c2.3,1.8,3.2,4.7,4.4,7.2c1.1,2.6,2.6,5,4.5,7c-2.3-1.7-4-4.1-5.1-6.8 C405.9,210.7,405.1,208,403.2,205.8L403.2,205.8L403.2,205.8z" class="st18"/></g><g class="st29"><path d="M403.6,205.9c8.8-4.5,17.4-16.4,20.8-25.5C421.9,189.8,412.8,202.3,403.6,205.9 C397.4,208.3,397.4,208.3,403.6,205.9z" class="st18"/></g><g class="st29"><path d="M404.4,206.6c16-4.1,31.9-0.6,39.8-18.4l-1.2,2.6C435.7,206.4,418.7,203.8,404.4,206.6L404.4,206.6 L404.4,206.6z" class="st18"/></g><g class="st29"><path d="M439,206.1c-11.1,8.9-23.1,10.4-34.4,0.8C416.7,215.6,427.1,214,439,206.1 C446.9,200.7,446.9,200.7,439,206.1z" class="st18"/></g></g></g></g><g class="st30"><linearGradient id="SVGID_00000019668853223328520630000002754111798629402299_" x1="6418.281" x2="6443.091" y1="978.562" y2="967.371" gradientTransform="matrix(-0.9905 -0.1373 0.1373 -0.9905 7857.0464 1940.4824)" gradientUnits="userSpaceOnUse"><stop offset="0" stop-color="#ffe521"/><stop offset=".18" stop-color="#fed824"/><stop offset=".52" stop-color="#feb72b"/><stop offset=".96" stop-color="#fd8338"/><stop offset="1" stop-color="#fd7e3a"/></linearGradient><path fill="url(#SVGID_00000019668853223328520630000002754111798629402299_)" d="M1620.8,113.1c0.2,0.3,1.3,0.5,1.5-0.1 c19.2-5.2,8.4-29.7,7.2-22.8c-0.2,1.2,0.1,2.8-0.9,3.8c-1.9-0.1-2.1-4.8-2.5-6.1c-1.6-5.2-5.6-7.1-8.8-9.8s-3.3-3.3-1.9,0.7 c2.8,6.7,1.4,12.6,2.4,19.2c-1.5-1.3-2.1-3-3.2-4.6C1610.4,87.1,1616.9,108.7,1620.8,113.1L1620.8,113.1z"/><g><path d="M1621.9,117.7c-1.1-15.5,5.5-21.5-3.8-37.1C1628,95.1,1621.8,102.6,1621.9,117.7L1621.9,117.7z" class="st21"/><path fill="#f2901d" d="M1621.9,110.8c1.6-2.9,4-5.3,5.7-8.1c1.8-2.8,2.6-6,2.6-9.3C1631.3,100.9,1626.1,105.7,1621.9,110.8 L1621.9,110.8L1621.9,110.8z"/><path d="M1621.3,109.3c-0.8-5-4.8-8.6-6.6-13.2C1617.2,100.3,1621.3,104.2,1621.3,109.3L1621.3,109.3z" class="st21"/></g></g><g><linearGradient id="a475692a-1291-44b6-b126-09d469b50752_00000159433565052616457480000018062253131966215846_" x1="69.768" x2="27.518" y1="715.085" y2="777.565" gradientTransform="matrix(1 0 0 1 0 -504)" gradientUnits="userSpaceOnUse"><stop offset="0" stop-color="#8fafff"/><stop offset=".12" stop-color="#809ef1" stop-opacity=".9"/><stop offset=".39" stop-color="#5c75d0" stop-opacity=".65"/><stop offset=".77" stop-color="#23339b" stop-opacity=".25"/><stop offset="1" stop-color="#000b7a" stop-opacity="0"/></linearGradient><path id="a475692a-1291-44b6-b126-09d469b50752" fill="url(#a475692a-1291-44b6-b126-09d469b50752_00000159433565052616457480000018062253131966215846_)" d="M46.5,202.2l34.2,17.6c2.6,1,4,3.8,3.2,6.5l-5.7,21.3c-0.7,2.1-3,3.3-5.2,2.7l-35.4-12c-2.2-0.6-3.5-2.8-3-5l6.2-28.1 c0.5-2.3,2.8-3.7,5.1-3.1C46.1,202.1,46.3,202.2,46.5,202.2L46.5,202.2L46.5,202.2z" enable-background="new" opacity=".7"/><g id="e1d2c9d0-8783-4ab1-b38f-75c9be1eeea4" class="st34"><path id="e29fed63-87f0-4bf5-a192-8a88f7d480ad" d="M80.8,223.1l-12.7,5.8l-6.4,2.9c-1.1,0.5-2.1,1-3.2,1.5 c-1,0.4-2.2,0.3-3.2-0.3c-0.5-0.3-0.9-0.6-1.2-1.1s-0.5-1-0.7-1.6l-1.2-3.3l-2.4-6.6L45,207.2l-0.2,0.1c0.4,2.3,1,4.6,1.6,6.8 c0.5,2.3,1.2,4.5,2,6.8s1.4,4.4,2.2,6.7c0.4,1.1,0.7,2.2,1.2,3.3l0.3,0.8c0.2,0.4,0.4,0.8,0.6,1.2c0.5,0.7,1.1,1.3,1.8,1.7 c1.5,0.9,3.3,1,4.9,0.3l0.9-0.4l0.8-0.4c0.5-0.2,1-0.5,1.5-0.8c2-1.1,4.2-2.1,6.2-3.2c2-1.1,4.2-2.2,6.2-3.4s4.1-2.4,6-3.6H80.8 L80.8,223.1z" class="st35"/></g></g><g class="st22"><linearGradient id="SVGID_00000135653492891939863150000016742926025283291025_" x1="465.253" x2="528.293" y1="532.224" y2="508.304" gradientTransform="matrix(1 0 0 1 0 -504)" gradientUnits="userSpaceOnUse"><stop offset="0" stop-color="#ffe521"/><stop offset=".18" stop-color="#fec528"/><stop offset=".4" stop-color="#fda630"/><stop offset=".61" stop-color="#fd8f35"/><stop offset=".82" stop-color="#fd8238"/><stop offset="1" stop-color="#fd7e3a"/></linearGradient><path fill="url(#SVGID_00000135653492891939863150000016742926025283291025_)" d="M462,31.8c0,1,0.8,1.4,1.6,1.3 c12.1,9.1,38.6-6.4,29-4.3c-1.7,0.4-3.8,0.7-5.4,0c-1.3-1.9,4.7-4.3,6.4-5.3c6.7-3.8,7.6-9.5,9.1-10.4c1.3-0.8,6.7-4.7-1-2.6 c-10.5,1.4-16.6,0.7-25.8,7.6c0.5-2.4,1.4-4.1,3.3-6.1C486.6,4,460.4,16.7,462,31.8L462,31.8z"/><path d="M458.2,36.2c0.8-0.6,1.5-1.3,2.2-1.9c0.8-0.6,1.6-1.2,2.4-1.7s1.7-1.1,2.5-1.5c0.9-0.5,1.7-1,2.6-1.4 c3.5-1.8,7.2-3.1,10.9-4.7c3.6-1.5,7.2-3.2,10.6-5.2s6.7-4.2,9.8-6.5c-3,2.5-6.2,4.9-9.6,6.9s-7,3.8-10.6,5.3 c-3.6,1.5-7.3,2.9-10.9,4.6C464.6,31.7,461.2,33.7,458.2,36.2L458.2,36.2z" class="st18"/><path d="M465.6,30.9c1.8-0.9,3.9-0.8,5.8-0.5s3.8,0.8,5.7,1.1c1.9,0.3,3.8,0.5,5.7,0.3c1.9-0.1,3.8-0.6,5.7-1.1 c-1.8,0.8-3.7,1.3-5.6,1.5c-2,0.2-3.9,0.1-5.9-0.2c-1.9-0.3-3.8-0.8-5.7-1.2C469.4,30.4,467.4,30.3,465.6,30.9L465.6,30.9z" class="st18"/><path d="M466.7,29c1.2-0.9,2.1-2.1,2.8-3.4c0.6-1.3,1.1-2.8,1.6-4.2s1-2.8,1.8-4.2c0.7-1.3,1.6-2.6,2.7-3.6 c-0.9,1.2-1.7,2.5-2.4,3.8c-0.6,1.3-1.2,2.7-1.6,4.2c-0.5,1.4-1,2.9-1.7,4.2C469.1,27.1,468.1,28.3,466.7,29z" class="st18"/></g><g id="stars"><circle cx="101.9" cy="128.2" r="1.1" class="st37"/><circle cx="372.6" cy="295.5" r="1.8" class="st38"/><circle cx="630" cy="279.1" r="1.3" class="st39"/><circle cx="447.5" cy="111.6" r="1.5" class="st40"/><circle cx="1407" cy="249.5" r="3.3" fill="#fff" enable-background="new" opacity=".66"/><circle cx="181.6" cy="73" r="2.6" class="st42"/><circle cx="1151.8" cy="89.2" r="2.7" class="st43"/><circle cx="1328.8" cy="145.8" r="2.3" class="st44"/><circle cx="1649" cy="197.9" r="2.5" class="st43"/><circle cx="1878.7" cy="126.3" r="3.4" fill="#fff" enable-background="new" opacity=".69"/><circle cx="1813.9" cy="173" r=".7" fill="#fff" enable-background="new" opacity=".73"/><circle cx="778.3" cy="372.7" r="2.1" class="st42"/><circle cx="914.3" cy="454.6" r=".6" class="st38"/><circle cx="1482.1" cy="72.7" r="2.8" class="st39"/><circle cx="1388.6" cy="469.5" r="1.2" class="st47"/><circle cx="1067.4" cy="398" r="2.8" class="st39"/><circle cx="296.7" cy="226.3" r="1.2" class="st40"/><circle cx="317.4" cy="56.5" r="1.6" class="st37"/><circle cx="711.5" cy="236.4" r="2.8" class="st48"/><circle cx="940.5" cy="93.5" r="1.7" fill="#fff" enable-background="new" opacity=".71"/><circle cx="1167" cy="228.5" r="1.1" class="st50"/><circle cx="627.4" cy="91.2" r="2.5" class="st40"/><circle cx="582.1" cy="226.3" r="2.2" class="st50"/><circle cx="1083" cy="50" r=".7" class="st44"/><circle cx="1568.4" cy="307.2" r="1.2" class="st47"/><circle cx="798" cy="65.4" r="3.4" fill="#fff" enable-background="new" opacity=".61"/><circle cx="1530.4" cy="164.5" r=".8" class="st48"/><circle cx="44.6" cy="70" r="3" class="st50"/><circle cx="1000.1" cy="180.8" r=".8" class="st47"/><circle cx="1241.8" cy="77.6" r=".9" class="st43"/><circle cx="513.8" cy="456.2" r="2.2" class="st40"/><circle cx="626.9" cy="363.9" r=".6" fill="#fff" enable-background="new" opacity=".62"/><circle cx="1319.2" cy="456.2" r="1.1" fill="#fff" enable-background="new" opacity=".84"/><circle cx="1110.5" cy="282.5" r="3.3" fill="#fff" enable-background="new" opacity=".63"/></g><g id="g619"><linearGradient id="path599_00000100343275460518466940000016725162498588717498_" x1="1447.7" x2="1618.2" y1="701.6" y2="701.6" gradientTransform="matrix(1 0 0 1 0 -504)" gradientUnits="userSpaceOnUse"><stop offset="0" stop-color="#678ae0"/><stop offset=".24" stop-color="#6588de" stop-opacity=".99"/><stop offset=".38" stop-color="#6283db" stop-opacity=".95"/><stop offset=".5" stop-color="#5b7bd4" stop-opacity=".89"/><stop offset=".6" stop-color="#5270cb" stop-opacity=".8"/><stop offset=".7" stop-color="#4661bf" stop-opacity=".68"/><stop offset=".78" stop-color="#374fb1" stop-opacity=".54"/><stop offset=".86" stop-color="#26399f" stop-opacity=".37"/><stop offset=".94" stop-color="#12218c" stop-opacity=".18"/><stop offset="1" stop-color="#000b7a" stop-opacity="0"/></linearGradient><path id="path599" fill="url(#path599_00000100343275460518466940000016725162498588717498_)" d="M1528.1,142.2c-14.1,25.1-49.4,57-80.4,69c0,0,15,34.2,34.1,41.8c10.3-1.5,21.2-4.4,33.5-9.1l-2.3-8.9l5.2,7.8 c38.7-14.7,82-42.1,100-68.9C1599.8,158,1560.8,144.6,1528.1,142.2L1528.1,142.2z" enable-background="new" opacity=".7"/><path id="path601" d="M1463.5,211.7c17.5-8.8,51.1-31.7,65.9-55.4c1.3-2,3.8-2.7,5.9-1.6 C1556.9,158.5,1449.6,238.4,1463.5,211.7z" class="st56"/><path id="path603" d="M1494.1,206.5c20.3-13.5,41.9-31.2,51-48.8c11.9,1.6,51.1,16.1,54.8,17.8 c-7.2,12.5-32.7,31.1-44.4,36.7c-3.8-4.2-26.7-18.5-26.7-18.5s-12.6,8.9-30.3,18.9C1497.3,210.1,1495.7,208.3,1494.1,206.5z" class="st56"/><path id="path605" d="M1466.6,221.4c8.2-3.4,24-13.1,24-13.1l20.3,29.4c0,0-19.2,6.8-25.5,6.9 C1477.5,239.3,1466.6,221.4,1466.6,221.4L1466.6,221.4z" class="st56"/><g id="g609" class="st57"><path id="path607" d="M1618.4,174c-31.2,40.9-86.6,69.1-136.4,79.1c-16.8-8-26.2-25.9-34.1-41.9h0.1 c8.2,15.7,17.8,33.4,34.4,41.2l-0.3-0.1C1530.8,242.5,1587.6,213.7,1618.4,174L1618.4,174z" class="st1"/></g></g><g><g id="g667"><g id="g653" class="st57"><path id="path651" d="M279.3,148.1l-8.3,22.2c-0.4,1.3-1.7,2.2-3,2.2c-0.7,0-1.3-0.2-2-0.5l-31.9-10.5v-0.1 l32.9,10.3c0.2,0.1,0.5,0.1,0.8,0.1c1.1,0,2.2-0.7,2.6-1.8c0.9-2.5,5.8-14.7,5.8-14.7L279.3,148.1L279.3,148.1z" class="st1"/></g><linearGradient id="path655_00000088811947166490594380000014838223316480303029_" x1="378.314" x2="151.854" y1="612.259" y2="723.999" gradientTransform="matrix(1 0 0 1 0 -504)" gradientUnits="userSpaceOnUse"><stop offset="0" stop-color="#739afa"/><stop offset=".23" stop-color="#7198f8" stop-opacity=".99"/><stop offset=".37" stop-color="#6e93f4" stop-opacity=".96"/><stop offset=".48" stop-color="#678bed" stop-opacity=".9"/><stop offset=".58" stop-color="#5e80e2" stop-opacity=".82"/><stop offset=".67" stop-color="#5271d5" stop-opacity=".72"/><stop offset=".76" stop-color="#435fc5" stop-opacity=".59"/><stop offset=".83" stop-color="#3249b1" stop-opacity=".44"/><stop offset=".91" stop-color="#1d2f9b" stop-opacity=".26"/><stop offset=".98" stop-color="#071482" stop-opacity=".06"/><stop offset="1" stop-color="#000b7a" stop-opacity="0"/></linearGradient><path id="path655" fill="url(#path655_00000088811947166490594380000014838223316480303029_)" d="M345,110.8c-25.8-5.5-60-4.2-89.1,2.2c1.9,22.6-1,39.9-7.2,53.4l17.3,5.7l-18.9-2.4c-4,7.6-9,13.9-14.9,19.4 c0,0,31.4,21.7,50.7,21.9C312.9,193.5,346.6,145.2,345,110.8L345,110.8z" enable-background="new" opacity=".7"/><path id="path657" d="M265.8,117.9c14.7-1.6,44.8-3.1,64-0.7c2.9,0.4,5,3,4.6,5.9v0.2c-0.4,2.9-3.1,5-6,4.5 c-13.6-2.2-42.9-4.2-63.3-3.1c-1.2,0.1-2.1-0.8-2.5-1.9c0-0.1-0.1,0.1-0.1-0.2C262,120.3,263.6,118.2,265.8,117.9L265.8,117.9z" class="st56"/><path id="path659" d="M331,134.2c-10.7-2.6-47-5.9-67.9-6.3c0,3.2-0.4,5.5-0.8,7.9c5.6,0.7,17.2,2.5,28.4,4.5 c-3,8.3-9.1,22.8-10.5,25.7c1.2,0.6,25.6,8.7,27.8,9.6c8.6-9.4,15.3-22.5,17.8-28.4c0,0,0.1,0,0.1,0.1 C328.4,142.3,329.4,139.1,331,134.2L331,134.2z" class="st56"/><path id="path661" d="M252.4,174.1c5.5,2.3,11.3,4.8,19.7,7.7c1.6-2.9,5.2-8,6.7-11.6c8.8,3,23.8,8.2,26.9,9.5 c-3,3.5-19.1,20.5-24.2,23c-8.3-0.6-36.7-14.8-38.1-15.8C244.5,185.9,252.4,174.1,252.4,174.1L252.4,174.1z" class="st56"/><g id="g665" class="st57"><path id="path663" fill="#ececec" d="M345,110.8c0.2,5.1-0.3,10.2-1.3,15.2s-2.5,9.9-4.3,14.7c-3.6,9.6-8.4,18.6-13.9,27.2 c-5.5,8.5-11.9,16.6-18.9,23.9c-3.5,3.7-7.2,7.2-11.1,10.4s-8.1,6.2-12.5,8.8c-2.3,0-4.6-0.4-6.9-0.9s-4.5-1.1-6.8-1.8 c-4.5-1.4-8.7-3.3-12.9-5.3c-4.2-2-8.3-4.2-12.3-6.5s-8-4.8-11.8-7.4l0.1-0.1c3.9,2.6,7.9,4.9,11.9,7.2s8.2,4.4,12.4,6.4 c4.2,2,8.5,3.8,12.9,5.2c2.2,0.7,4.5,1.3,6.7,1.8s4.6,0.8,6.8,0.8l-0.2,0.1c4.4-2.6,8.5-5.6,12.4-8.8s7.6-6.8,11.1-10.4 c7-7.3,13.4-15.3,18.9-23.8s10.4-17.4,14-27c0.4-1.1,0.9-2.4,1.3-3.6s0.8-2.4,1.2-3.6l0.5-1.8c0.2-0.6,0.3-1.2,0.5-1.8l0.5-1.8 l0.4-1.9C344.6,120.9,345.2,115.9,345,110.8L345,110.8z"/></g></g><linearGradient id="path649_00000170958237966997687290000002752963097403062665_" x1="270.154" x2="202.764" y1="653.269" y2="677.219" gradientTransform="matrix(1 0 0 1 0 -504)" gradientUnits="userSpaceOnUse"><stop offset="0" stop-color="#739afa"/><stop offset=".23" stop-color="#7198f8" stop-opacity=".99"/><stop offset=".37" stop-color="#6e93f4" stop-opacity=".96"/><stop offset=".48" stop-color="#678bed" stop-opacity=".9"/><stop offset=".58" stop-color="#5e80e2" stop-opacity=".82"/><stop offset=".67" stop-color="#5271d5" stop-opacity=".72"/><stop offset=".76" stop-color="#435fc5" stop-opacity=".59"/><stop offset=".83" stop-color="#3249b1" stop-opacity=".44"/><stop offset=".91" stop-color="#1d2f9b" stop-opacity=".26"/><stop offset=".98" stop-color="#071482" stop-opacity=".06"/><stop offset="1" stop-color="#000b7a" stop-opacity="0"/></linearGradient><path id="path649" fill="url(#path649_00000170958237966997687290000002752963097403062665_)" d="M232.1,157.6c-0.4,1.6,0.5,3.4,2.1,3.8l32.8,10.8c1.6,0.6,3.4-0.3,4-1.9l8.4-22.2c0.7-1.8-0.4-3.7-2.2-4.2l-34.3-6.8 c-2.1-0.5-4.1,0.7-4.8,2.7L232.1,157.6z" enable-background="new" opacity=".7"/><g><linearGradient id="SVGID_00000042697327523573813740000013399553753877892017_" x1="248.067" x2="264.33" y1="656.491" y2="656.491" gradientTransform="matrix(1 0 0 1 0 -504)" gradientUnits="userSpaceOnUse"><stop offset="0" stop-color="#ffe521"/><stop offset=".18" stop-color="#fec528"/><stop offset=".4" stop-color="#fda630"/><stop offset=".61" stop-color="#fd8f35"/><stop offset=".82" stop-color="#fd8238"/><stop offset="1" stop-color="#fd7e3a"/></linearGradient><path fill="url(#SVGID_00000042697327523573813740000013399553753877892017_)" d="M248.1,155.2l2.3-6.5c0.3-0.9,1.5-1.3,2.3-0.8l11.2,7.6c0.6,0.4,0.3,1.3-0.4,1.4l-13.9,0.4C248.6,157.3,247.8,156.2,248.1,155.2 L248.1,155.2z" enable-background="new" opacity=".8"/><polygon fill="#ffa566" points="245.1 150.3 260.5 155.2 244 151.2"/></g></g><g opacity=".6"><linearGradient id="SVGID_00000071539054529504379350000006283662325615787435_" x1="1579.602" x2="1914.603" y1="825.982" y2="825.982" gradientTransform="matrix(1 0 0 1 0 -504)" gradientUnits="userSpaceOnUse"><stop offset="0" stop-color="#678ae0"/><stop offset=".24" stop-color="#6588de" stop-opacity=".99"/><stop offset=".38" stop-color="#6283db" stop-opacity=".95"/><stop offset=".5" stop-color="#5b7bd4" stop-opacity=".89"/><stop offset=".6" stop-color="#5270cb" stop-opacity=".8"/><stop offset=".7" stop-color="#4661bf" stop-opacity=".68"/><stop offset=".78" stop-color="#374fb1" stop-opacity=".54"/><stop offset=".86" stop-color="#26399f" stop-opacity=".37"/><stop offset=".94" stop-color="#12218c" stop-opacity=".18"/><stop offset="1" stop-color="#000b7a" stop-opacity="0"/></linearGradient><path fill="url(#SVGID_00000071539054529504379350000006283662325615787435_)" d="M1907.7,359.6c0,0-0.1,0-0.2,0.1c-0.3,0.2-0.5,0.3-0.8,0.5c-0.2,0.1-0.4,0.2-0.5,0.3c-0.1,0.1-0.2,0.1-0.3,0.2 c-0.1,0-0.1,0.1-0.2,0.1c0,0,0,0-0.1,0c-1,0.6-1.8,1.2-4.1,2.2c-40.6,21.3-87.9,33.2-131.3,26.5c-9-1.4-17.8-3.5-26.4-6.6 c-3.8-1.3-7.5-2.8-11.1-4.5c-6.9-3.2-13.5-7-19.9-11.4c-0.5-0.3-1-0.7-1.5-1c-6.4-4.5-11.2-8.8-15.2-12.6 c-12.2-11.7-16.7-20-33.6-24.4c-6-1.6-25.5,0.9-37.4,17.6c-6,8.5-13.8,17.5-22.7,26.8c-4.6,4.8-9.6,9.7-14.7,14.6 c-11.8-9.7-9.5-20.3-0.8-20.1c-4.3-4.7-0.8-10.9,3.1-11.3c-0.4-0.4-0.7-0.7-1-1.1c-22.1-24.2,13.2-49,40.2-39.4 c2-7.6,9.7-11.2,17-7.8c6.4-8.8,29.5-12.7,33.6-0.4c0.4-0.5,0.8-1,1.3-1.6c1.5-2,3.2-4.5,4.2-6.2c-1.4-6.2,5.9-13.5,9.2-10.5 c-3.7-6.8,8.5-15.2,15-13.6c-1.5-13.9,24.4-20.4,31.8-9.3c15.2-20.8,31.3-16.4,21.8-1c8.2-12.1,16.9-4.6,17.4,3 c12.1-11.3,37.1-13,30.2,8.9c4.2,3,7.9,7,12.6,3c-0.1,0-0.2,0-0.3,0c5.4-4.4,17.7-5.3,17.1,0.4c12.4-15.1,40,8.7,33.4,26.1 c3.4,0.3,5.6,2.1,7.6,2.6c-0.1,0.5-0.3,0.9-0.6,1.3c0.5-0.2,1-0.1,1.5,0.2c0.2,0.7,0.3,1.5,0.5,2.2c3.6,0.8,1.8,1.1,4.1,2.7 c9.9-3.4,8,9.3,1.6,13.6c0.6-0.3,1.3-0.6,1.9-0.9c0.3-0.1,0.6-0.2,1-0.3c0.4-0.1,0.8-0.2,1.2-0.3c10.1-2.4,19.3,5.9,21.7,15 c0.3,1.2,0.5,2.4,0.6,3.5C1914.7,351.6,1912.8,356.4,1907.7,359.6L1907.7,359.6z" enable-background="new" opacity=".2"/><linearGradient id="SVGID_00000055682605640606115860000010086307988581504933_" x1="1579.702" x2="1734.6" y1="848.053" y2="848.053" gradientTransform="matrix(1 0 0 1 0 -504)" gradientUnits="userSpaceOnUse"><stop offset="0" stop-color="#678ae0"/><stop offset=".24" stop-color="#6588de" stop-opacity=".99"/><stop offset=".38" stop-color="#6283db" stop-opacity=".95"/><stop offset=".5" stop-color="#5b7bd4" stop-opacity=".89"/><stop offset=".6" stop-color="#5270cb" stop-opacity=".8"/><stop offset=".7" stop-color="#4661bf" stop-opacity=".68"/><stop offset=".78" stop-color="#374fb1" stop-opacity=".54"/><stop offset=".86" stop-color="#26399f" stop-opacity=".37"/><stop offset=".94" stop-color="#12218c" stop-opacity=".18"/><stop offset="1" stop-color="#000b7a" stop-opacity="0"/></linearGradient><path fill="url(#SVGID_00000055682605640606115860000010086307988581504933_)" d="M1732.8,378.4c-6.9-3.2-13.5-7-19.9-11.4c-0.5-0.3-1-0.7-1.5-1c-6.4-4.5-11.2-8.8-15.2-12.6c-12.2-11.7-16.7-20-33.6-24.4 c-6-1.6-25.5,0.9-37.4,17.6c-6,8.5-13.8,17.5-22.7,26.8c-4.6,4.8-9.6,9.7-14.7,14.6c-11.8-9.7-9.5-20.3-0.8-20.1 c-4.3-4.7-0.8-10.9,3.1-11.3c-0.4-0.4-0.7-0.7-1-1.1c-22.1-24.2,13.2-49,40.2-39.4c2-7.6,9.7-11.2,17-7.8 c6.4-8.8,29.5-12.7,33.6-0.4c0.4-0.5,0.8-1,1.3-1.6c0.2,0.7,0.2,1.2-0.3,1.4c8.7-0.6,7.5,12.1,3.4,15.5c0.2,0,3.2,0.2,3.3,0.2 c5-6.2,12.1-1.4,10.3,5c2.6-3.3,8.5-2,9.1,3.3c1.5-4.5,9.9-4.7,13.8-2.2c9.1,5.8,0.8,17.3,0.1,24.8c9.2-2.7,12.1,8.6,7.6,15.3 C1732.9,366.2,1737.1,374,1732.8,378.4L1732.8,378.4z" enable-background="new" opacity=".3"/><linearGradient id="SVGID_00000162349012357130203250000017001579415115934910_" x1="1649.945" x2="1863.236" y1="709.93" y2="1047.83" gradientTransform="matrix(1 0 0 1 0 -504)" gradientUnits="userSpaceOnUse"><stop offset="0" stop-color="#ffe521"/><stop offset=".18" stop-color="#fed824"/><stop offset=".52" stop-color="#feb72b"/><stop offset=".96" stop-color="#fd8338"/><stop offset="1" stop-color="#fd7e3a"/></linearGradient><path fill="url(#SVGID_00000162349012357130203250000017001579415115934910_)" d="M1907.8,359.6C1907.8,359.6,1907.7,359.6,1907.8,359.6c-0.4,0.2-0.7,0.4-1,0.6c-0.2,0.1-0.4,0.2-0.5,0.3c-0.1,0.1-0.2,0.1-0.3,0.2 h-0.1c0,0-0.1,0-0.1,0.1c0,0,0,0-0.1,0c-0.1,0.1-0.2,0.1-0.4,0.2h-0.1c-0.2,0.1-0.3,0.2-0.4,0.2c-0.2,0.1-0.5,0.3-0.8,0.5 c-0.5,0.3-1.2,0.7-2.3,1.3c-40.6,21.3-87.9,33.2-131.3,26.5c-9-1.4-17.8-3.5-26.4-6.6c-3.8-1.3-7.5-2.8-11.1-4.5 c-6.9-3.2-13.5-7-19.9-11.4c-0.5-0.3-1-0.7-1.5-1c-6.4-4.5-11.2-8.8-15.2-12.6c-12.2-11.7-16.7-20-33.6-24.4 c-6-1.6-25.5,0.9-37.4,17.6c-6,8.5-13.8,17.5-22.7,26.8c-4.6,4.8-9.6,9.7-14.7,14.6c-11.8-9.7-9.5-20.3-0.8-20.1 c-4.3-4.7-0.8-10.9,3.1-11.3c-0.4-0.4-0.7-0.7-1-1.1c-22.1-24.2,13.2-49,40.2-39.4c2-7.6,9.7-11.2,17-7.8 c6.4-8.8,29.5-12.7,33.6-0.4c0.4-0.5,0.8-1,1.3-1.6c1.5-2,3.2-4.5,4.2-6.2c-1.4-6.2,5.9-13.5,9.2-10.5c-3.7-6.8,8.5-15.2,15-13.6 c-1.5-13.9,24.4-20.4,31.8-9.3c15.2-20.8,31.3-16.4,21.8-1c8.2-12.1,16.9-4.6,17.4,3c12.1-11.3,37.1-13,30.2,8.9 c4.2,3,7.9,7,12.6,3c-0.1,0-0.2,0-0.3,0c5.4-4.4,17.7-5.3,17.1,0.4c12.4-15.1,40,8.7,33.4,26.1c3.4,0.3,5.6,2.1,7.6,2.6 c-0.1,0.5-0.3,0.9-0.6,1.3c0.5-0.2,1-0.1,1.5,0.2c0.2,0.7,0.3,1.5,0.5,2.2c3.6,0.8,1.8,1.1,4.1,2.7c9.9-3.4,8,9.3,1.6,13.6 c0.6-0.3,1.3-0.6,1.9-0.9c0.3-0.1,0.6-0.2,1-0.3c0.4-0.1,0.8-0.2,1.2-0.3c10.1-2.4,19.3,5.9,21.7,15c0.3,1.2,0.5,2.4,0.6,3.5 C1914.8,351.6,1912.9,356.4,1907.8,359.6L1907.8,359.6z" enable-background="new" opacity=".3"/><linearGradient id="SVGID_00000120559770945623800250000011618034003360677001_" x1="1579.702" x2="1734.6" y1="848.053" y2="848.053" gradientTransform="matrix(1 0 0 1 0 -504)" gradientUnits="userSpaceOnUse"><stop offset="0" stop-color="#ffe521"/><stop offset=".18" stop-color="#fed824"/><stop offset=".52" stop-color="#feb72b"/><stop offset=".96" stop-color="#fd8338"/><stop offset="1" stop-color="#fd7e3a"/></linearGradient><path fill="url(#SVGID_00000120559770945623800250000011618034003360677001_)" d="M1732.8,378.4c-6.9-3.2-13.5-7-19.9-11.4c-0.5-0.3-1-0.7-1.5-1c-6.4-4.5-11.2-8.8-15.2-12.6c-12.2-11.7-16.7-20-33.6-24.4 c-6-1.6-25.5,0.9-37.4,17.6c-6,8.5-13.8,17.5-22.7,26.8c-4.6,4.8-9.6,9.7-14.7,14.6c-11.8-9.7-9.5-20.3-0.8-20.1 c-4.3-4.7-0.8-10.9,3.1-11.3c-0.4-0.4-0.7-0.7-1-1.1c-22.1-24.2,13.2-49,40.2-39.4c2-7.6,9.7-11.2,17-7.8 c6.4-8.8,29.5-12.7,33.6-0.4c0.4-0.5,0.8-1,1.3-1.6c0.2,0.7,0.2,1.2-0.3,1.4c8.7-0.6,7.5,12.1,3.4,15.5c0.2,0,3.2,0.2,3.3,0.2 c5-6.2,12.1-1.4,10.3,5c2.6-3.3,8.5-2,9.1,3.3c1.5-4.5,9.9-4.7,13.8-2.2c9.1,5.8,0.8,17.3,0.1,24.8c9.2-2.7,12.1,8.6,7.6,15.3 C1732.9,366.2,1737.1,374,1732.8,378.4L1732.8,378.4z" enable-background="new" opacity=".2"/><g class="st30"><linearGradient id="SVGID_00000151525701195028402260000009928955815934095764_" x1="1521.333" x2="1588.423" y1="907.418" y2="896.999" gradientTransform="matrix(1 0 0 1 0 -504)" gradientUnits="userSpaceOnUse"><stop offset="0" stop-color="#678ae0"/><stop offset=".24" stop-color="#6588de" stop-opacity=".99"/><stop offset=".38" stop-color="#6283db" stop-opacity=".95"/><stop offset=".5" stop-color="#5b7bd4" stop-opacity=".89"/><stop offset=".6" stop-color="#5270cb" stop-opacity=".8"/><stop offset=".7" stop-color="#4661bf" stop-opacity=".68"/><stop offset=".78" stop-color="#374fb1" stop-opacity=".54"/><stop offset=".86" stop-color="#26399f" stop-opacity=".37"/><stop offset=".94" stop-color="#12218c" stop-opacity=".18"/><stop offset="1" stop-color="#000b7a" stop-opacity="0"/></linearGradient><path fill="url(#SVGID_00000151525701195028402260000009928955815934095764_)" d="M1587.8,387.9 c-20.7,19.5-45.4,39.3-69.9,56.5l0,0c-0.2,0.1-0.4,0.3-0.6,0.4c-0.6,0-1.1,0-1.7-0.1c-4.7-4.7,6-9.4,10.4-11.6 c-0.8-0.9-1.7-0.3-2.5-0.9c-1.6-1.2-2.4-2.2-2.9-4.4c-3-6.3,13.5-15.3,20-16.4c-10.3-7.1,6-19.1,15.4-21.2 c-4.6-1.9-2.8-6.4,1.5-7.5c-46.4,1.3,8.7-45.9,27.2-18.3c-0.1-1.7,0.3-3.2,1-4.5c-1,2.3-1,5.2,1.3,7.7 C1578.3,367.6,1576,378.2,1587.8,387.9z"/><linearGradient id="SVGID_00000065043891410733058130000004341831733342676895_" x1="1516.856" x2="1592.066" y1="912.383" y2="886.283" gradientTransform="matrix(1 0 0 1 0 -504)" gradientUnits="userSpaceOnUse"><stop offset="0" stop-color="#ffe521"/><stop offset=".18" stop-color="#fed824"/><stop offset=".52" stop-color="#feb72b"/><stop offset=".96" stop-color="#fd8338"/><stop offset="1" stop-color="#fd7e3a"/></linearGradient><path fill="url(#SVGID_00000065043891410733058130000004341831733342676895_)" d="M1587.8,387.9c-20.7,19.5-45.4,39.3-69.9,56.5l0,0c-0.2,0.1-0.4,0.3-0.6,0.4c-0.6,0-1.1,0-1.7-0.1c-4.7-4.7,6-9.4,10.4-11.6 c-0.8-0.9-1.7-0.3-2.5-0.9c-1.6-1.2-2.4-2.2-2.9-4.4c-3-6.3,13.5-15.3,20-16.4c-10.3-7.1,6-19.1,15.4-21.2 c-4.6-1.9-2.8-6.4,1.5-7.5c-46.4,1.3,8.7-45.9,27.2-18.3c-0.1-1.7,0.3-3.2,1-4.5c-1,2.3-1,5.2,1.3,7.7 C1578.3,367.6,1576,378.2,1587.8,387.9z" enable-background="new" opacity=".6"/></g></g><g id="tent"><linearGradient id="SVGID_00000119107466952514463460000009157503529237215646_" x1="1735.1" x2="1906.2" y1="839.924" y2="839.924" gradientTransform="matrix(1 0 0 1 0 -504)" gradientUnits="userSpaceOnUse"><stop offset="0" stop-color="#678ae0"/><stop offset=".14" stop-color="#5b7bd4" stop-opacity=".89"/><stop offset=".44" stop-color="#3d57b7" stop-opacity=".6"/><stop offset=".87" stop-color="#0f1d88" stop-opacity=".15"/><stop offset="1" stop-color="#000b7a" stop-opacity="0"/></linearGradient><path fill="url(#SVGID_00000119107466952514463460000009157503529237215646_)" d="M1906.2,360.5c-2.1,1.1-3.5,2-3.8,2.1 c-40.8,21.5-88.4,33.6-132.1,26.9l-4.8-9.3c-11.7-22.8-20.1-47.2-25-72.4l-5.4-27.3c0,0,50.3,34.5,119.3,16.6 c25.1,36.4,25.1,40.7,51.5,63.1C1906.1,360.4,1906.1,360.4,1906.2,360.5z"/><linearGradient id="SVGID_00000078037798746483615190000009502809901089520037_" x1="1799.544" x2="1853.044" y1="753.371" y2="947.352" gradientTransform="matrix(1 0 0 1 0 -504)" gradientUnits="userSpaceOnUse"><stop offset="0" stop-color="#678ae0"/><stop offset=".14" stop-color="#5b7bd4" stop-opacity=".89"/><stop offset=".44" stop-color="#3d57b7" stop-opacity=".6"/><stop offset=".87" stop-color="#0f1d88" stop-opacity=".15"/><stop offset="1" stop-color="#000b7a" stop-opacity="0"/></linearGradient><path fill="url(#SVGID_00000078037798746483615190000009502809901089520037_)" d="M1906.2,360.5c-2.1,1.1-3.5,2-3.8,2.1c-40.8,21.5-88.4,33.6-132.1,26.9l-4.8-9.3c-11.7-22.8-20.1-47.2-25-72.4l-5.4-27.3 c0,0,50.3,34.5,119.3,16.6c25.1,36.4,25.1,40.7,51.5,63.1C1906.1,360.4,1906.1,360.4,1906.2,360.5z" enable-background="new" opacity=".7"/><linearGradient id="SVGID_00000157271345115011176120000007677192894718117526_" x1="1906.123" x2="1775.654" y1="1027.578" y2="743.658" gradientTransform="matrix(1 0 0 1 0 -504)" gradientUnits="userSpaceOnUse"><stop offset="0" stop-color="#ffdc85" stop-opacity=".8"/><stop offset=".19" stop-color="#fee081" stop-opacity=".57"/><stop offset=".38" stop-color="#fde57e" stop-opacity=".37"/><stop offset=".57" stop-color="#fde87c" stop-opacity=".21"/><stop offset=".73" stop-color="#fdea7a" stop-opacity=".09"/><stop offset=".87" stop-color="#fdec79" stop-opacity=".02"/><stop offset=".98" stop-color="#fded79" stop-opacity="0"/></linearGradient><path fill="url(#SVGID_00000157271345115011176120000007677192894718117526_)" d="M1906.2,360.5c-2.1,1.1-3.5,2-3.8,2.1c-40.8,21.5-88.4,33.6-132.1,26.9l-4.8-9.3c-11.7-22.8-20.1-47.2-25-72.4l-5.4-27.3 c0,0,50.3,34.5,119.3,16.6c25.1,36.4,25.1,40.7,51.5,63.1C1906.1,360.4,1906.1,360.4,1906.2,360.5z" enable-background="new" opacity=".5"/><linearGradient id="SVGID_00000060006704664553648980000018176869344282830217_" x1="1696.1" x2="1770.3" y1="839.05" y2="839.05" gradientTransform="matrix(1 0 0 1 0 -504)" gradientUnits="userSpaceOnUse"><stop offset="0" stop-color="#678ae0"/><stop offset=".14" stop-color="#5b7bd4" stop-opacity=".89"/><stop offset=".44" stop-color="#3d57b7" stop-opacity=".6"/><stop offset=".87" stop-color="#0f1d88" stop-opacity=".15"/><stop offset="1" stop-color="#000b7a" stop-opacity="0"/></linearGradient><path fill="url(#SVGID_00000060006704664553648980000018176869344282830217_)" d="M1770.3,389.5c-9-1.4-17.8-3.5-26.4-6.6c-10.8-3.9-21.2-9.1-31.1-15.9c-0.5-0.3-1-0.7-1.5-1c-6.4-4.5-11.2-8.8-15.2-12.6 c12.8-17.3,23.6-36.1,31.9-56l7.1-16.8l5.4,27.3c4.9,25.2,13.4,49.5,25,72.4L1770.3,389.5L1770.3,389.5z" enable-background="new" opacity=".7"/><g class="st34"><path d="M1743.1,293.2c21.2,21.4,48,38.7,76.2,49.3l5.7,2.1l-0.9,0.2c5.7-5.9,11.8-12.4,16.9-18.7 c5.2-6.5,10-13.6,11.9-21.9c-1.4,8.4-6,15.9-11,22.6s-10.8,13.1-16.5,19.2l-0.4,0.4l-0.6-0.2c-7.7-2.7-15.4-5.6-22.8-9.3 C1779.6,326.3,1759.2,311.7,1743.1,293.2L1743.1,293.2L1743.1,293.2z" class="st35"/></g><path fill="#2230a6" d="M1743.9,383c-10.8-3.9-21.2-9.1-31.1-15.9c5.8-14.1,16.3-42.5,20.5-70.5C1731.2,331.5,1739,365.7,1743.9,383 L1743.9,383z" enable-background="new" opacity=".3"/></g><g class="st22"><linearGradient id="SVGID_00000081639238572820997720000001442545897772282272_" x1="1690.624" x2="1739.437" y1="90.069" y2="90.069" gradientTransform="matrix(0.9625 -0.2711 0.2711 0.9625 -143.3263 601.9514)" gradientUnits="userSpaceOnUse"><stop offset="0" stop-color="#ffe521"/><stop offset=".18" stop-color="#fed824"/><stop offset=".52" stop-color="#feb72b"/><stop offset=".96" stop-color="#fd8338"/><stop offset="1" stop-color="#fd7e3a"/></linearGradient><path fill="url(#SVGID_00000081639238572820997720000001442545897772282272_)" d="M1551.2,225.7l3.8-10.1l-3.2,0.1 c-0.5,0-0.9-0.2-1.1-0.5l-3-5.3l-5,3.2c-0.3,0.2-0.8,0.2-1.2,0l-3.3-1.5l-0.8,5.4c-0.1,0.3-0.5,0.5-1,0.4c-0.3-0.1-0.6-0.2-0.7-0.4 l-6.8-9.2l-2,2.9c-0.2,0.3-0.7,0.4-1.2,0.2c0,0,0,0-0.1,0l-9.2-3.7l1.8,6.6c0.1,0.3-0.2,0.6-0.7,0.6c0,0,0,0-0.1,0l-5.2-0.1 l11.1,7.4c0.4,0.2,0.4,0.6,0.1,0.8c-0.2,0.1-0.5,0.2-0.8,0.1l-8.6-1.8l0.9,2.4c0.1,0.3-0.1,0.5-0.5,0.6l-7.2,1.4l6.9,3.7 c0.4,0.2,0.5,0.5,0.3,0.8l-1.6,1.7l17.4,2c0.4,0.1,0.8,0.2,0.9,0.5l1.4,3l8.7-4.9c0.5-0.3,1.4-0.2,1.9,0.1c0.1,0.1,0.1,0.1,0.2,0.2 l7.1,7l2.1-0.8l-8.2-6.6c-0.5-0.4-0.4-0.9,0.2-1.2c0.1,0,0.2-0.1,0.2-0.1l11.2-2.5l-4.2-2C1551.2,226.2,1551.1,225.9,1551.2,225.7 L1551.2,225.7z"/><path d="M1524.4,214.9c6.3,5.5,12.5,11.1,18.7,16.6l-0.6,0.1l-1.6-4.1c1.1-2.7,2.3-5.4,3.5-8.1c-0.9,2.6-2,5.8-3,8.1 c0.3,0.7,1.8,4.5,2.1,5.1C1537,226.7,1530.6,220.8,1524.4,214.9L1524.4,214.9L1524.4,214.9z" class="st21"/><path d="M1518.6,228.7c1.9-0.6,3.8-1.2,5.7-1.8c4.3,0.8,8.6,1.6,12.7,2.7c1.4,0.4,2.8,0.7,4.2,1.1 c-1.4-0.3-2.8-0.6-4.2-0.9c-4.1-0.9-8.6-1.8-12.6-2.6h0.2C1522.5,227.8,1520.6,228.3,1518.6,228.7L1518.6,228.7L1518.6,228.7z" class="st21"/></g></svg>