<svg xmlns="http://www.w3.org/2000/svg" xmlns:xlink="http://www.w3.org/1999/xlink" id="Layer_1" x="0" y="0" enable-background="new 0 0 2880 634.58" version="1.1" viewBox="0 0 2880 634.58" xml:space="preserve"><style type="text/css">.st0{fill:#fff}.st1{opacity:.66;fill:#e8edf7}.st2{opacity:.63;fill:#d8e0ee}.st4{fill:#e7ebf6}.st5{fill:#e8edf7}.st7{opacity:.23}.st8{fill:#5463ad}.st15{fill:#434fa1}.st17{fill:#3c4d9b}.st19{fill:#f6f8fc}.st20{opacity:.76}.st26{fill:#f06622}.st27{fill:#c1c3e0}.st28{fill:#cfd2ea}.st29{fill:#9ca3cb}.st31{fill:#ced2ea}.st32{fill:#8389c2}.st34{fill:#bcbedc}.st35{opacity:.51;fill:#5463ad}.st36{opacity:.1}.st37{fill:#4857a4}.st38{fill:#a4a9d4}.st39{fill:#ef6824}.st40{fill:#b0e0f0}.st47{fill:#2d355c}.st48{fill:#39436b}.st50{fill:#202946}.st53{fill:#838ea5}.st64{fill:#6673b6}.st69{fill:#5e1c3e}.st75{fill:#ec6625}.st77{fill:#815450}.st83{fill:#575f80}.st84{fill:#495178}.st85{fill:#686d81}</style><switch><g><g><g><g><path d="M1985.36,0c4.82,30.36,7.33,61.38,7.33,93.09c0,127.97-40.74,246.42-109.96,343.11 c61.48-34.23,111.91-66.34,128.97-66.34c30.84,0,42.14,54.01,70.3,59.84c28.16,5.83,146.96-143.23,199.42-136.13 c39.61,5.36,176.9,128.61,188.42,128.67c103.25,0.53,239.06-97.34,264.41-86.65c31.1,13.12,84.9,45.81,145.75,87.04V0H1985.36z" class="st1"/><path d="M819.88,0H0v533.82c107.7-95.12,224.98-188.31,258.95-176.28c67.21,23.82,119.69,63.78,187.35,66.39 s100.34-62.34,131.58-80.05c31.24-17.71,40.26-6.1,71.62,11.41c27.39,15.3,46.84,47.18,78.08,50.12 c23.86,2.25,49.05-29.24,69.44-16.64c39.7,24.53,47.65,61.32,58.65,62.36c12.9,1.21,25.21-14.37,37.3-9.71 c8.8,3.39,23.78,7.59,42.63,12.31c-77.13-99.73-123.04-224.83-123.04-360.66C812.55,61.38,815.06,30.36,819.88,0z" class="st1"/></g><g><path d="M819.81,0H501.98c41.74,87.54,65.39,114.1,83.73,188.84C611.8,295.11,710.12,307.51,741.5,403.51 c19.48-6.36,39.06-24.89,55.51-14.72c39.7,24.53,47.65,61.32,58.65,62.36c12.9,1.21,25.21-14.37,37.3-9.71 c9.13,3.52,24.06,7.65,42.55,12.2c-77.08-99.71-122.95-224.77-122.95-360.55C812.55,61.53,815.04,30.22,819.81,0z" class="st2"/><path d="M2267.4,0h-282.03c4.81,30.33,7.32,61.41,7.32,93.09c0,127.97-40.74,246.42-109.96,343.11 c61.48-34.23,111.91-66.34,128.97-66.34c30.84,0,42.14,54.01,70.3,59.84c13.34,2.76,47.03-29.25,84.37-62.94 c-6.56-40.63-16.7-94.93,39.39-151.29C2284.58,136.26,2225.66,87.54,2267.4,0z" class="st2"/></g><g opacity=".52"><path d="M819.86,0h-132.9c-13.3,67.58,14.8,316.42,85.65,293.42c66.11-21.46,47.57,46.79,38.68,105.75 c27.58,23.35,34.83,51.08,44.36,51.97c12.9,1.21,25.21-14.37,37.3-9.71c9.13,3.52,24.06,7.65,42.55,12.2 c-77.08-99.71-122.95-224.77-122.95-360.55C812.55,61.41,815.05,30.32,819.86,0z" class="st0"/><path d="M2067.62,222.3c-6.48-18.99,117.47-114.85,32.34-222.3h-114.59c4.81,30.32,7.31,61.41,7.31,93.09 c0,127.97-40.74,246.42-109.96,343.11c61.48-34.23,111.91-66.34,128.97-66.34c14.15,0,24.18,11.36,33.62,24.23 c17.76-23.51,34.77-53.11,49.28-90.84C2133.29,202.65,2074.75,243.2,2067.62,222.3z" class="st0"/></g><g><path d="M1936.95,338.91L1936.95,338.91c1.73,0,1.73-2.69,0-2.69" class="st4"/><g><g><path d="M1899.77,199.36c-5.48-15.37,110.38-111.04,0-199.36h-53.88c7.48,32.56,11.44,66.36,11.44,101.19 c0,149.15-72.51,281.35-184.2,363.3c10.29-0.17,20.92-0.8,30.75-3.19c52-12.63,69.26-33.89,71.55-53.61 c5.93-50.91,93.25-19.84,145.06-148.81C1950.21,184.91,1905.24,214.73,1899.77,199.36z" class="st5"/><path d="M956.71,101.19c0-34.83,3.96-68.63,11.44-101.19H855.46c0,0-5.31,14.49-12.85,26.23 c-17,26.49,3.38,243.79,62.46,225.43c72.53-22.54,13.45,47.36,32.91,81.26c12.36,21.53,52.02,85.65,106.02,94.65 s18,36,119,52.14C1038.87,399.53,956.71,259.96,956.71,101.19z" class="st5"/></g><path fill="#434fa1" d="M1732.24,122.5c0,188.79-153.04,341.83-341.83,341.83s-341.83-153.04-341.83-341.83 c0-43.17,8-84.47,22.6-122.5h638.46C1724.24,38.03,1732.24,79.33,1732.24,122.5z" opacity=".15"/><g class="st7"><path d="M1562.58,410.3c-54.03,21.61-116.77,11.24-139.55,6.88c-13.24-2.53-27.11-6.64-35.87-16.89 c-16.14-18.87-6.73-49.46,11.41-66.41c18.14-16.95,42.54-25.17,63.81-37.98c29.11-17.53-21.85-234.48,6.97-252.49 c39.14-24.45,120.64,10.41,136.45-32.94c6.62-18.15,28.15-0.28,47.25-3.16c47.28-7.12,71.62,22.22,71.62,46.39 c0,54.03-43.01,129.57-21.61,118.87c21.61-10.81,24.46,5.96,21.61,21.61c-21.61,118.87-151.29,140.48-108.06,151.29 C1659.84,356.27,1614.95,389.35,1562.58,410.3z" class="st8"/></g><g><path fill="#dfe5f1" d="M936.35,236.03c-5.58-11.34-9.32-23.83-12.72-35.95c-9.38-33.45-14.11-68.15-15.6-102.82 c-1.39-32.31-0.27-65.02,3.92-97.25h-6.58c-3.91,27.16-5.65,54.66-5.66,82.05c0,39.12,8.62,73.9,17.94,111.94 C920.37,205.09,937.93,239.25,936.35,236.03L936.35,236.03z"/></g><g><path d="M755.12,100.57C753.78,66.15,756,22.58,766.76,0H756c-7.94,26.83-18,112.58,16.35,235.13 C772.35,235.13,757.04,149.75,755.12,100.57z" class="st0"/></g><path fill="#434fa1" d="M1694.53,119.74c0,148.54-120.41,268.95-268.95,268.95s-268.95-120.41-268.95-268.95 c0-43.02,10.1-83.68,28.06-119.74h481.78C1684.43,36.06,1694.53,76.72,1694.53,119.74z" opacity=".4"/><g class="st7"><path d="M1117.84,30.78c7.33-11.92,25.7-30.78,25.7-30.78H1665c32.42,75.64-48.39,107.72-15.97,118.53 c14.92,4.97,47.78-30,45.5,1.21c-2.28,31.21,0.22,22.45-2.28,31.21c-21.61,75.64-147.09,127.99-118.87,129.67 c28.22,1.69,43.91-7.56,51.1,0c4.36,4.59,12.21,21.61-48.05,58.35c-33.01,20.13-102.69,24.32-138.83,10.59 c-31.83-12.09-40.08,30.17-46,49.92c-5.92,19.76-115.55-7.45-158.42-45.75c0,0-49.96-35.59-76.54-83.93 c-18.92-34.42-15.5-129.67-32.42-108.06C1087,209.31,1101.31,57.67,1117.84,30.78z" class="st8"/></g><g opacity=".51"><path d="M1318.06,182.69c12.8,27.98,64.11,28.25,85.99,49.88c10.71,10.59,22.63,20.58,29.35,34.06 s-67.74,58.59-56.16,68.23c6.53,5.44,66.04,34.51,7.65,39.15c-20.19,1.6-40.9-0.35-60.05-6.94s-57.29-52.78-64.65-71.65 c-10.34-26.5-17.83-43.77-21.8-47.22c-13.07-11.39-4.31,22.74-21.61,21.61c-35.28-2.3-49.16-81.09-54.03-97.26 c-12.02-39.9-7.1-101.35,7.23-140.48c4.17-11.4,9.19-22.11,14.73-32.08h262.76c-1.33,15.31-18.53,32.19-9.34,44.51 c3.16,4.24,9.18,7.05,9.31,12.34c0.07,2.67-1.51,5.07-3.03,7.27c-24.1,34.99-48.19,69.97-72.29,104.96L1318.06,182.69z" class="st8"/></g><g opacity=".6"><path d="M1304.22,0c-0.52,22-5.54,44.07-20.77,59.36c-16.83,16.9-43.28,22.44-57.97,41.24 c-15.72,20.12-13.03,48.53-9.56,73.83c0.83,6.06,1.71,12.27,4.63,17.65c8.7,16.02,30.31,17.93,47.11,24.99 c15.44,6.49,33.53,18.33,46.37,29.09c32.54,27.27-17.73,49.84,23.5,59.96c160.2,39.34,235.85-90.33,225.04-101.14 c-10.81-10.81-26.21,12.97-32.42,10.81c-29.04-10.14,75.64-97.26,62.62-159.62c-4-19.15-8.78-33.59-22.99-56.17H1304.22z" class="st8"/></g><g opacity=".07"><path d="M999,0h814.76c34.78,81.15-35.67,149.89-29.96,166.63c5.71,16.74,70.55-48.1,46.37,34.78 c-23.64,81.02-146.58,137.3-116.3,139.11c30.28,1.81,35.89-8.11,43.6,0c4.68,4.92,13.1,23.19-51.55,62.6 c-35.41,21.59-110.16,26.09-148.94,11.36c-34.15-12.97-42.99,32.36-49.35,53.56c-6.35,21.2-243.84-9.34-289.83-50.43 c0,0-128.81,9.97-186.64-133.22c-46.3-114.64-16.63-139.11-34.78-115.93C956.46,219.48,969.79,29.21,999,0z" class="st8"/></g><path fill="#434fa1" d="M1600.12,107.51c0,113.51-92.02,205.53-205.53,205.53c-113.51,0-205.53-92.02-205.53-205.53 c0-39.41,11.09-76.24,30.33-107.51h350.4C1589.02,31.28,1600.12,68.1,1600.12,107.51z" opacity=".76"/><path d="M1556.47,107.51c0,77.7-62.99,140.69-140.69,140.69c-77.7,0-140.69-62.99-140.69-140.69 c0-43.12,19.4-81.71,49.94-107.51h181.5C1537.07,25.81,1556.47,64.4,1556.47,107.51z" class="st15"/><g opacity=".8"><path d="M1519.21,143.11c-9.67,19.33-2.6-30.95,0.15-46.19c10.49-58.3-67.18-26.26-75.64-54.03 c-19.97-65.52-70.25,81.98-84.11,83.2c-12.62,1.12,19.87,72.18,8.46,78.89c-17.31,10.19-61.3-0.7-43.22,10.81 c26.54,16.89,51.99,29.42,75.64,32.42c82.28,10.45,142.75-54.73,151.14-105.1C1553.86,129.71,1530.02,121.5,1519.21,143.11z" class="st17"/></g><circle cx="1409.92" cy="109.09" r="87.82" fill="#354a8e" opacity=".6"/><g><g><path d="M1192.31,28.34c1.93-5.93,4.9-11.62,7.87-17.07c2.09-3.83,4.31-7.59,6.65-11.27h-2.49 c-1.38,2.33-2.77,4.68-4.17,7.06C1197.31,11.92,1191.77,30.02,1192.31,28.34L1192.31,28.34z" class="st15"/></g></g><g><path d="M1879.79,0c5.3,16.76,9.33,33.93,12.33,51.23c7.01,40.39,9.13,82.22,4.22,122.97 c-3.56,29.6-11.06,58.91-23.69,85.97c-1.91,4.1-20.76,40.94-19.36,39.3c7.27-8.52,12.97-18.69,18.07-28.59 c13.33-25.91,22.21-54.07,27.31-82.72c7.38-41.42,7.01-84.06,1.62-125.71c-2.87-22.2-9.01-42.18-16.41-62.45H1879.79z" class="st0"/></g><g><path d="M1087.98,198.31c-2.38-6.95-3.67-14.54-4.8-21.91c-3.12-20.33-3.6-41.32-2.31-62.21 c1.91-30.81,7.33-62.09,17.29-91.71c2.56-7.6,5.44-15.12,8.66-22.48h-2.97c-1.75,3.91-3.4,7.86-4.97,11.83 c-11.72,29.82-18.45,61.48-21.65,93.03c-2.39,23.55,0.23,44.66,3.04,67.75C1081.09,179.35,1088.66,200.29,1087.98,198.31 L1087.98,198.31z" class="st19"/></g><g class="st20"><path d="M1609.92,0c4.78,15.71,8.1,32.02,10.31,48.5c4.1,30.6,4.85,62.34,0.83,93.32 c-2.92,22.51-8.52,44.84-17.58,65.51c-1.37,3.13-14.83,31.28-13.85,30.03c5.1-6.54,9.15-14.31,12.79-21.88 c9.52-19.8,16.04-41.26,20-63.07c5.72-31.52,6.18-63.89,3.2-95.46c-1.92-20.36-7.16-38.2-13.21-56.94H1609.92z" class="st15"/></g><g class="st20"><path fill="#bfc3e2" d="M1644.06,0c5.73,12.29,10.76,24.93,14.92,37.83c6.97,21.6,11.43,44.18,12.06,66.74 c0.1,3.42-0.06,34.62,0.29,33.07c1.82-8.09,2.17-16.85,2.23-25.25c0.16-21.97-3.11-44.16-8.84-65.57 c-4.29-16.04-9.96-31.68-16.68-46.82H1644.06z"/></g><g class="st20"><path d="M1144.49,148.65c-1.74-7.13-2.34-14.81-2.81-22.25c-1.27-20.53,0.14-41.47,3.31-62.17 c3.31-21.6,8.39-43.27,15.54-64.23h-3.66c-6.3,17.85-11.1,36.19-14.67,54.61c-4.5,23.23-3.79,44.5-3.08,67.75 C1139.33,129.15,1144.98,150.67,1144.49,148.65L1144.49,148.65z" class="st15"/></g><g opacity=".74"><path fill="#a7acd6" d="M1761.65,44.74c1.9,8.22,2.75,17,3.45,25.49c1.94,23.44,1.36,47.2-0.9,70.57 c-3.33,34.46-10,68.87-20.88,100.68c-7.9,23.1-18.22,45.01-31.33,63.81c-1.99,2.85-20.87,28.05-19.68,27.06 c6.2-5.11,11.72-11.94,16.82-18.71c13.33-17.7,24.3-38.32,32.98-60.28c12.56-31.74,20.49-66.39,25.08-101.47 c3.42-26.18,1.99-50.42,0.49-76.93C1767.23,67.25,1761.11,42.41,1761.65,44.74L1761.65,44.74z"/></g><g opacity=".3"><path fill="#ebf0f9" d="M1657.44,205.11c-1.96,7.05-5.23,13.82-8.5,20.3c-9.04,17.88-20.71,34.36-33.86,49.49 c-19.39,22.32-42.06,42.46-67.66,58.06c-18.6,11.33-39.02,20.27-60.75,25.21c-3.29,0.75-33.71,6.53-32.08,6.6 c8.51,0.34,17.15-0.97,25.35-2.5c21.43-4.02,41.89-11.63,60.73-21.65c27.23-14.48,51.25-33.98,72.17-55.93 c15.61-16.38,25.53-34.5,36.43-54.27C1652.43,224.65,1658,203.11,1657.44,205.11L1657.44,205.11z"/></g><g><path d="M2024.63,0c5.79,25.99,9.13,52.54,10.6,79.1c2.91,52.33-0.6,105.77-12.87,156.8 c-8.91,37.06-22.78,73.18-42.84,105.68c-3.04,4.92-32.44,48.92-30.42,47.04c10.5-9.75,19.24-21.81,27.19-33.64 c20.78-30.93,36.23-65.37,46.96-101c15.51-51.52,21.37-105.73,20.7-159.42c-0.41-33.16-6.84-63.19-14.73-94.57H2024.63z" class="st5"/></g><g><g><path d="M1517.88,304.23c-5.06,3.64-10.82,6.48-16.43,9.13c-15.49,7.3-31.97,12.44-48.7,16.01 c-24.67,5.26-50.34,7.55-75.51,5.49c-18.28-1.49-36.48-5.41-53.42-12.54c-2.56-1.08-25.66-11.8-24.62-10.98 c5.41,4.27,11.8,7.54,18.01,10.44c16.24,7.59,33.77,12.39,51.5,14.85c25.64,3.56,51.85,2.33,77.33-1.96 c19.02-3.2,35.21-10.25,52.94-17.89C1504.15,314.53,1519.32,303.2,1517.88,304.23L1517.88,304.23z" class="st15"/></g><g><path d="M1394.73,277.48c-6.23-0.15-12.54-1.38-18.61-2.66c-16.75-3.55-32.99-9.41-48.48-16.69 c-22.83-10.72-39.43-20.59-58.23-37.44c-13.66-12.24-25.79-26.37-34.97-42.29c-1.39-2.41-13.31-24.91-12.97-23.63 c1.73,6.67,4.84,13.13,8.03,19.2c8.35,15.87,19.41,30.28,32.05,42.96c18.28,18.34,34.66,29.37,57.56,41.36 c17.09,8.94,34.24,13.12,52.99,17.75C1377.57,277.39,1396.5,277.53,1394.73,277.48L1394.73,277.48z" class="st15"/></g></g><g><g><path d="M1246.5,48.49c4.2,0,4.2-6.52,0-6.52C1242.31,41.97,1242.3,48.49,1246.5,48.49L1246.5,48.49z" class="st0"/></g><g><path d="M1574.52,134.81c3.84,0,3.84-5.96,0-5.96C1570.69,128.85,1570.68,134.81,1574.52,134.81 L1574.52,134.81z" class="st26"/></g><g><path d="M1249.97,160.27c3.84,0,3.84-5.96,0-5.96C1246.14,154.31,1246.13,160.27,1249.97,160.27 L1249.97,160.27z" class="st26"/></g><g><path d="M1437.16,50.67c3,0,3-4.66,0-4.66C1434.16,46.01,1434.16,50.67,1437.16,50.67L1437.16,50.67z" class="st0"/><path d="M1352.14,44.33c3,0,3-4.66,0-4.66C1349.15,39.67,1349.14,44.33,1352.14,44.33L1352.14,44.33z" class="st0"/></g><g><path d="M1194.11,218.54c3,0,3-4.66,0-4.66C1191.12,213.88,1191.11,218.54,1194.11,218.54L1194.11,218.54z" class="st0"/></g><g><path d="M1140.5,278.22c3,0,3-4.66,0-4.66C1137.5,273.56,1137.5,278.22,1140.5,278.22L1140.5,278.22z" class="st0"/></g><g><path d="M668.11,237.4c3,0,3-4.66,0-4.66C665.11,232.74,665.11,237.4,668.11,237.4L668.11,237.4z" class="st27"/></g><g><path d="M875.25,36.23c3,0,3-4.66,0-4.66C872.25,31.58,872.25,36.23,875.25,36.23L875.25,36.23z" class="st27"/></g><g><path d="M807.81,244.8c3,0,3-4.66,0-4.66C804.81,240.15,804.81,244.8,807.81,244.8L807.81,244.8z" class="st27"/></g><g><path d="M867.12,147.27c3,0,3-4.66,0-4.66C864.12,142.61,864.12,147.27,867.12,147.27L867.12,147.27z" class="st27"/></g><g><path d="M789.75,54.23c3,0,3-4.66,0-4.66C786.75,49.58,786.75,54.23,789.75,54.23L789.75,54.23z" class="st0"/></g><g><path d="M582.75,40.58c3,0,3-4.66,0-4.66C579.75,35.92,579.75,40.58,582.75,40.58L582.75,40.58z" class="st0"/></g><g><path d="M407.25,148.58c3,0,3-4.66,0-4.66C404.25,143.92,404.25,148.58,407.25,148.58L407.25,148.58z" class="st0"/></g><g><path d="M317.25,63.23c3,0,3-4.66,0-4.66C314.25,58.58,314.25,63.23,317.25,63.23L317.25,63.23z" class="st0"/></g><g><path d="M642.44,65.7c4.58,0,4.59-7.12,0-7.12C637.86,58.58,637.85,65.7,642.44,65.7L642.44,65.7z" class="st28"/></g><g><path d="M482.56,83.7c4.58,0,4.59-7.12,0-7.12C477.98,76.58,477.97,83.7,482.56,83.7L482.56,83.7z" class="st28"/></g><g><path d="M722.14,145.82c3,0,3-4.66,0-4.66C719.14,141.17,719.14,145.82,722.14,145.82L722.14,145.82z" class="st27"/></g><g><path d="M888.73,215.79c3,0,3-4.66,0-4.66C885.74,211.13,885.73,215.79,888.73,215.79L888.73,215.79z" class="st27"/><path d="M965.25,297.23c3,0,3-4.66,0-4.66C962.25,292.58,962.25,297.23,965.25,297.23L965.25,297.23z" class="st27"/></g><g><path d="M994.7,143.03c4.86,0,4.87-7.55,0-7.55C989.84,135.49,989.84,143.03,994.7,143.03L994.7,143.03z" class="st29"/></g><g><path fill="#6772b5" d="M946.63,204.98c4.86,0,4.87-7.55,0-7.55C941.77,197.43,941.76,204.98,946.63,204.98L946.63,204.98z"/></g><g><path d="M1365.75,121.58c3,0,3-4.66,0-4.66C1362.75,116.92,1362.75,121.58,1365.75,121.58L1365.75,121.58z" class="st0"/></g><g><path d="M1284.39,192.44c3,0,3-4.66,0-4.66C1281.39,187.78,1281.39,192.44,1284.39,192.44L1284.39,192.44z" class="st0"/></g><g><path d="M1522.07,44.33c3,0,3-4.66,0-4.66C1519.07,39.67,1519.06,44.33,1522.07,44.33L1522.07,44.33z" class="st0"/></g><g><path d="M942.76,133.99c3,0,3-4.66,0-4.66C939.77,129.34,939.76,133.99,942.76,133.99L942.76,133.99z" class="st26"/></g><g><path d="M708.89,194.17c3,0,3-4.66,0-4.66C705.89,189.52,705.89,194.17,708.89,194.17L708.89,194.17z" class="st26"/></g><g><path d="M1856.8,231.25c3,0,3-4.66,0-4.66C1853.8,226.59,1853.79,231.25,1856.8,231.25L1856.8,231.25z" class="st27"/></g><g><path d="M1748.25,54.23c3,0,3-4.66,0-4.66C1745.25,49.58,1745.25,54.23,1748.25,54.23L1748.25,54.23z" class="st27"/></g><g><path d="M2063.25,184.58c3,0,3-4.66,0-4.66C2060.25,179.92,2060.25,184.58,2063.25,184.58L2063.25,184.58z" class="st27"/></g><g><path d="M2097.04,128.1c3,0,3-4.66,0-4.66C2094.04,123.45,2094.04,128.1,2097.04,128.1L2097.04,128.1z" class="st0"/></g><g><path d="M1919.25,54.23c3,0,3-4.66,0-4.66C1916.25,49.58,1916.25,54.23,1919.25,54.23L1919.25,54.23z" class="st0"/></g><g><path d="M1647,63.23c3,0,3-4.66,0-4.66C1644,58.58,1644,63.23,1647,63.23L1647,63.23z" class="st0"/></g><g><path d="M2180.57,143.48c3,0,3-4.66,0-4.66C2177.57,138.83,2177.57,143.48,2180.57,143.48L2180.57,143.48z" class="st27"/></g><g><path d="M2283.75,94.58c3,0,3-4.66,0-4.66C2280.75,89.92,2280.75,94.58,2283.75,94.58L2283.75,94.58z" class="st27"/></g><g><path d="M1766.25,261.23c3,0,3-4.66,0-4.66C1763.25,256.58,1763.25,261.23,1766.25,261.23L1766.25,261.23z" class="st29"/></g><g><path d="M1820.25,130.58c3,0,3-4.66,0-4.66C1817.25,125.92,1817.25,130.58,1820.25,130.58L1820.25,130.58z" class="st27"/></g><g><path d="M1874.25,49.58c3,0,3-4.66,0-4.66C1871.25,44.92,1871.25,49.58,1874.25,49.58L1874.25,49.58z" class="st27"/></g><g><path d="M1826.63,194.17c3,0,3-4.66,0-4.66C1823.63,189.52,1823.62,194.17,1826.63,194.17L1826.63,194.17z" class="st27"/></g><g><path d="M1937.25,193.58c3,0,3-4.66,0-4.66C1934.25,188.92,1934.25,193.58,1937.25,193.58L1937.25,193.58z" class="st27"/></g><g><path d="M1969.36,129.34c3,0,3-4.66,0-4.66C1966.36,124.68,1966.35,129.34,1969.36,129.34L1969.36,129.34z" class="st27"/></g><g><path d="M1880.66,181.72c3,0,3-4.66,0-4.66C1877.66,177.06,1877.66,181.72,1880.66,181.72L1880.66,181.72z" class="st26"/></g><g><path d="M1656.2,144.93c3,0,3-4.66,0-4.66C1653.21,140.28,1653.2,144.93,1656.2,144.93L1656.2,144.93z" class="st0"/><path d="M1687.49,27.56c3,0,3-4.66,0-4.66C1684.49,22.9,1684.49,27.56,1687.49,27.56L1687.49,27.56z" class="st0"/><path d="M1790.39,77.86c3,0,3-4.66,0-4.66C1787.39,73.21,1787.39,77.86,1790.39,77.86L1790.39,77.86z" class="st8"/><path d="M1965.04,80.5c-3,0-3,4.66,0,4.66C1965.04,85.16,1968.05,80.5,1965.04,80.5z" class="st0"/><path d="M1874.25,130.58c3,0,3-4.66,0-4.66C1871.25,125.92,1871.25,130.58,1874.25,130.58L1874.25,130.58z" class="st31"/><path d="M1964.56,45.87c3.41,0,3.41-5.29,0-5.29C1961.15,40.58,1961.14,45.87,1964.56,45.87L1964.56,45.87z" class="st31"/></g><g><path d="M1534.33,212c3,0,3-4.66,0-4.66C1531.34,207.35,1531.33,212,1534.33,212L1534.33,212z" class="st0"/></g><g><path d="M1292.43,122c3,0,3-4.66,0-4.66C1289.43,117.34,1289.42,122,1292.43,122L1292.43,122z" class="st0"/></g><g><path d="M1041.75,40.58c3,0,3-4.66,0-4.66C1038.75,35.92,1038.75,40.58,1041.75,40.58L1041.75,40.58z" class="st0"/></g><g><path d="M1077.75,45.23c3,0,3-4.66,0-4.66C1074.75,40.58,1074.75,45.23,1077.75,45.23L1077.75,45.23z" class="st0"/></g><g><path d="M1692.26,237.4c3,0,3-4.66,0-4.66C1689.26,232.74,1689.25,237.4,1692.26,237.4L1692.26,237.4z" class="st0"/></g><g><path d="M1569.39,181.72c3,0,3-4.66,0-4.66C1566.4,177.06,1566.39,181.72,1569.39,181.72L1569.39,181.72z" class="st32"/></g><g><path d="M1707.75,76.58c3,0,3-4.66,0-4.66C1704.75,71.92,1704.75,76.58,1707.75,76.58L1707.75,76.58z" class="st32"/></g><g><path d="M1486.94,215.79c3,0,3-4.66,0-4.66C1483.94,211.13,1483.94,215.79,1486.94,215.79L1486.94,215.79z" class="st32"/></g><g><path d="M1469.25,130.58c3,0,3-4.66,0-4.66C1466.25,125.92,1466.25,130.58,1469.25,130.58L1469.25,130.58z" class="st32"/></g><g><path d="M1478.25,27.23c3,0,3-4.66,0-4.66C1475.25,22.58,1475.25,27.23,1478.25,27.23L1478.25,27.23z" class="st32"/></g><g><path d="M1338.75,22.58c3,0,3-4.66,0-4.66C1335.75,17.92,1335.75,22.58,1338.75,22.58L1338.75,22.58z" class="st32"/></g><g><path d="M1280.25,22.58c3,0,3-4.66,0-4.66C1277.25,17.92,1277.25,22.58,1280.25,22.58L1280.25,22.58z" class="st32"/></g><g><path d="M1333.95,346.28c2.4,0,2.4-3.73,0-3.73C1331.56,342.55,1331.55,346.28,1333.95,346.28L1333.95,346.28z" class="st32"/></g><g><path d="M1304.57,226.29c3,0,3-4.66,0-4.66C1301.57,221.63,1301.57,226.29,1304.57,226.29L1304.57,226.29z" class="st32"/></g><g><path d="M1642.92,215.79c3,0,3-4.66,0-4.66C1639.92,211.13,1639.92,215.79,1642.92,215.79L1642.92,215.79z" class="st17"/></g><g><path d="M1176.75,117.23c3,0,3-4.66,0-4.66C1173.75,112.58,1173.75,117.23,1176.75,117.23L1176.75,117.23z" class="st17"/></g><g><path d="M1221.48,129.34c3,0,3-4.66,0-4.66C1218.48,124.68,1218.48,129.34,1221.48,129.34L1221.48,129.34z" class="st32"/></g><g><path d="M1217.25,72.23c3,0,3-4.66,0-4.66C1214.25,67.58,1214.25,72.23,1217.25,72.23L1217.25,72.23z" class="st32"/></g><g><path d="M1460.25,85.58c3,0,3-4.66,0-4.66C1457.25,80.92,1457.25,85.58,1460.25,85.58L1460.25,85.58z" class="st32"/></g><g><path d="M1356.75,90.23c3,0,3-4.66,0-4.66C1353.75,85.58,1353.75,90.23,1356.75,90.23L1356.75,90.23z" class="st32"/></g><g><path d="M1298.25,67.58c3,0,3-4.66,0-4.66C1295.25,62.92,1295.25,67.58,1298.25,67.58L1298.25,67.58z" class="st32"/></g><g><path d="M1532.25,72.23c3,0,3-4.66,0-4.66C1529.25,67.58,1529.25,72.23,1532.25,72.23L1532.25,72.23z" class="st32"/></g><g><path d="M1788.75,27.23c3,0,3-4.66,0-4.66C1785.75,22.58,1785.75,27.23,1788.75,27.23L1788.75,27.23z" class="st32"/></g><g><path d="M2171.25,31.58c3,0,3-4.66,0-4.66C2168.25,26.92,2168.25,31.58,2171.25,31.58L2171.25,31.58z" class="st32"/></g><g><path d="M2328.75,31.58c3,0,3-4.66,0-4.66C2325.75,26.92,2325.75,31.58,2328.75,31.58L2328.75,31.58z" class="st32"/></g><g><path d="M1059.75,130.58c3,0,3-4.66,0-4.66C1056.75,125.92,1056.75,130.58,1059.75,130.58L1059.75,130.58z" class="st32"/></g><g><path d="M1032.36,90.73c3,0,3-4.66,0-4.66C1029.36,86.07,1029.35,90.73,1032.36,90.73L1032.36,90.73z" class="st32"/></g><g><path d="M1423.78,239.78c3,0,3-4.66,0-4.66C1420.78,235.12,1420.78,239.78,1423.78,239.78L1423.78,239.78z" class="st0"/></g><g><path d="M1240.44,291.41c1.59,0,1.59-2.47,0-2.47C1238.86,288.94,1238.85,291.41,1240.44,291.41L1240.44,291.41 z" class="st0"/></g><g><path d="M1570.45,248.52c1.59,0,1.59-2.47,0-2.47C1568.87,246.05,1568.86,248.52,1570.45,248.52L1570.45,248.52 z" class="st0"/></g><g><path d="M1602.62,237.79c1.59,0,1.59-2.47,0-2.47C1601.03,235.33,1601.03,237.79,1602.62,237.79L1602.62,237.79 z" class="st0"/></g><g><path d="M1657.42,173.46c1.59,0,1.59-2.47,0-2.47C1655.84,170.99,1655.83,173.46,1657.42,173.46L1657.42,173.46 z" class="st0"/></g><g><path d="M1625.26,184.18c1.59,0,1.59-2.47,0-2.47C1623.67,181.72,1623.67,184.18,1625.26,184.18L1625.26,184.18 z" class="st0"/></g><g><path d="M1744.39,149.55c1.59,0,1.59-2.47,0-2.47C1742.81,147.08,1742.8,149.55,1744.39,149.55L1744.39,149.55z" class="st0"/></g><g><path d="M1527.56,120.78c1.59,0,1.59-2.47,0-2.47C1525.98,118.32,1525.97,120.78,1527.56,120.78 L1527.56,120.78z" class="st28"/></g><g><path d="M1573.81,70.04c1.59,0,1.59-2.47,0-2.47C1572.22,67.58,1572.22,70.04,1573.81,70.04L1573.81,70.04z" class="st28"/></g><g><path d="M1334.56,173.46c1.59,0,1.59-2.47,0-2.47C1332.97,170.99,1332.97,173.46,1334.56,173.46L1334.56,173.46 z" class="st0"/></g><g><path d="M1252.19,94.58c1.59,0,1.59-2.47,0-2.47C1250.6,92.11,1250.6,94.58,1252.19,94.58L1252.19,94.58z" class="st0"/></g><g><path d="M1528.75,160.27c1.59,0,1.59-2.47,0-2.47C1527.17,157.81,1527.16,160.27,1528.75,160.27L1528.75,160.27 z" class="st0"/></g><g><path d="M1432.19,112.58c1.59,0,1.59-2.47,0-2.47C1430.6,110.11,1430.6,112.58,1432.19,112.58L1432.19,112.58z" class="st0"/></g><g><path d="M1401.28,181.72c1.59,0,1.59-2.47,0-2.47C1399.69,179.25,1399.69,181.72,1401.28,181.72 L1401.28,181.72z" class="st28"/></g><g><path d="M1176.11,162.74c1.59,0,1.59-2.47,0-2.47C1174.52,160.27,1174.52,162.74,1176.11,162.74L1176.11,162.74 z" class="st0"/></g><g><path d="M1186.83,184.18c1.59,0,1.59-2.47,0-2.47C1185.24,181.72,1185.24,184.18,1186.83,184.18 L1186.83,184.18z" class="st28"/></g><g><path fill="#b2b8d9" d="M1098.67,224.61c1.59,0,1.59-2.47,0-2.47C1097.08,222.14,1097.08,224.61,1098.67,224.61 L1098.67,224.61z"/></g><g><path d="M1034.34,184.18c1.59,0,1.59-2.47,0-2.47C1032.75,181.72,1032.75,184.18,1034.34,184.18 L1034.34,184.18z" class="st19"/></g><g><path d="M1529.95,235.33c1.59,0,1.59-2.47,0-2.47C1528.36,232.86,1528.36,235.33,1529.95,235.33L1529.95,235.33 z" class="st0"/></g><g><path d="M1454.89,259.24c1.59,0,1.59-2.47,0-2.47C1453.3,256.77,1453.3,259.24,1454.89,259.24L1454.89,259.24z" class="st34"/></g><g><path d="M1450.8,154.27c1.59,0,1.59-2.47,0-2.47C1449.22,151.8,1449.21,154.27,1450.8,154.27L1450.8,154.27z" class="st34"/></g><g><path d="M1252.55,182.95c1.59,0,1.59-2.47,0-2.47C1250.96,180.48,1250.96,182.95,1252.55,182.95 L1252.55,182.95z" class="st34"/></g><g><path d="M1137.6,316.35c1.59,0,1.59-2.47,0-2.47C1136.01,313.88,1136.01,316.35,1137.6,316.35L1137.6,316.35z" class="st35"/></g><g><path d="M1127.51,250.69c1.59,0,1.59-2.47,0-2.47C1125.92,248.22,1125.92,250.69,1127.51,250.69 L1127.51,250.69z" class="st35"/></g><g><path d="M1431.3,366.29c1.59,0,1.59-2.47,0-2.47C1429.72,363.83,1429.71,366.29,1431.3,366.29L1431.3,366.29z" class="st34"/></g><g><path d="M1442.49,287.84c1.59,0,1.59-2.47,0-2.47C1440.9,285.38,1440.9,287.84,1442.49,287.84L1442.49,287.84z" class="st34"/></g><g><path d="M1322.1,194.34c1.59,0,1.59-2.47,0-2.47C1320.52,191.88,1320.51,194.34,1322.1,194.34L1322.1,194.34z" class="st34"/></g><g><path d="M1411.81,94.58c1.59,0,1.59-2.47,0-2.47C1410.22,92.11,1410.22,94.58,1411.81,94.58L1411.81,94.58z" class="st34"/></g><g><path d="M1423.19,13.58c1.59,0,1.59-2.47,0-2.47C1421.6,11.11,1421.6,13.58,1423.19,13.58L1423.19,13.58z" class="st34"/></g><g><path d="M1387.19,43.04c1.59,0,1.59-2.47,0-2.47C1385.6,40.58,1385.6,43.04,1387.19,43.04L1387.19,43.04z" class="st34"/></g><g><path d="M1555.81,16.04c1.59,0,1.59-2.47,0-2.47C1554.22,13.58,1554.22,16.04,1555.81,16.04L1555.81,16.04z" class="st34"/></g><g><path d="M1582.81,85.58c1.59,0,1.59-2.47,0-2.47C1581.22,83.11,1581.22,85.58,1582.81,85.58L1582.81,85.58z" class="st34"/></g><g><path d="M1645.81,34.04c1.59,0,1.59-2.47,0-2.47C1644.22,31.58,1644.22,34.04,1645.81,34.04L1645.81,34.04z" class="st34"/></g><g><path d="M1234.19,22.58c1.59,0,1.59-2.47,0-2.47C1232.6,20.11,1232.6,22.58,1234.19,22.58L1234.19,22.58z" class="st34"/></g><g><path d="M1186.81,49.58c1.59,0,1.59-2.47,0-2.47C1185.22,47.11,1185.22,49.58,1186.81,49.58L1186.81,49.58z" class="st34"/></g><g class="st36"><path d="M1432.25,362.36c1.59,0,1.59-2.47,0-2.47C1430.67,359.9,1430.66,362.36,1432.25,362.36L1432.25,362.36z" class="st8"/></g><g class="st36"><path d="M1371.9,159.04c1.59,0,1.59-2.47,0-2.47C1370.31,156.57,1370.31,159.04,1371.9,159.04L1371.9,159.04z" class="st8"/></g><g class="st36"><path d="M1224.33,197.74c1.59,0,1.59-2.47,0-2.47C1222.74,195.27,1222.74,197.74,1224.33,197.74L1224.33,197.74 z" class="st8"/></g><g><path d="M1118.92,136.05c1.59,0,1.59-2.47,0-2.47C1117.34,133.58,1117.33,136.05,1118.92,136.05 L1118.92,136.05z" class="st34"/></g><g><path d="M950.27,82.83c1.59,0,1.59-2.47,0-2.47C948.68,80.36,948.68,82.83,950.27,82.83L950.27,82.83z" class="st34"/></g><g><path d="M937.19,34.04c1.59,0,1.59-2.47,0-2.47C935.6,31.58,935.6,34.04,937.19,34.04L937.19,34.04z" class="st34"/></g><g><path d="M997.81,58.58c1.59,0,1.59-2.47,0-2.47C996.22,56.11,996.22,58.58,997.81,58.58L997.81,58.58z" class="st34"/></g><g><path d="M1042.81,187.04c1.59,0,1.59-2.47,0-2.47C1041.22,184.58,1041.22,187.04,1042.81,187.04 L1042.81,187.04z" class="st34"/></g><g><path d="M785.57,122.86c1.59,0,1.59-2.47,0-2.47C783.98,120.39,783.98,122.86,785.57,122.86L785.57,122.86z" class="st34"/></g><g><path d="M869.37,84.06c1.59,0,1.59-2.47,0-2.47C867.78,81.59,867.78,84.06,869.37,84.06L869.37,84.06z" class="st34"/></g><g><path d="M655.37,89.64c1.59,0,1.59-2.47,0-2.47C653.78,87.17,653.78,89.64,655.37,89.64L655.37,89.64z" class="st34"/></g><g><path d="M412.81,76.58c1.59,0,1.59-2.47,0-2.47C411.22,74.11,411.22,76.58,412.81,76.58L412.81,76.58z" class="st34"/></g><g><path d="M502.81,229.58c1.59,0,1.59-2.47,0-2.47C501.22,227.11,501.22,229.58,502.81,229.58L502.81,229.58z" class="st34"/></g><g><path d="M1792.19,106.04c1.59,0,1.59-2.47,0-2.47C1790.6,103.58,1790.6,106.04,1792.19,106.04L1792.19,106.04z" class="st34"/></g><g><path d="M1925.93,82.83c1.59,0,1.59-2.47,0-2.47C1924.35,80.36,1924.34,82.83,1925.93,82.83L1925.93,82.83z" class="st34"/></g><g><path d="M1879.81,103.58c1.59,0,1.59-2.47,0-2.47C1878.22,101.11,1878.22,103.58,1879.81,103.58 L1879.81,103.58z" class="st34"/></g><g><path d="M2142,112.58c1.59,0,1.59-2.47,0-2.47C2140.41,110.11,2140.41,112.58,2142,112.58L2142,112.58z" class="st34"/></g><g><path d="M2223,112.58c1.59,0,1.59-2.47,0-2.47C2221.41,110.11,2221.41,112.58,2223,112.58L2223,112.58z" class="st34"/></g><g><path d="M1774.19,319.58c1.59,0,1.59-2.47,0-2.47C1772.6,317.11,1772.6,319.58,1774.19,319.58L1774.19,319.58z" class="st34"/></g><g><path d="M2014.81,40.58c1.59,0,1.59-2.47,0-2.47C2013.22,38.11,2013.22,40.58,2014.81,40.58L2014.81,40.58z" class="st34"/></g><g><path d="M2103.39,27.99c3.48,0,3.49-5.41,0-5.41C2099.91,22.58,2099.9,27.99,2103.39,27.99L2103.39,27.99z" class="st34"/></g><g><path d="M2007,85.58c1.59,0,1.59-2.47,0-2.47C2005.41,83.11,2005.41,85.58,2007,85.58L2007,85.58z" class="st34"/></g><g><path d="M1971,70.04c1.59,0,1.59-2.47,0-2.47C1969.41,67.58,1969.41,70.04,1971,70.04L1971,70.04z" class="st34"/></g><g><path d="M2106.91,88.04c2.8,0,2.8-4.35,0-4.35C2104.11,83.69,2104.11,88.04,2106.91,88.04L2106.91,88.04z" class="st37"/></g><g><path d="M2216.1,53.93c2.8,0,2.8-4.35,0-4.35C2213.3,49.58,2213.3,53.93,2216.1,53.93L2216.1,53.93z" class="st34"/></g><g><path d="M2070,124.04c1.59,0,1.59-2.47,0-2.47C2068.41,121.58,2068.41,124.04,2070,124.04L2070,124.04z" class="st34"/></g><g><path d="M2147.23,84.06c1.59,0,1.59-2.47,0-2.47C2145.65,81.59,2145.65,84.06,2147.23,84.06L2147.23,84.06z" class="st34"/></g><g><path d="M1443.68,227.07c1.59,0,1.59-2.47,0-2.47C1442.09,224.61,1442.09,227.07,1443.68,227.07L1443.68,227.07 z" class="st0"/></g><g><path d="M1259.5,353.27c1.59,0,1.59-2.47,0-2.47C1257.92,350.81,1257.91,353.27,1259.5,353.27L1259.5,353.27z" class="st0"/></g><g><path d="M1120.11,194.91c1.59,0,1.59-2.47,0-2.47C1118.53,192.44,1118.52,194.91,1120.11,194.91L1120.11,194.91 z" class="st0"/></g><g><path d="M1572.84,291.41c1.59,0,1.59-2.47,0-2.47C1571.25,288.94,1571.25,291.41,1572.84,291.41L1572.84,291.41 z" class="st0"/></g><g><path d="M2010.07,205.63c1.59,0,1.59-2.47,0-2.47C2008.48,203.16,2008.48,205.63,2010.07,205.63L2010.07,205.63 z" class="st4"/></g><g><path d="M1892.12,312.85c1.59,0,1.59-2.47,0-2.47C1890.54,310.38,1890.53,312.85,1892.12,312.85L1892.12,312.85 z" class="st4"/></g><g><path d="M1313.12,269.96c1.59,0,1.59-2.47,0-2.47C1311.53,267.5,1311.53,269.96,1313.12,269.96L1313.12,269.96z" class="st0"/></g><g><path d="M1520.28,288.94c3,0,3-4.66,0-4.66C1517.28,284.28,1517.28,288.94,1520.28,288.94L1520.28,288.94z" class="st0"/></g><g><path d="M1494.34,256.77c3,0,3-4.66,0-4.66C1491.34,252.12,1491.34,256.77,1494.34,256.77L1494.34,256.77z" class="st26"/></g><g><path d="M1366.66,283.73c3,0,3-4.66,0-4.66C1363.66,279.07,1363.66,283.73,1366.66,283.73L1366.66,283.73z" class="st0"/></g><g><path d="M1391.61,224.61c3,0,3-4.66,0-4.66C1388.62,219.95,1388.61,224.61,1391.61,224.61L1391.61,224.61z" class="st0"/></g><g><path d="M1601.4,10.8c3,0,3-4.66,0-4.66C1598.41,6.14,1598.4,10.8,1601.4,10.8L1601.4,10.8z" class="st0"/></g><path d="M1930.77,116.77c-2.02,0-3.41-2.33-3.41-3.88c0-0.16-0.16-0.31-0.16-0.31s-0.16,0.16-0.16,0.31 c0,1.55-1.24,3.88-3.41,3.88c-0.16,0-0.16,0.16-0.16,0.31c0,0.16,0.16,0.31,0.16,0.31c2.02,0,3.41,2.33,3.41,3.88 c0,0.16,0.16,0.31,0.16,0.31s0.16-0.16,0.16-0.31c0-1.55,1.24-3.88,3.41-3.88c0.16,0,0.16-0.16,0.16-0.31 C1930.93,116.77,1930.77,116.77,1930.77,116.77z" class="st38"/><path d="M1786.96,207.69c-3.12,0-5.28-3.6-5.28-6c0-0.24-0.24-0.48-0.24-0.48c-0.24,0-0.24,0.24-0.24,0.48 c0,2.4-1.92,6-5.28,6c-0.24,0-0.24,0.24-0.24,0.48c0,0.24,0.24,0.48,0.24,0.48c3.12,0,5.28,3.6,5.28,6 c0,0.24,0.24,0.48,0.24,0.48c0.24,0,0.24-0.24,0.24-0.48c0-2.4,1.92-6,5.28-6c0.24,0,0.24-0.24,0.24-0.48 C1787.2,207.69,1786.96,207.69,1786.96,207.69z" class="st37"/><path d="M626.65,141.35c-4.32,0-6.96-4.8-6.96-8.16c0-0.24-0.24-0.48-0.48-0.48c-0.24,0-0.48,0.24-0.48,0.48 c0,3.36-2.64,8.16-6.96,8.16c-0.24,0-0.48,0.24-0.48,0.48s0.24,0.48,0.48,0.48c4.32,0,6.96,4.8,6.96,8.16 c0,0.24,0.24,0.48,0.48,0.48s0.48-0.24,0.48-0.48c0-3.36,2.64-8.16,6.96-8.16c0.24,0,0.48-0.24,0.48-0.48 C627.13,141.59,627.13,141.35,626.65,141.35z" class="st38"/><path d="M1415.45,148.29c-4.32,0-6.96-4.8-6.96-8.16c0-0.24-0.24-0.48-0.48-0.48c-0.24,0-0.48,0.24-0.48,0.48 c0,3.36-2.64,8.16-6.96,8.16c-0.24,0-0.48,0.24-0.48,0.48s0.24,0.48,0.48,0.48c4.32,0,6.96,4.8,6.96,8.16 c0,0.24,0.24,0.48,0.48,0.48c0.24,0,0.48-0.24,0.48-0.48c0-3.36,2.64-8.16,6.96-8.16c0.24,0,0.48-0.24,0.48-0.48 C1415.93,148.53,1415.93,148.29,1415.45,148.29z" class="st0"/><path d="M1667.36,275.46c-2.35,0-3.86-2.64-3.86-4.52c0-0.19-0.09-0.28-0.28-0.28c-0.19,0-0.28,0.09-0.28,0.28 c0,1.88-1.51,4.52-3.86,4.52c-0.19,0-0.28,0.09-0.28,0.28s0.09,0.28,0.28,0.28c2.35,0,3.86,2.64,3.86,4.52 c0,0.19,0.09,0.28,0.28,0.28c0.19,0,0.28-0.09,0.28-0.28c0-1.88,1.51-4.52,3.86-4.52c0.19,0,0.28-0.09,0.28-0.28 S1667.55,275.46,1667.36,275.46z" class="st0"/><path d="M1101.67,232.58c-2.35,0-3.86-2.64-3.86-4.52c0-0.19-0.09-0.28-0.28-0.28c-0.19,0-0.28,0.09-0.28,0.28 c0,1.88-1.51,4.52-3.86,4.52c-0.19,0-0.28,0.09-0.28,0.28c0,0.19,0.09,0.28,0.28,0.28c2.35,0,3.86,2.64,3.86,4.52 c0,0.19,0.09,0.28,0.28,0.28c0.19,0,0.28-0.09,0.28-0.28c0-1.88,1.51-4.52,3.86-4.52c0.19,0,0.28-0.09,0.28-0.28 C1101.95,232.67,1101.85,232.58,1101.67,232.58z" class="st0"/><path d="M2137.96,172.21c-3.46,0-5.57-3.84-5.57-6.53c0-0.19-0.19-0.38-0.38-0.38s-0.38,0.19-0.38,0.38 c0,2.69-2.11,6.53-5.57,6.53c-0.19,0-0.38,0.19-0.38,0.38c0,0.19,0.19,0.38,0.38,0.38c3.46,0,5.57,3.84,5.57,6.53 c0,0.19,0.19,0.38,0.38,0.38s0.38-0.19,0.38-0.38c0-2.69,2.11-6.53,5.57-6.53c0.19,0,0.38-0.19,0.38-0.38 C2138.34,172.4,2138.34,172.21,2137.96,172.21z" class="st39"/><path d="M1314.13,142.11c-1.64,0-2.64-1.82-2.64-3.1c0-0.09-0.09-0.18-0.18-0.18c-0.09,0-0.18,0.09-0.18,0.18 c0,1.28-1,3.1-2.64,3.1c-0.09,0-0.18,0.09-0.18,0.18s0.09,0.18,0.18,0.18c1.64,0,2.64,1.82,2.64,3.1 c0,0.09,0.09,0.18,0.18,0.18c0.09,0,0.18-0.09,0.18-0.18c0-1.28,1-3.1,2.64-3.1c0.09,0,0.18-0.09,0.18-0.18 S1314.31,142.11,1314.13,142.11z" class="st40"/><path d="M782.82,43.86c-1.64,0-2.64-1.82-2.64-3.1c0-0.09-0.09-0.18-0.18-0.18s-0.18,0.09-0.18,0.18 c0,1.28-1,3.1-2.64,3.1c-0.09,0-0.18,0.09-0.18,0.18c0,0.09,0.09,0.18,0.18,0.18c1.64,0,2.64,1.82,2.64,3.1 c0,0.09,0.09,0.18,0.18,0.18s0.18-0.09,0.18-0.18c0-1.28,1-3.1,2.64-3.1c0.09,0,0.18-0.09,0.18-0.18 C783,43.95,783,43.86,782.82,43.86z" class="st40"/><path d="M1400.83,70.86c-1.64,0-2.64-1.82-2.64-3.1c0-0.09-0.09-0.18-0.18-0.18s-0.18,0.09-0.18,0.18 c0,1.28-1,3.1-2.64,3.1c-0.09,0-0.18,0.09-0.18,0.18c0,0.09,0.09,0.18,0.18,0.18c1.64,0,2.64,1.82,2.64,3.1 c0,0.09,0.09,0.18,0.18,0.18s0.18-0.09,0.18-0.18c0-1.28,1-3.1,2.64-3.1c0.09,0,0.18-0.09,0.18-0.18 C1401.01,70.95,1401.01,70.86,1400.83,70.86z" class="st40"/><path d="M728.6,59.64c-3.57,0-5.75-3.97-5.75-6.74c0-0.2-0.2-0.4-0.4-0.4c-0.2,0-0.4,0.2-0.4,0.4 c0,2.78-2.18,6.74-5.75,6.74c-0.2,0-0.4,0.2-0.4,0.4c0,0.2,0.2,0.4,0.4,0.4c3.57,0,5.75,3.97,5.75,6.74 c0,0.2,0.2,0.4,0.4,0.4c0.2,0,0.4-0.2,0.4-0.4c0-2.78,2.18-6.74,5.75-6.74c0.2,0,0.4-0.2,0.4-0.4 C729,59.84,729,59.64,728.6,59.64z" class="st40"/><path d="M796.85,175.68c-3.12,0-5.28-3.6-5.28-6c0-0.24-0.24-0.48-0.24-0.48s-0.24,0.24-0.24,0.48 c0,2.4-1.92,6-5.28,6c-0.24,0-0.24,0.24-0.24,0.48c0,0.24,0.24,0.48,0.24,0.48c3.12,0,5.28,3.6,5.28,6 c0,0.24,0.24,0.48,0.24,0.48s0.24-0.24,0.24-0.48c0-2.4,1.92-6,5.28-6c0.24,0,0.24-0.24,0.24-0.48 C797.09,175.68,797.09,175.68,796.85,175.68z" class="st40"/><path d="M927,75.62c-3.12,0-5.28-3.6-5.28-6c0-0.24-0.24-0.48-0.24-0.48s-0.24,0.24-0.24,0.48 c0,2.4-1.92,6-5.28,6c-0.24,0-0.24,0.24-0.24,0.48c0,0.24,0.24,0.48,0.24,0.48c3.12,0,5.28,3.6,5.28,6 c0,0.24,0.24,0.48,0.24,0.48s0.24-0.24,0.24-0.48c0-2.4,1.92-6,5.28-6c0.24,0,0.24-0.24,0.24-0.48 C927.24,75.62,927.24,75.62,927,75.62z" class="st0"/><path d="M1662.85,174.69c-3.08,0-5.06-3.45-5.06-5.92c0-0.25-0.12-0.37-0.37-0.37s-0.37,0.12-0.37,0.37 c0,2.47-1.97,5.92-5.06,5.92c-0.25,0-0.37,0.12-0.37,0.37c0,0.25,0.12,0.37,0.37,0.37c3.08,0,5.06,3.45,5.06,5.92 c0,0.25,0.12,0.37,0.37,0.37s0.37-0.12,0.37-0.37c0-2.47,1.97-5.92,5.06-5.92c0.25,0,0.37-0.12,0.37-0.37 C1663.1,174.93,1662.97,174.69,1662.85,174.69z" class="st0"/><path d="M2180.28,78.14c-3.12,0-5.28-3.6-5.28-6c0-0.24-0.24-0.48-0.24-0.48c-0.24,0-0.24,0.24-0.24,0.48 c0,2.4-1.92,6-5.28,6c-0.24,0-0.24,0.24-0.24,0.48s0.24,0.48,0.24,0.48c3.12,0,5.28,3.6,5.28,6c0,0.24,0.24,0.48,0.24,0.48 c0.24,0,0.24-0.24,0.24-0.48c0-2.4,1.92-6,5.28-6c0.24,0,0.24-0.24,0.24-0.48C2180.76,78.38,2180.52,78.14,2180.28,78.14z" class="st0"/><path d="M2360.28,87.14c-3.12,0-5.28-3.6-5.28-6c0-0.24-0.24-0.48-0.24-0.48c-0.24,0-0.24,0.24-0.24,0.48 c0,2.4-1.92,6-5.28,6c-0.24,0-0.24,0.24-0.24,0.48s0.24,0.48,0.24,0.48c3.12,0,5.28,3.6,5.28,6c0,0.24,0.24,0.48,0.24,0.48 c0.24,0,0.24-0.24,0.24-0.48c0-2.4,1.92-6,5.28-6c0.24,0,0.24-0.24,0.24-0.48C2360.76,87.38,2360.52,87.14,2360.28,87.14z" class="st0"/><path fill="#95d7e9" d="M1976.32,161.34c-3.12,0-5.28-3.6-5.28-6c0-0.24-0.24-0.48-0.24-0.48c-0.24,0-0.24,0.24-0.24,0.48 c0,2.4-1.92,6-5.28,6c-0.24,0-0.24,0.24-0.24,0.48s0.24,0.48,0.24,0.48c3.12,0,5.28,3.6,5.28,6c0,0.24,0.24,0.48,0.24,0.48 c0.24,0,0.24-0.24,0.24-0.48c0-2.4,1.92-6,5.28-6c0.24,0,0.24-0.24,0.24-0.48C1976.8,161.58,1976.56,161.34,1976.32,161.34z"/><path d="M882.26,265.49c-3.12,0-5.28-3.6-5.28-6c0-0.24-0.24-0.48-0.24-0.48c-0.24,0-0.24,0.24-0.24,0.48 c0,2.4-1.92,6-5.28,6c-0.24,0-0.24,0.24-0.24,0.48s0.24,0.48,0.24,0.48c3.12,0,5.28,3.6,5.28,6c0,0.24,0.24,0.48,0.24,0.48 c0.24,0,0.24-0.24,0.24-0.48c0-2.4,1.92-6,5.28-6c0.24,0,0.24-0.24,0.24-0.48C882.74,265.73,882.5,265.49,882.26,265.49z" class="st38"/><path fill="#727bba" d="M1946.28,263.06c-3.12,0-5.28-3.6-5.28-6c0-0.24-0.24-0.48-0.24-0.48c-0.24,0-0.24,0.24-0.24,0.48 c0,2.4-1.92,6-5.28,6c-0.24,0-0.24,0.24-0.24,0.48c0,0.24,0.24,0.48,0.24,0.48c3.12,0,5.28,3.6,5.28,6 c0,0.24,0.24,0.48,0.24,0.48c0.24,0,0.24-0.24,0.24-0.48c0-2.4,1.92-6,5.28-6c0.24,0,0.24-0.24,0.24-0.48 C1946.52,263.3,1946.52,263.06,1946.28,263.06z" opacity=".64"/><path fill="#d9e0f1" d="M1838.28,321.14c-3.12,0-5.28-3.6-5.28-6c0-0.24-0.24-0.48-0.24-0.48s-0.24,0.24-0.24,0.48 c0,2.4-1.92,6-5.28,6c-0.24,0-0.24,0.24-0.24,0.48c0,0.24,0.24,0.48,0.24,0.48c3.12,0,5.28,3.6,5.28,6 c0,0.24,0.24,0.48,0.24,0.48s0.24-0.24,0.24-0.48c0-2.4,1.92-6,5.28-6c0.24,0,0.24-0.24,0.24-0.48 C1838.52,321.38,1838.52,321.14,1838.28,321.14z"/><path d="M2078.62,50.7c-4.88,0-8.25-5.63-8.25-9.38c0-0.38-0.38-0.75-0.38-0.75s-0.38,0.38-0.38,0.75 c0,3.75-3,9.38-8.25,9.38c-0.38,0-0.38,0.38-0.38,0.75c0,0.38,0.38,0.75,0.38,0.75c4.88,0,8.25,5.63,8.25,9.38 c0,0.38,0.38,0.75,0.38,0.75s0.38-0.38,0.38-0.75c0-3.75,3-9.38,8.25-9.38c0.38,0,0.38-0.38,0.38-0.75 C2079,51.08,2079,50.7,2078.62,50.7z" class="st31"/></g><g opacity=".15"><path d="M1083.24,326.08c-6.54-8.04-11.82-17.33-16.76-26.39c-13.63-25.01-23.78-51.87-31.33-79.3 c-11.14-40.44-17.43-82.84-16.47-124.83c0.7-30.5,5.43-61.1,15.62-89.92c0.29-0.82,1.07-2.87,2.14-5.64h-3.96 c-9.73,26.14-15.35,53.79-17.56,81.56c-3.41,42.92,1.18,86.32,10.8,128.21c7.17,31.26,20.44,57.47,34.87,86.16 C1064.8,304.29,1085.09,328.36,1083.24,326.08L1083.24,326.08z" class="st15"/></g></g></g></g><g><g><g><path d="M1938.69,340.11L1938.69,340.11c1.74,0,1.74-2.7,0-2.7" class="st4"/><g><g><g opacity=".62"><polygon fill="#8a93c4" points="1358.66 416.77 1408.01 402.86 1430.62 417.91"/></g><g><rect width="4.12" height="13.96" x="1349.23" y="219.63" class="st47" transform="matrix(0.9107 -0.4131 0.4131 0.9107 27.0758 578.4496)"/><path d="M1363.25,224.85l-13.7,6.48c-0.67,0.32-2.24-2.7-1.46-3.05l13.87-6.2c0.69-0.31,1.51-0.02,1.85,0.64 l0.08,0.16C1364.29,223.61,1363.99,224.5,1363.25,224.85z" class="st47"/><path d="M1486.56,161.71l-45.06,21.64c8.59-3.9,16.28-0.18,20.19,8.41c3.9,8.59,1.63,16.83-6.96,20.73 l45.96-19.65c8.59-3.9,10.41-13.13,6.51-21.72C1503.29,162.52,1495.16,157.82,1486.56,161.71z" class="st48"/><g><path d="M1466.8,188.92c5.8,12.79-5.03,20.29-11.4,23.17c-6.36,2.89-14.47-1.28-18.11-9.31 c-3.64-8.03-1.44-16.88,4.93-19.76C1448.58,180.14,1461,176.13,1466.8,188.92z" class="st48"/><path d="M1465.33,189.63c5.22,11.5-4.53,18.25-10.26,20.85c-5.73,2.6-13.02-1.15-16.3-8.38 c-3.27-7.22-1.29-15.18,4.43-17.78C1448.94,181.73,1460.11,178.13,1465.33,189.63z" class="st47"/><path d="M1460.37,177.81l-115.18,53.45c6.53-2.96,12.37-0.14,15.33,6.39c2.96,6.53,1.24,12.78-5.29,15.74 l115.86-51.94c6.53-2.96,7.91-9.97,4.95-16.5C1473.08,178.43,1466.9,174.85,1460.37,177.81z" class="st0"/><path fill="#ced2ea" d="M1361.5,240.44c0,0-0.68,10.42-6.27,12.96l115.86-51.94c4.57-2.07,6.41-10.62,6.41-10.62 L1361.5,240.44z" enable-background="new" opacity=".48"/><ellipse cx="1351.78" cy="241.57" class="st50" rx="9.67" ry="12.2" transform="matrix(0.9107 -0.4131 0.4131 0.9107 20.9395 579.988)"/><g><path d="M1348.7,237.19l-38.35,18.35c2.68-1.21,5.07-0.06,6.29,2.62c1.22,2.68,0.51,5.24-2.17,6.46 l38.63-17.73c2.68-1.21,3.24-4.09,2.03-6.76C1353.92,237.45,1351.38,235.98,1348.7,237.19z" class="st47"/><ellipse cx="1313.31" cy="259.75" class="st50" rx="4.22" ry="5.32" transform="matrix(0.9107 -0.4131 0.4131 0.9107 9.9924 565.7183)"/></g><g><path fill="#d5def0" d="M1366.77,205.53l-38.35,18.35c2.68-1.21,5.07-0.06,6.29,2.62c1.21,2.68,0.51,5.24-2.17,6.46 l38.63-17.73c2.68-1.21,3.24-4.09,2.03-6.76C1371.99,205.78,1369.45,204.32,1366.77,205.53z"/><path d="M1341.39,229.41l10.46-4.8c1.8-1.64,2.12-4.1,0.97-6.66c-1.08-2.38-2.94-3.75-5.13-3.71 l-10.84,5.18c2.95-1.34,5.58-0.06,6.91,2.89C1345.11,225.25,1344.33,228.07,1341.39,229.41z" class="st47"/><path d="M1362.39,219.36l10.17-4.67c1.75-1.59,2.07-3.98,0.94-6.47c-1.05-2.31-2.85-3.64-4.98-3.61 l-10.53,5.04c2.86-1.3,5.42-0.06,6.72,2.8C1366,215.32,1365.25,218.06,1362.39,219.36z" class="st47"/><ellipse cx="1331.38" cy="228.09" class="st47" rx="3.89" ry="4.9" transform="matrix(0.9107 -0.4131 0.4131 0.9107 24.6849 570.3553)"/></g><path fill="#39446c" d="M1484.49,164.12l-40.85,19.62c7.79-3.54,14.76-0.17,18.29,7.63s1.48,15.25-6.31,18.79l41.67-17.81 c7.79-3.54,9.44-11.9,5.9-19.69S1492.28,160.58,1484.49,164.12z"/><path d="M1488.2,160.97l-45.06,21.64c8.59-3.9,16.28-0.18,20.19,8.41c3.9,8.59,1.63,16.83-6.96,20.73 l45.96-19.65c8.59-3.9,10.41-13.13,6.51-21.72C1504.94,161.78,1496.79,157.07,1488.2,160.97z" class="st47"/></g></g><g><g><path d="M1431.69,419.73c-0.87,0-1.64-0.61-1.83-1.49l-27.74-131.36c-0.21-1.01,0.43-2,1.44-2.22 c1.01-0.21,2,0.43,2.22,1.44l27.74,131.36c0.21,1.01-0.43,2-1.44,2.22C1431.95,419.72,1431.82,419.73,1431.69,419.73z" class="st47"/></g><g><path d="M1429.51,408.95c-1.44,0-2.72-0.99-3.05-2.45l-26.64-121.52c-0.37-1.69,0.7-3.35,2.38-3.72 c1.69-0.37,3.35,0.7,3.72,2.38l26.64,121.52c0.37,1.69-0.7,3.35-2.38,3.72C1429.95,408.92,1429.72,408.95,1429.51,408.95z" class="st53"/></g></g><g><g><path d="M1408.01,405.82c-0.96,0-1.77-0.72-1.86-1.69l-11.44-118.75c-0.1-1.03,0.66-1.94,1.69-2.04 c1.02-0.09,1.94,0.66,2.04,1.69l11.44,118.75c0.1,1.03-0.66,1.94-1.69,2.04C1408.13,405.82,1408.06,405.82,1408.01,405.82 z" class="st47"/></g><g><path fill="#646d88" d="M1407.15,394.88c-1.58,0-2.93-1.19-3.1-2.79l-11.44-108.85c-0.18-1.71,1.06-3.25,2.78-3.43 c1.7-0.17,3.25,1.06,3.43,2.78l11.44,108.85c0.18,1.71-1.06,3.25-2.78,3.43C1407.37,394.87,1407.26,394.88,1407.15,394.88 z"/></g><g><path fill="#1c253f" d="M1397.06,301.2c-2.22,0-4.12-1.69-4.34-3.95l-1.34-13.92c-0.23-2.4,1.52-4.53,3.93-4.77 c2.43-0.22,4.53,1.53,4.77,3.93l1.34,13.92c0.23,2.4-1.52,4.53-3.93,4.77C1397.34,301.19,1397.2,301.2,1397.06,301.2z"/></g></g><g><g><path d="M1358.66,418.59c-0.16,0-0.31-0.02-0.46-0.06c-1-0.26-1.61-1.27-1.35-2.28l33.2-130.14 c0.26-1.01,1.27-1.61,2.28-1.35c1,0.26,1.61,1.27,1.35,2.28l-33.2,130.14C1360.26,418.03,1359.5,418.59,1358.66,418.59z" class="st47"/></g><g><path d="M1361.79,408.02c-0.25,0-0.5-0.03-0.76-0.09c-1.67-0.42-2.69-2.11-2.27-3.78l30.02-120.77 c0.41-1.67,2.1-2.69,3.78-2.27c1.67,0.42,2.69,2.11,2.27,3.78l-30.02,120.77 C1364.47,407.07,1363.19,408.02,1361.79,408.02z" class="st53"/></g></g><g><path d="M1406.65,218.71v16.91c0,5.65-4.6,10.26-10.26,10.26l0,0c-4.34,0-8.06-2.72-9.55-6.54l-6.91,3.34 c2.74,6.38,9.09,10.86,16.46,10.86c9.87,0,17.91-8.03,17.91-17.91v-19.51l-2.22-0.02L1406.65,218.71z" class="st50"/></g><path d="M1412.1,236.73v-20.61l-7.65,3.69v16.91c0,5.65-4.6,10.26-10.26,10.26l0,0 c-4.34,0-8.06-2.72-9.55-6.54l-7.15,2.94c2.37,5.53,7.63,9.92,13.79,11v25.43c-1.77,0.21-3.3,1.49-3.73,3.33l-3.22,13.61 c-0.56,2.35,0.9,4.7,3.25,5.26c0.34,0.08,0.67,0.12,1.01,0.12c1.98,0,3.77-1.36,4.25-3.37l2.6-10.99h3.68l2.33,11.14 c0.43,2.06,2.25,3.48,4.27,3.48c0.29,0,0.6-0.03,0.9-0.09c2.36-0.49,3.88-2.81,3.39-5.17l-2.86-13.69 c-0.46-2.17-2.45-3.62-4.61-3.46v-27.39C1408.21,249.56,1412.1,243.59,1412.1,236.73z" class="st47"/></g></g><g><g><g><polygon fill="#9195c8" points="1608.17 420.15 1552.63 434.48 1494.11 424.92 1552.05 409.69" enable-background="new" opacity=".54"/><g><path fill="#566482" d="M1606.69,422.74c2.29,0.34,4.62-3.59,2.98-5.23l-2.09-2.08l-47.46-53.58 c-0.92-0.91-2.4-0.92-3.34-0.03l-0.02,0.02c-0.99,0.94-1,2.5-0.03,3.45l46.13,51.21c1.66,1.63,0.17,1.9-2.12,1.57 l-46.18-9.26c-0.49-0.07-0.94-0.29-1.3-0.63l-54.16-59.12c-0.93-0.88-2.38-0.88-3.3,0l0,0c-1.01,0.96-0.99,2.56,0.03,3.5 l56.04,59.76c0.36,0.33,0.81,0.54,1.29,0.61L1606.69,422.74z"/><path fill="#495576" d="M1599.59,342.39c0,0,0.48-0.39-0.24,0.74l-47.27,87.43c-0.54,0.83-1.52,1.25-2.49,1.06l-46.51-9.02 c-1.71-0.33-2.52-2.32-1.52-3.75l47.15-67.46c0.78-1.12,0.48-2.67-0.67-3.41h-0.01c-1.09-0.7-2.54-0.42-3.28,0.64 L1493.09,422c-1.01,1.44-0.19,3.44,1.54,3.76l57.69,10.57c0.96,0.17,1.93-0.24,2.46-1.06l48.62-89.52 C1604.13,344.62,1600.71,343.12,1599.59,342.39z"/><polygon fill="#8590aa" points="1605.41 349.21 1552.55 365.83 1552.18 355.22 1488.37 344.67 1549.9 345.54 1605.06 339.44"/><polygon fill="#485677" points="1552.18 355.22 1488.37 344.67 1543.52 329.73 1605.06 339.44"/><polygon fill="#636e88" points="1552.55 365.83 1488.74 355.28 1488.37 344.67 1552.18 355.22"/><g><path d="M1550.03,285.04l-12.3,42.9l56.81,10.45l14.63-44.8c0.42-1.26-0.25-2.63-1.51-3.05 c-0.21-0.07-0.44-0.11-0.66-0.12l-52.51-8.24C1552.54,282.08,1550.76,283.23,1550.03,285.04z" class="st31"/><path d="M1549.45,284.62l-13.47,42.9l57.98,10.45l14.63-44.8c0.42-1.26-0.25-2.63-1.51-3.05 c-0.21-0.07-0.44-0.11-0.66-0.12l-52.51-8.24C1551.95,281.66,1550.17,282.81,1549.45,284.62z" class="st0"/><path d="M1539.41,324.52c0.27-1.29,12.22-38.96,12.22-38.96c0.35-1.06,1.36-1.77,2.47-1.75l49.25,8.31 c0.95,0.02,1.7,0.81,1.68,1.76c-0.01,0.16-0.03,0.32-0.07,0.47l-12.89,38.56c-0.36,1.16-1.47,1.9-2.68,1.79l-48.64-8.27 C1539.79,326.34,1539.13,325.81,1539.41,324.52z" class="st47"/><ellipse cx="1580.73" cy="287.26" class="st47" rx=".64" ry=".55" transform="matrix(0.2646 -0.9644 0.9644 0.2646 885.4664 1735.6517)"/><g><path fill="#2d355c" d="M1539.78,333.52l-41.06,9.87l0,0c0,0.27,0.2,0.51,0.47,0.54l55.06,8.06 c1.71,0.29,3.47,0.18,5.12-0.34c0,0,30.01-8.97,33.1-10.02c3.09-1.05,2.08-3.25,2.08-3.25L1539.78,333.52z" enable-background="new" opacity=".13"/><path d="M1537.2,329.54l-34.53,10.51l-2.53-0.64l0.11,1.69l0,0c0,0.27,0.2,0.51,0.47,0.54l55.06,8.06 c1.71,0.29,3.47,0.18,5.12-0.34l32.22-9.94c0.71-0.21,1.18-0.89,1.12-1.64l-0.02-0.3L1537.2,329.54z" class="st31"/><path d="M1500.6,340.09l55.06,8.06c1.71,0.29,3.47,0.18,5.12-0.34l33.45-10.3l-56.7-10.22l-36.96,11.69 c-0.31,0.07-0.49,0.38-0.41,0.69C1500.2,339.88,1500.38,340.05,1500.6,340.09z" class="st0"/><polygon points="1520.21 341.73 1541.9 345.35 1552.73 341.92 1529.85 337.92" class="st31"/><polygon fill="#b3b8d2" points="1523.86 334.56 1569.11 341.99 1586.24 336.85 1542.27 329.58"/></g><g><path d="M1603.36,292.13l-49.25-8.31c-1.12-0.02-2.12,0.69-2.47,1.75l53.33,8.79 c0.05-0.15,0.07-0.31,0.07-0.47C1605.06,292.93,1604.31,292.14,1603.36,292.13z" class="st64"/><path d="M1549.41,313.11l23.8,4.18c0.02,0.01,0.06,0.01,0.08,0.01c0.2,0,0.38-0.13,0.44-0.32l6.74-20.95 c0.04-0.13,0.02-0.27-0.04-0.39c-0.07-0.12-0.19-0.19-0.32-0.22l-24-4.07c-0.22-0.04-0.46,0.1-0.52,0.32l-6.53,20.85 c-0.04,0.13-0.02,0.27,0.04,0.38C1549.16,313.01,1549.28,313.09,1549.41,313.11z M1556.35,292.33l23.07,3.91 l-6.45,20.06l-22.87-4.02L1556.35,292.33z" class="st64"/><path d="M1598.17,298.52l-15.24-2.49c-0.26-0.04-0.49,0.13-0.54,0.39s0.13,0.49,0.39,0.54l15.24,2.49 c0.03,0.01,0.05,0.01,0.07,0.01c0.22,0,0.42-0.16,0.46-0.39C1598.6,298.8,1598.43,298.56,1598.17,298.52z" class="st64"/><path d="M1596.84,303.72l-15.24-2.49c-0.27-0.04-0.49,0.13-0.54,0.39c-0.04,0.26,0.13,0.49,0.39,0.54 l15.24,2.49c0.03,0.01,0.05,0.01,0.07,0.01c0.22,0,0.42-0.16,0.46-0.39C1597.27,304,1597.1,303.76,1596.84,303.72z" class="st64"/><path d="M1595.51,308.91l-15.24-2.49c-0.27-0.04-0.49,0.13-0.54,0.39c-0.04,0.26,0.13,0.49,0.39,0.54 l15.24,2.49c0.02,0.01,0.05,0.01,0.07,0.01c0.22,0,0.42-0.16,0.46-0.39C1595.94,309.2,1595.76,308.96,1595.51,308.91z" class="st64"/><path d="M1593.88,314.26l-15.24-2.76c-0.26-0.04-0.49,0.12-0.54,0.37c-0.04,0.26,0.12,0.5,0.38,0.54 l15.24,2.76c0.03,0.01,0.06,0.01,0.08,0.01c0.22,0,0.42-0.16,0.46-0.39C1594.31,314.55,1594.14,314.3,1593.88,314.26z" class="st64"/><path d="M1592.23,320.11l-15.05-2.73c-0.26-0.04-0.5,0.12-0.54,0.37c-0.04,0.26,0.12,0.5,0.38,0.54 l15.05,2.73c0.03,0.01,0.06,0.01,0.08,0.01c0.22,0,0.42-0.16,0.46-0.39C1592.66,320.39,1592.49,320.15,1592.23,320.11z" class="st64"/><path d="M1581.4,323.95l-33.42-6.29c-0.26-0.05-0.5,0.12-0.54,0.37c-0.05,0.26,0.12,0.5,0.37,0.55 l33.42,6.29c0.03,0.01,0.06,0.01,0.09,0.01c0.22,0,0.42-0.16,0.46-0.38C1581.82,324.24,1581.65,323.99,1581.4,323.95z" class="st64"/><path d="M1571.83,326.83l-25.49-4.35c-0.26-0.05-0.5,0.12-0.54,0.38c-0.04,0.26,0.13,0.5,0.38,0.54 l25.49,4.35c0.03,0.01,0.06,0.01,0.08,0.01c0.22,0,0.42-0.16,0.46-0.39C1572.25,327.11,1572.08,326.87,1571.83,326.83z" class="st64"/></g></g></g></g></g><g><g><path d="M1377.56,239.48c-0.7,0.01-1.36-0.39-1.64-1.07c-0.37-0.9,0.06-1.94,0.97-2.33l10.64-4.53 c0.91-0.39,1.94,0.03,2.31,0.93c0.37,0.9-0.06,1.94-0.97,2.33l-10.64,4.53C1378.01,239.43,1377.78,239.48,1377.56,239.48z" class="st64"/></g><g><g><path d="M1381.91,236.28c9.18,3.24,12.66,13.2,15.85,21.49c1.94,5.07,3.87,10.15,5.37,15.36 c3.41,11.82,4.05,24.14,4.37,36.38c0.26,9.94,0.25,19.89,0.26,29.84c0.01,5.24,0.07,10.49,0.43,15.72 c0.8,11.62,3.19,23.09,8.21,33.65c6.48,13.62,16.93,24.83,28.92,33.81c8.28,6.2,17.28,11.39,26.58,15.9 c6.07,2.95,12.15,5.86,18.81,7.21c11.08,2.24,22.72,1.62,33.77-0.48c13.2-2.51,26.04-7.44,37.36-14.7 c12.32-7.89,22.73-18.64,29.74-31.52c3.89-7.16,6.71-14.9,8.49-22.85c1.15-5.15,1.76-10.25,1.1-15.52 c-0.63-5.06-2.12-10.06-4.52-14.57c-1.67-3.15-4.22-7.68-8.35-7.33c-0.99,0.09-1,1.65,0,1.56 c2.64-0.22,4.19,2.05,5.5,4.02c1.32,1.99,2.39,4.13,3.25,6.35c2.04,5.21,3.08,10.85,2.84,16.45 c-0.2,4.62-1.35,9.28-2.6,13.71c-1.12,3.95-2.5,7.84-4.18,11.59c-6,13.45-15.61,25.03-27.51,33.67 c-10.92,7.93-23.52,13.45-36.63,16.58c-11.16,2.65-22.98,3.76-34.38,2.12c-5.07-0.73-9.79-2.16-14.47-4.22 c-9.78-4.32-19.32-9.29-28.21-15.24c-12.94-8.67-24.58-19.64-32.13-33.41c-5.68-10.36-8.65-21.87-9.74-33.58 c-1.3-13.92-0.6-28.03-0.81-41.99c-0.2-13.03-0.38-26.35-3.39-39.1c-1.16-4.9-2.75-9.67-4.48-14.38 c-2.5-6.79-4.73-14.17-8.98-20.09c-2.55-3.57-5.84-6.46-10.02-7.93C1381.37,234.44,1380.97,235.94,1381.91,236.28 L1381.91,236.28z" class="st39"/></g><g><path fill="#283c7f" d="M1381.71,237.03c0.24,0.08,0.47,0.17,0.71,0.26c0.12,0.04,0.24,0.09,0.35,0.14 c-0.06-0.02-0.31-0.13-0.11-0.04c0.06,0.02,0.11,0.05,0.17,0.07c0.47,0.21,0.92,0.44,1.37,0.7 c0.43,0.24,0.84,0.51,1.25,0.79c0.2,0.14,0.41,0.28,0.6,0.43c0.04,0.03,0.22,0.17,0.03,0.02s-0.01-0.01,0.03,0.02 c0.11,0.09,0.22,0.17,0.32,0.26c0.33,0.27,0.66,0.46,1.11,0.46c0.38,0,0.84-0.17,1.11-0.46c0.52-0.57,0.67-1.66,0-2.2 c-1.83-1.5-3.83-2.68-6.08-3.45c-0.77-0.26-1.74,0.3-1.92,1.09C1380.42,235.98,1380.88,236.75,1381.71,237.03 L1381.71,237.03z"/></g></g></g><g><path fill="#2b355c" d="M1592.43,340.06c-1.15-1.14-2.7-1.75-4.32-1.54c-0.26,0.03-0.47,0.08-0.66,0.27 c-0.16,0.16-0.29,0.43-0.27,0.66c0.01,0.24,0.09,0.49,0.27,0.66c0.17,0.16,0.42,0.31,0.66,0.27 c0.34-0.04,0.67-0.06,1.01-0.03c0.04,0.01,0.07,0.01,0.11,0.01c0.11,0.01-0.25-0.04-0.06-0.01 c0.07,0.01,0.14,0.02,0.21,0.04c0.16,0.03,0.31,0.08,0.46,0.13c0.07,0.02,0.13,0.05,0.2,0.07 c-0.06-0.02-0.19-0.08-0.06-0.02c0.03,0.01,0.06,0.03,0.09,0.04c0.14,0.07,0.27,0.14,0.39,0.22 c0.07,0.04,0.14,0.09,0.2,0.14c0.02,0.02,0.13,0.1,0.01,0.01c-0.12-0.09,0.01,0.01,0.04,0.03c0.13,0.11,0.26,0.22,0.37,0.34 c0.35,0.34,0.98,0.37,1.32,0C1592.77,341.01,1592.8,340.43,1592.43,340.06L1592.43,340.06z"/></g></g><path d="M1640.6,431.89c7.48-13,14.97-18.02,17.65-32.91c-13.55,9.2-24.46,21.35-31.76,35.34 c1.7-9.88,3.4-19.76,5.1-29.64c-6.87,8.43-11.62,18.37-13.86,29c-3.42-11.68,3.37-30.8-1.32-42.25 c-3.81,9.76-8.92,32.5-11.12,42.82c-2.18-7.45-5.18-20.09-10.91-26.15c-1.06,6.21-9.52,32.5-9.52,32.5l-3.58-21.3 l-16.52,27.15v-19.72c0,0-17.66,22.88-21.17,28.71c-0.9-17.99-4.77-27.81-4.77-27.81s-8.68,13.55-15.34,21.79 c5.57-14.26,6.32-31.09,6.32-31.09s-10.5,16.56-15.56,31.75c-0.68-10.01-0.85-12.51-1.54-22.52 c-6.11,9.67-9.17,20.36-8.94,31.22c-3.52-12.11-0.16-20.35-5.42-33.36c-1.96,10.33-17.3,25.84-17.11,36.39 c-4.78-6.83-1.98-27.07-10.75-31.82c0.35,5.02-4.69,17.83-7.83,27.01c-0.91-14.44-2.39-27.38-2.74-32.84 c-3.73,14.1-11.34,21.95-16.38,36.26c-0.7-9.44,1.57-21.25,0.87-30.69c-6.09,9.1-14.73,14.98-14.48,25.22 c-7.54-10.12,2.43-29.06-6.62-38.72c-1.93,9.74-12.87,44.84-12.87,44.84s-3.6-20.73-12.38-25.22 c0.26,3.39-3.24,17.47-6.29,28.95c-0.29-0.54-0.67-0.73-1.17-0.49c6.34-2.39-10.98-35.48-12.33-36.93 c-1.29,2.39-3.02,30.56-4.31,32.95c-1.39-1.42-10.11-25.88-11.16-26.78c-2.36-2.03-7.27,18.91-9.93,22.48 c-6.81-23.61-10.31-20.39-15.29-33.68c-0.84,12.95-6.19,14.42-3.27,30.01c-2.29-9.61-8.28-13.37-11.14-22.64 c-2.4,7.13-0.08,14.63-2.49,21.75c-2.77-8.95-8.02-23.01-9.07-32.89c-0.89,9.91-5.75,17.15-6.64,27.06 c-4.02-24.14-5.86-15.04-13.77-35.7c2.73,22.12-8.35,27.5-8.35,27.5c-2.59-4.14,0.14,0.03-2.95-1.4 c-13.51-13.64-27.22-27.48-29.2-30.17c-0.73,2.52-0.54,18.67-1.27,21.18c-10.19-20.66-14.42-23.27-18.24-31.11 c-1.02,5.74,0.67,25.82-1.51,31.63c-2.49-4.47-11.43-31.6-14.69-35.39c-0.07,3.2,1.94,36.04-5.14,35.89 c-7.08-0.14,0.37-0.51,0.37-0.51c-2.24-16.95-13.24-27.63-13.24-27.63l3.09,26.32l-20.03-25.69c0,0,1.95,22.48-1.06,24.16 c-2.24-6.41-13.68-10.79-17.32-16.13c-0.12,6.5,0.71,10.75,1.91,15.42c-15.21-5.68-34.29-12.52-36.45-13.81 c2.7,4.6,39.37,89.36,264.42,89.36s266.94-76.92,273.45-90C1655.83,414.18,1647.59,424.93,1640.6,431.89z" class="st0"/><g><path fill="#d4ddf0" d="M1208.54,427.76c16.71-2.19,25.26,0.24,38.51,0.09c21.32-0.23,27.04,1.59,47.96,4.83 c2.34,0.36,4.86,0.85,4.82,2.94c-0.04,2.62-0.69,1.27-3.7,1.54c-10.29,0.92-20.37,3.13-30.62,4.26 c-14.28,1.57-28.87,0.79-42.95-1.87C1222.56,439.55,1195.43,429.48,1208.54,427.76z"/><g><g><path fill="#f16422" d="M1310.4,327.79c-4.91-19.63-9.34-32.7,1.17-43.2c10.51-10.51-27.71-3.52-27.47-10.49 s-6.38-11.16-10.66-19.44s-16.99-9.94-28.51-7.91c-11.52,2.04-21.69,14.64-23.85,21.24c-1.45,4.41-6.5,15.71-9.38,17.79 c-3.39,11.41-1.32,16.49-0.39,28.46c0.16,4.49-2.85,2.96-3.3,9.21c0.83,17.98-2.75,22.49-1.72,39.57 c0.62,10.36,17.41,50.8,17.41,50.8l2.26,1.46c0,0,2.51-6.57,4.35-9.94c1.84-3.37,9-29.81,13.32-32.51 c4.32-2.7,17.43,19.33,26.53,24.19c9.11,4.85,14.2,28.97,14.2,28.97l1.62-0.14c0,0,0.37,1.27,4.45-14.93 C1294.51,394.72,1320.91,369.82,1310.4,327.79z"/><polygon points="1284.36 425.99 1283.99 431.56 1290.29 433.98 1299.82 433.13 1289.22 430.11 1285.98 425.85" class="st69"/><path d="M1223.69,413.81l-1.05,4.09l-9.03,4.38c0,0,0.87,7.05,4.12,6.76s7.51-3.49,7.51-3.49l0.71-10.29 L1223.69,413.81z" class="st69"/><path fill="#491732" d="M1214.16,424.84c0,0,7.5,4.09,11.2-0.9c0,0,1,2.54-7.63,5.12 C1214.73,429.96,1214.16,424.84,1214.16,424.84z"/><path d="M1283.99,431.56l5.12,3.98c0,0,9.41,2.32,10.52,0.71c1.11-1.61,0.21-3.12,0.21-3.12L1283.99,431.56z" class="st69"/><linearGradient id="SVGID_1_" x1="715.955" x2="727.326" y1="9" y2="-13.828" gradientTransform="matrix(0.9195 0.0618 -0.0671 0.9977 557.0428 335.2134)" gradientUnits="userSpaceOnUse"><stop offset="0" stop-color="#a81e57"/><stop offset="1" stop-color="#000" stop-opacity="0"/></linearGradient><path fill="url(#SVGID_1_)" d="M1208.25,353.48c-0.69,3.32,1.5,16.88,2.34,19.86c5.9,20.82,12.83,40.47,12.83,40.47l2.26,1.46 c0,0,2.51-6.57,4.35-9.94c1.52-2.8,4.95-26.25,11.48-33.15C1236.43,361.5,1218.26,358.89,1208.25,353.48z" enable-background="new" opacity=".24"/><linearGradient id="SVGID_2_" x1="779.198" x2="728.065" y1="-10.46" y2="-38.934" gradientTransform="matrix(0.9195 0.0618 -0.0671 0.9977 557.0428 335.2134)" gradientUnits="userSpaceOnUse"><stop offset="0" stop-color="#dbbb54"/><stop offset="1" stop-color="#000" stop-opacity="0"/></linearGradient><path fill="url(#SVGID_2_)" d="M1281.7,301.88c9.15,12.58,25.44,17.38,15.5,51.62c-9.53,32.85-15.82,28.21-41.45,33.72 c-36.5,7.86-30.07,28.03-30.07,28.03s-16.03-25.55-10.86-47.8C1222.25,335.45,1246.28,298.53,1281.7,301.88z" enable-background="new" opacity=".6"/></g><path d="M1214.79,354.56c-7.51-0.15-25.23,9.18-25.36,12.82c-0.14,3.65,20.36-2.1,28.75-2.95L1214.79,354.56z" class="st47"/><path d="M1228.07,366.48c-7.51-0.15-25.23,9.18-25.36,12.82c-0.14,3.65,20.36-2.1,28.75-2.95L1228.07,366.48z" class="st47"/><path d="M1225.54,354.27c-7.51-0.15-25.23,9.18-25.36,12.82c-0.14,3.65,20.36-2.1,28.75-2.95L1225.54,354.27z" class="st47"/><path d="M1222.67,337.7c-7.25-2-26.71,2.65-27.74,6.15c-1.04,3.5,20.25,3,28.59,4.25L1222.67,337.7z" class="st47"/><path d="M1230.99,357.54c-7.25-2-26.71,2.65-27.74,6.15c-1.04,3.5,20.25,3,28.59,4.25L1230.99,357.54z" class="st48"/><g><g><path fill="#f06523" d="M1295.22,258.36l-5.58-1.32l-0.34-10.77c0.4-3.01,2.69-4.98,5.12-4.4l0,0 c2.43,0.57,4.07,3.49,3.67,6.49L1295.22,258.36z"/><path fill="#f05624" d="M1292.48,248.16c0,0-0.84-3.57,0.96-4.35c1.79-0.78,2.6-0.11,3.3,0.81 c0.72,1.21,0.87,2.67,0.41,3.99C1296.64,249.53,1292.48,248.16,1292.48,248.16z"/><path d="M1260.61,268.2c0.72-1.02,1.32-2.12,1.82-3.27c2.22-5.25,11.77-14.94,22.05-15.92 c10.27-0.98,21.44,1.12,24.84,8.13c3.4,7,6.26,11.21,5.74,16.88c-0.19,1.99,3.09,4.4,3.85,7.34 C1299.16,280.73,1277.65,278.44,1260.61,268.2z" class="st75"/><path d="M1295.35,261.43c0,0-0.38-3.96,3.27-4.94c3.64-0.98,7.73,5.65,13.87,7.37 c6.13,1.72,11.34,2.84,16.51,2.14c5.17-0.71,9.66-3.84,9.86-2.32c0.19,1.52-8.84,17.71-21.08,22.53 c-12.89,5.09-33.98,16.58-43.3,5.76c-9.32-10.81,4.43-28.42,9.28-30.34C1288.61,259.73,1295.35,261.43,1295.35,261.43z" class="st75"/><ellipse cx="1308.32" cy="262.04" class="st75" rx="6.58" ry="5.03" transform="matrix(0.1278 -0.9918 0.9918 0.1278 881.2272 1526.1394)"/><path fill="#010101" d="M1332.05,265.32c0,0,6.16-3.26,6.98-2.66c0.82,0.59,1.26,4.4-2.55,6.63 C1332.66,271.53,1332.05,265.32,1332.05,265.32z"/><circle cx="1326.54" cy="271.54" r="1.17" class="st77"/><circle cx="1324.34" cy="273.98" r=".61" class="st77" transform="matrix(0.9962 -0.0876 0.0876 0.9962 -18.9089 117.0599)"/><circle cx="1327.32" cy="274.53" r=".88" class="st77" transform="matrix(0.9962 -0.0876 0.0876 0.9962 -18.9456 117.3236)"/><ellipse cx="1310.61" cy="261.48" class="st0" rx="3.49" ry="5.23" transform="matrix(0.9928 -0.1195 0.1195 0.9928 -21.8559 158.4967)"/><g><ellipse cx="1312.54" cy="261.27" fill="#896439" rx="1.59" ry="3.39" transform="matrix(0.994 -0.1095 0.1095 0.994 -20.7166 145.2927)"/><path fill="#dba756" d="M1313.96,261.12c0.17,1.67-0.32,3.09-1.11,3.15c-0.79,0.06-1.57-1.24-1.74-2.9 c-0.17-1.67,0.8,1.46,1.59,1.39S1313.78,259.44,1313.96,261.12z" enable-background="new" opacity=".4"/><ellipse cx="1312.54" cy="261.27" fill="#1a1a1a" rx="1.16" ry="2.47" transform="matrix(0.994 -0.1095 0.1095 0.994 -20.7166 145.2927)"/><ellipse cx="1312.98" cy="260.27" class="st0" rx=".17" ry=".37" transform="matrix(0.994 -0.1095 0.1095 0.994 -20.6039 145.3339)"/></g><linearGradient id="SVGID_3_" x1="1356.841" x2="1350.745" y1="5845.448" y2="5842.139" gradientTransform="matrix(0.8546 -0.2073 -0.201 -0.9774 1326.1544 6251.083)" gradientUnits="userSpaceOnUse"><stop offset=".003" stop-color="#f0a020"/><stop offset=".242" stop-color="#f09b22"/><stop offset=".545" stop-color="#ef8b21"/><stop offset=".88" stop-color="#ee7225"/><stop offset="1" stop-color="#ee6825"/></linearGradient><path fill="url(#SVGID_3_)" d="M1313.1,257.85c0,0-5.52-4.55-6.42,6.19c-1.99-0.96-1.82-6.52,1.32-8.3 C1310.62,254.26,1313.1,257.85,1313.1,257.85z"/><path d="M1321.66,280.71c-7.55,2.78-20.38-4.83-17.35,0.15C1308.55,287.84,1316.39,285.47,1321.66,280.71z" class="st0"/></g><linearGradient id="SVGID_4_" x1="1292.759" x2="1348.403" y1="-237.247" y2="-237.247" gradientTransform="matrix(1 0 0 1 0 530.0001)" gradientUnits="userSpaceOnUse"><stop offset="0" stop-color="#ee6825"/><stop offset=".34" stop-color="#ee6925"/><stop offset="1" stop-color="#ef8222"/></linearGradient><path fill="url(#SVGID_4_)" d="M1345.87,265.87c1.23-10.61,2.53-14.68,2.53-14.68l-1.81-1.31l-1.89,8.09l0.04-9.61l-2.67,0.44 l-0.07,9.39l-2.82-8.92l-2,0.32l2.19,9c0,0,0.03,1.6-1.42,1.14c-1.45-0.45-3.29-3.35-3.29-3.35l-2.3-0.08l3.28,6.1 c0,0,2.59,1.87,3.52,3.32c0.16,1.52-0.34,3.14-1.12,6.33c-0.62,2.52-3.65,10.36-8.3,15c-7.43,7.43-24.06,6.35-34.39-3.31 c-10.86-10.15,16.24,53.41,16.24,53.41s-1.97-20.09,1.67-22.53c11.71-7.88,10.42-6.04,21.92-15.55 C1350.1,286.69,1345.88,265.88,1345.87,265.87z"/><path d="M1261.32,263.19c0,0,8.68-6.94,12.97-8.64c7.88-3.13,44.03-12.09,4.97,8.46 c0,0,43.61-14.47,3.32,5.48c0,0,39.21-10.14,4.45,6.71c0,0,38.36,4.04,3.7,10.24c0,0,25.68,4.97-1.8,11.57 c0,0,21.69,5.69,1.49,6.58c0,0,41.7,8.93,1.34,10.14c0,0,36.68,15.23,1.26,11.91c0,0,34.9,15.16,0.21,8.9 c0,0,40.36,12.43,0.74,10.11c0,0,30.94,10.83-2.24,10.57c0,0,28.16,20.2-2.65,6.4c0,0,25.7,22.46-6.28,8.03 c0,0,25.07,28.36-6.25,7.43c0,0,17.26,25.65-6.23,6.84c0,0,7.48,18.7-4.27,2.78c0,0,8.94,24.13-3.75,2.6 c0,0,7.05,24.68-4.93,0.44c0,0,0.14,30.63-6.41,4.26c0,0,4.6,34.33-6.48,3.02c0,0-10.83,26.96-11.49,0.09 c0,0-2.24,24.2-8.28-0.36c0,0-5.33,27.04-4.71-0.8c0,0-17.49,20.58-10.55-2.83c0,0-15.77,8.2,1.11-11.8 c0,0,31.51,11.45,49.09-10.9c17.58-22.35,20.22-45.23,15.19-76.4C1268.91,257.35,1274.05,265.04,1261.32,263.19z" class="st47"/><path d="M1256.88,272.15c1.78-5.53,14.82-14.58,17.44-11.69c1.19,1.32-1.76,3.53-5.94,13.79 c0,0,29.5-14.8,2.82,4.67c0,0,39.04-7.07,3.79,5.72c0,0,32.67,3.44,3.15,8.72c0,0,41.82,1.82,2.17,8.17 c0,0,18.47,4.85,1.27,5.61c0,0,35.51,7.61,1.14,8.63c0,0,31.24,12.97,1.07,10.14c0,0,29.73,12.91,0.17,7.58 c0,0,34.37,10.59,0.64,8.61c0,0,26.35,9.23-1.91,9.01c0,0,23.98,17.2-2.25,5.45c0,0,21.89,19.13-5.35,6.83 c0,0,21.35,24.15-5.33,6.33c0,0,14.7,21.84-5.3,5.83c0,0,6.37,15.93-3.64,2.37c0,0,11.63,34.33-5.65,2.28 c0,0,4.57,22.42-5.63,1.77c0,0,1.46,24.3-4.12,1.84c0,0,3.3,28.42-6.13,1.75c0,0,0.11,32.32-6.61,1.22 c0,0-1.91,20.62-7.06-0.31c0,0-4.54,23.02-4.01-0.68c0,0-14.9,17.53-8.98-2.41c0,0-17.2,9.58,3.45-9.7 c0,0,24.33,9.39,39.3-9.64c14.97-19.04,27.9-42.72,12.94-65.07C1257.6,282.99,1254.7,278.92,1256.88,272.15z" class="st48"/><path d="M1287.54,293.44c-0.03-1.14-4.33-1.94-9.59-1.81c-5.26,0.14-9.5,1.17-9.46,2.3 c0.03,1.14,4.33,1.94,9.59,1.81C1283.34,295.6,1287.58,294.57,1287.54,293.44z" class="st83"/><path d="M1281.73,281.91c-0.46-1.04-4.74-0.15-9.54,1.99c-4.81,2.13-8.33,4.7-7.86,5.73 c0.46,1.04,4.74,0.15,9.54-1.99C1278.67,285.51,1282.2,282.94,1281.73,281.91z" class="st83"/><path d="M1271.5,270.82c-0.77-0.83-4.53,1.39-8.39,4.97c-3.87,3.57-6.37,7.14-5.6,7.97 c0.77,0.83,4.53-1.39,8.4-4.97C1269.77,275.22,1272.28,271.66,1271.5,270.82z" class="st83"/><path d="M1289.74,311.21c-0.02-1.14-4.31-1.98-9.57-1.89c-5.27,0.09-9.51,1.07-9.48,2.21 c0.02,1.14,4.31,1.98,9.57,1.89C1285.52,313.34,1289.77,312.34,1289.74,311.21z" class="st83"/><path d="M1290.9,344.03c0.28-1.1-3.63-3.05-8.73-4.37c-5.1-1.31-9.46-1.49-9.74-0.39 c-0.28,1.1,3.63,3.05,8.73,4.37C1286.26,344.96,1290.62,345.13,1290.9,344.03z" class="st83"/><path d="M1282.3,363.02c0.28-1.1-3.63-3.05-8.73-4.37c-5.1-1.31-9.46-1.49-9.74-0.39 c-0.28,1.1,3.63,3.05,8.73,4.37C1277.66,363.95,1282.02,364.12,1282.3,363.02z" class="st83"/><path d="M1268.11,380.59c0.96-0.62-0.59-4.71-3.45-9.13c-2.86-4.42-5.95-7.5-6.9-6.88 c-0.96,0.62,0.59,4.71,3.45,9.13C1264.07,378.13,1267.15,381.22,1268.11,380.59z" class="st83"/><path d="M1249.87,385.89c0.85-0.18,0.86-3.54,0.03-7.51c-0.84-3.97-2.2-7.04-3.05-6.86 c-0.85,0.18-0.86,3.55-0.03,7.51C1247.65,383,1249.02,386.07,1249.87,385.89z" class="st83"/><path d="M1232.2,391.83c0.87,0.06,1.79-3.19,2.04-7.25c0.26-4.05-0.23-7.39-1.1-7.44 c-0.87-0.06-1.79,3.19-2.05,7.25S1231.33,391.78,1232.2,391.83z" class="st83"/><path d="M1255.44,281.18c1.31-1.42,14.53-13.25,7.54,1.79c0,0,24.87-12.48,2.38,3.93c0,0,32.92-5.96,3.2,4.82 c0,0,27.54,2.9,2.66,7.35c0,0,35.26,1.54,1.83,6.89c0,0,15.57,4.08,1.07,4.73c0,0,29.94,6.41,0.96,7.28 c0,0,26.34,10.94,0.91,8.55c0,0,25.06,10.88,0.14,6.39c0,0,28.98,8.93,0.54,7.26c0,0,22.22,7.78-1.61,7.59 c0,0,20.22,14.5-1.91,4.6c0,0,18.45,16.13-4.51,5.76c0,0,18,20.36-4.49,5.34c0,0,12.39,18.41-4.47,4.91 c0,0,5.37,13.43-3.07,1.99c0,0,9.81,28.94-4.77,1.92c0,0,3.85,18.89-4.75,1.49c0,0,1.24,20.48-3.47,1.55 c0,0,2.79,23.95-5.17,1.47c0,0,0.09,27.24-5.58,1.03c0,0-1.61,17.38-5.95-0.26c0,0-3.83,19.41-3.38-0.57 c0,0-12.56,14.77-7.57-2.04c0,0-14.5,8.08,2.91-8.18c0,0,20.51,7.92,33.13-8.13c3.1-3.95,6.36-8.3,9.26-12.84 c8.86-13.89,14.31-29.52,1.49-40.82C1247.91,291.94,1251.4,285.57,1255.44,281.18z" class="st84"/><path d="M1252.29,306.53c0,0-3.77,2.07-0.36,8.28c0,0-4.16-1.24-1.46,3.36c0,0-5.93-1.31-3.16,6.71 c0,0-7.33-1.9-2.62,4.89c0,0-4.31-3.88-5.13,2.94c0,0-5.78-0.52-2.09,5.7c0,0-9.5,0.37-5.38,8.73c0,0-6.05-0.26-1.61,6.51 c0,0-9.02-4.61-1.99,3.34c0,0-5.55,0.29-3.72,6.69c0,0-3.22-4.62-4.82,1.64c0,0-12.23,16.72,0.11,7.88 c0,0-7.06,14.71,5.32,0.53c0,0,0.82,11.37,5.28-0.29c0,0,7.93,11.41,6.13-1.58c0,0,9.25,11.47,5.38-2.66 c0,0,15.24,13.05,6.7-2.6c0,0,12.28,8.44,3.83-3.26c0,0,12.55,8.19,4.13-4.03c0,0,15.16,14.92,3.34-4.05 c0,0,20.27,6.4,3.9-4.85c0,0,17.59,7.35,2.62-5.68c0,0,10.52,0.46,2.87-5.41c0,0,21.13-1.19,1.79-4.93 c0,0,23.12,1.54,1.06-6.01c0,0,12.84,1.62,1.28-5.22c0,0,15.58-0.9,0.22-5c0,0,12.98-2.79-2.59-4.82 c0,0,15.07-9.66-3.51-6.51c0,0,14.82-7.81-2.5-2.75c0,0,10.09-6.85-1.85-2.54c0,0,5.46-13.9-4.01-2.19 c0,0,1.29-7.13-0.07-7.51c-3.09-0.88-3.02,8.89-3.02,8.89s-9.57,1.29-9.52,3.87 C1246.86,306.03,1252.29,306.53,1252.29,306.53z" class="st83"/><path d="M1272.64,324.21c0.17-0.91-2.52-2.15-6-2.79c-3.48-0.64-6.43-0.42-6.6,0.48 c-0.17,0.91,2.52,2.15,6,2.8C1269.52,325.33,1272.47,325.12,1272.64,324.21z" class="st85"/><path d="M1272.35,347.74c0.24-0.67-2.72-2.35-6.61-3.73c-3.89-1.38-7.25-1.95-7.48-1.27 c-0.24,0.68,2.72,2.35,6.61,3.73C1268.76,347.86,1272.12,348.43,1272.35,347.74z" class="st85"/><path d="M1274.1,332.29c0.26-0.88-2.26-2.42-5.65-3.45c-3.39-1.02-6.34-1.14-6.6-0.26s2.26,2.42,5.65,3.45 C1270.89,333.05,1273.84,333.17,1274.1,332.29z" class="st85"/><path d="M1263.8,332.84c0.26-0.88-2.26-2.42-5.65-3.45c-3.38-1.02-6.34-1.14-6.6-0.26 c-0.26,0.88,2.26,2.42,5.65,3.45C1260.59,333.6,1263.54,333.71,1263.8,332.84z" class="st85"/><path d="M1274.51,336.91c-0.03-0.92-3.5-1.57-7.76-1.46c-4.25,0.11-7.69,0.95-7.66,1.87 c0.03,0.92,3.5,1.57,7.76,1.46C1271.1,338.66,1274.55,337.83,1274.51,336.91z" class="st85"/><path d="M1270.75,326.7c-0.11-0.57-2.58-0.58-5.5-0.01c-2.93,0.57-5.21,1.5-5.1,2.07 c0.11,0.57,2.58,0.58,5.5,0.01C1268.58,328.2,1270.87,327.27,1270.75,326.7z" class="st84"/><path d="M1268.06,342.24c0.36-0.61-1.44-2.33-4.02-3.83s-4.95-2.23-5.3-1.62s1.44,2.33,4.02,3.83 C1265.32,342.13,1267.7,342.85,1268.06,342.24z" class="st84"/><path d="M1263.17,348.66c0.54-0.46-0.26-2.27-1.79-4.03c-1.52-1.77-3.19-2.83-3.72-2.37 c-0.53,0.46,0.27,2.27,1.79,4.03c0.07,0.09,0.16,0.18,0.24,0.27C1261.14,348.16,1262.67,349.09,1263.17,348.66z" class="st84"/><path d="M1235.38,361.1c0.51-0.43-0.12-1.96-1.38-3.42c-1.26-1.46-2.69-2.29-3.19-1.86 c-0.5,0.43,0.12,1.96,1.38,3.42c0.06,0.07,0.13,0.15,0.19,0.22C1233.6,360.78,1234.91,361.5,1235.38,361.1z" class="st84"/><path d="M1257.95,326.43c0.54-0.46-0.26-2.27-1.79-4.03c-1.52-1.77-3.19-2.83-3.72-2.37 c-0.53,0.46,0.27,2.27,1.79,4.03c0.07,0.09,0.16,0.18,0.24,0.27C1255.92,325.93,1257.44,326.87,1257.95,326.43z" class="st84"/><path d="M1235.45,371.29c0.7,0.09,1.52-1.71,1.82-4.02s-0.01-4.26-0.71-4.35c-0.7-0.09-1.52,1.71-1.82,4.02 C1234.44,369.24,1234.76,371.19,1235.45,371.29z" class="st84"/><path d="M1240.43,344.89c0.7,0.09,1.52-1.71,1.82-4.02s-0.01-4.26-0.71-4.35c-0.7-0.09-1.51,1.71-1.82,4.02 C1239.41,342.85,1239.73,344.8,1240.43,344.89z" class="st84"/><path d="M1225.6,369.52c0.27,0.32,1.95-0.63,3.75-2.14c1.8-1.51,3.04-3,2.76-3.32 c-0.27-0.32-1.95,0.63-3.75,2.14C1226.56,367.71,1225.32,369.19,1225.6,369.52z" class="st84"/><path d="M1247.5,368.23c0.54-0.46-0.27-2.27-1.79-4.03c-1.52-1.77-3.19-2.83-3.72-2.37 c-0.53,0.46,0.27,2.27,1.79,4.03C1245.3,367.63,1246.96,368.69,1247.5,368.23z" class="st84"/><path d="M1220.7,367.15c0.46,0.54,2.27-0.26,4.04-1.77c1.77-1.51,2.84-3.17,2.39-3.71 c-0.46-0.53-2.27,0.26-4.04,1.77C1221.31,364.96,1220.24,366.61,1220.7,367.15z" class="st85"/><path d="M1264.2,310.01c-0.11-0.57-1.74-0.74-3.65-0.37c-1.91,0.37-3.35,1.14-3.25,1.71 c0.11,0.57,1.74,0.74,3.65,0.37S1264.32,310.59,1264.2,310.01z" class="st84"/><path d="M1260.76,349.95c-0.11-0.57-1.74-0.74-3.65-0.37s-3.35,1.14-3.25,1.71c0.11,0.57,1.74,0.74,3.65,0.37 C1259.41,351.29,1260.87,350.53,1260.76,349.95z" class="st84"/><path d="M1255.06,347.13c0.19-0.56-1.15-1.51-3-2.12c-1.84-0.62-3.49-0.67-3.67-0.11 c-0.19,0.56,1.16,1.51,3,2.12C1253.23,347.64,1254.87,347.69,1255.06,347.13z" class="st84"/><path d="M1253.25,328.94c-0.11-0.57-1.74-0.74-3.65-0.37s-3.35,1.14-3.25,1.71c0.11,0.58,1.74,0.74,3.65,0.37 C1251.91,330.29,1253.36,329.52,1253.25,328.94z" class="st84"/><path d="M1226.61,365.85c0.41,0,0.76-1.12,0.77-2.5c0.01-1.39-0.31-2.51-0.72-2.51 c-0.41-0.01-0.76,1.12-0.76,2.5C1225.87,364.72,1226.2,365.85,1226.61,365.85z" class="st84"/><path d="M1221.8,372.32c0.37,0.18,1.17-0.69,1.79-1.94c0.62-1.26,0.81-2.41,0.44-2.59 c-0.37-0.18-1.17,0.69-1.79,1.94C1221.62,370.98,1221.43,372.15,1221.8,372.32z" class="st84"/><path d="M1255.73,358.13c0.26-0.53-0.95-1.64-2.69-2.49c-1.75-0.84-3.37-1.1-3.63-0.57 c-0.26,0.53,0.95,1.64,2.69,2.49C1253.85,358.4,1255.47,358.66,1255.73,358.13z" class="st84"/><path d="M1249.97,363.63c0.58-0.07,0.81-1.98,0.52-4.27c-0.29-2.29-1-4.08-1.58-4.01 c-0.58,0.07-0.82,1.98-0.52,4.27C1248.68,361.9,1249.39,363.7,1249.97,363.63z" class="st84"/><path d="M1262.3,334.9c0.38-0.44-0.74-2.01-2.49-3.51c-1.75-1.49-3.48-2.35-3.85-1.9 c-0.38,0.44,0.74,2.01,2.49,3.51C1260.2,334.5,1261.92,335.35,1262.3,334.9z" class="st84"/><path d="M1244.78,358.93c0.56-0.17,0.44-2.09-0.25-4.28s-1.71-3.83-2.26-3.65s-0.44,2.09,0.26,4.28 C1243.22,357.46,1244.23,359.1,1244.78,358.93z" class="st84"/><path d="M1267.16,317.98c-0.11-0.57-1.74-0.74-3.65-0.37c-1.91,0.37-3.35,1.14-3.25,1.71 c0.11,0.58,1.74,0.74,3.65,0.37C1265.82,319.32,1267.28,318.55,1267.16,317.98z" class="st84"/><path d="M1267.21,314.32c0.17-0.91-2.14-2.09-5.15-2.64c-3.01-0.55-5.59-0.27-5.75,0.64 c-0.17,0.91,2.14,2.09,5.15,2.64C1264.47,315.52,1267.04,315.23,1267.21,314.32z" class="st85"/><path d="M1249.04,346.85c-0.11-0.91-2.67-1.34-5.71-0.94c-3.04,0.39-5.42,1.46-5.3,2.37 c0.11,0.91,2.67,1.34,5.71,0.94C1246.78,348.83,1249.16,347.76,1249.04,346.85z" class="st85"/><path d="M1257.15,340.2c0.27-0.87-1.88-2.32-4.81-3.22c-2.93-0.91-5.53-0.93-5.8-0.06 c-0.27,0.87,1.88,2.32,4.81,3.22C1254.28,341.05,1256.88,341.07,1257.15,340.2z" class="st85"/><path d="M1241.7,359.83c0.53-0.51-0.77-2.71-2.89-4.92c-2.12-2.21-4.28-3.59-4.81-3.08s0.77,2.71,2.89,4.92 C1239.01,358.96,1241.17,360.34,1241.7,359.83z" class="st85"/><path d="M1260.47,358.81c0.69-0.56-0.46-3.11-2.58-5.7c-2.12-2.59-4.4-4.22-5.08-3.65 c-0.69,0.56,0.46,3.12,2.58,5.7C1257.5,357.74,1259.78,359.37,1260.47,358.81z" class="st85"/><path d="M1229.39,371.92c0.63,0.2,1.78-1.72,2.58-4.29c0.79-2.57,0.92-4.81,0.29-5.01s-1.79,1.72-2.58,4.29 C1228.9,369.48,1228.76,371.72,1229.39,371.92z" class="st85"/><path d="M1256.64,364.38c0.69-0.56-0.46-3.12-2.58-5.7s-4.4-4.22-5.08-3.65c-0.69,0.56,0.46,3.12,2.58,5.7 C1253.67,363.3,1255.95,364.94,1256.64,364.38z" class="st85"/><path d="M1243.64,371.59c0.69-0.56-0.46-3.12-2.58-5.7s-4.4-4.22-5.09-3.65c-0.69,0.56,0.46,3.12,2.58,5.7 S1242.94,372.16,1243.64,371.59z" class="st85"/><path d="M1253.85,366.13c0.24-0.67-2.72-2.35-6.61-3.73c-3.9-1.38-7.25-1.95-7.48-1.27 c-0.24,0.67,2.72,2.35,6.61,3.73C1250.26,366.25,1253.61,366.81,1253.85,366.13z" class="st85"/><path d="M1259.35,315.92c-0.11-0.57-1.74-0.74-3.65-0.37c-1.91,0.37-3.35,1.14-3.25,1.71 c0.11,0.58,1.74,0.75,3.65,0.37C1258.01,317.27,1259.46,316.5,1259.35,315.92z" class="st84"/><path d="M1249.72,339.9c0.54-0.46-0.26-2.27-1.79-4.03c-1.52-1.77-3.19-2.83-3.72-2.37 c-0.53,0.46,0.27,2.27,1.79,4.03c0.08,0.09,0.16,0.18,0.24,0.27C1247.7,339.4,1249.21,340.34,1249.72,339.9z" class="st84"/><path d="M1254.58,341.24c0.58-0.07,0.82-1.98,0.52-4.27c-0.29-2.29-1-4.08-1.58-4.01 c-0.58,0.07-0.82,1.98-0.52,4.27C1253.29,339.53,1254,341.32,1254.58,341.24z" class="st84"/><path d="M1248.68,352.47c0.53-0.46-0.26-2.27-1.79-4.03c-1.52-1.77-3.19-2.83-3.72-2.37 c-0.54,0.46,0.27,2.27,1.79,4.03C1246.48,351.87,1248.14,352.94,1248.68,352.47z" class="st84"/><path d="M1239.98,347.74c0.19-0.56-1.16-1.51-3-2.12c-1.84-0.62-3.49-0.67-3.67-0.11 c-0.19,0.56,1.16,1.51,3,2.12C1238.15,348.24,1239.79,348.29,1239.98,347.74z" class="st84"/><path d="M1237.63,358.29c0.58-0.07,0.82-1.98,0.52-4.27c-0.29-2.29-1-4.08-1.58-4.01 c-0.58,0.07-0.82,1.98-0.52,4.27C1236.35,356.56,1237.05,358.36,1237.63,358.29z" class="st84"/><path d="M1257.82,388.53c0,0-1.92,13.77-6.58,16.78c-5,7.51-12.49,11.96-8.16-8.4c0,0-28.61,15.96-5.4-5.42 c0,0-44.05,21.32-7.08-6.55c0,0-46.79,4.94-7.13-10.74c0,0-59.1,9.79-5.58-10.31c0,0-27.35-1.08-3.52-7.13 c0,0-52.07,0.2-4.28-11.22c0,0-47.76-8.23-4.65-13.26c0,0-45.62-8.58-2.6-10.09c0,0-51.4-4.12-3.57-11.34 c0,0-39.75-4.64-0.13-12.6c0,0-38.92-16.01,1.47-7.96c0,0-36.58-19.2,5.36-10.71c0,0-37.39-26.08,5.48-10.03 c0,0-27.36-24.93,5.61-9.35c0,0-13.87-19.45,4.35-4.23c0,0-26.94-42.54,7.2-4.7c0,0-13.37-28.66,7.33-4.02 c0,0-9.6-32.08,5.19-3.67c0,0-13.45-37.06,8.04-4.14c0,0-10.19-43.21,8.88-3.57c0,0-3.73-28.14,9.97-1.65 c0,0-0.81-32.13,5.82-0.26c0,0,15.41-27.81,13.32,0.6c0,0,16.63-13.28,1.81,13.73c0,0-40.59-5.2-55.62,24.65 c-15.03,29.85-12.13,56.58,2.12,90.85C1249.01,396.29,1257.82,388.53,1257.82,388.53z" class="st47"/><path d="M1253.6,397.02c0.66,2.27,7.08,10.43,9.82,9.41c2.74-1.02-3.17-11.07-4.07-12.55 c-0.82-1.35,9.22,12.61,11.66,11.63c1.24-0.5-2.4-14.87-3.23-17.78c-0.83-2.9,4.92,10.18,7.4,10.25 c2.48,0.06,1.08-8.39,0.84-11.82c-0.24-3.42-11.55-10.61-11.55-10.61L1253.6,397.02z" class="st47"/><path d="M1274.13,384.35c6.26,15.21,2.27,14.22-2.57,4.12s-8.82-4.68-3.87,4.05 c4.95,8.74,2.7,11.86-3.68,2.22c-6.38-9.64-10.81-8.04-5.81,3.87c6.25,14.9-0.49,15.66-5.3,3.16l0.05-7.11l9.87-14.17 L1274.13,384.35z" class="st47"/><path d="M1271.68,375.73c6.78,14.82,3.12,13.58-1.99,3.69c-5.11-9.9-8.28-5.09-3.17,3.53 c5.11,8.62,3.33,11.39-3.14,1.82c-6.46-9.57-10.32-8.4-4.93,3.2c6.75,14.53,0.74,14.73-4.52,2.58l-0.49-6.7l7.8-12.61 L1271.68,375.73z" class="st48"/><path d="M1260.66,382.16c-0.67,7.07-2.3,23.89-11.02,24.8c-1.77-1.26-1.97-0.61,0.32-13.95 c0,0-31.29,25.4-4.6-4.82c0,0-44.7,18.69-6.02-5.83c0,0-39.85,4.47-6.05-9.57c0,0-50.35,8.81-4.73-9.18 c0,0-23.3-0.92-2.99-6.35c0,0-44.35,0.26-3.62-9.99c0,0-40.66-7.26-3.95-11.82c0,0-38.84-7.58-2.2-8.99 c0,0-43.77-3.59-3.02-10.1c0,0-33.85-4.08-0.09-11.24c0,0-33.12-14.21,1.26-7.1c0,0-31.12-17.06,4.58-9.56 c0,0-31.81-23.2,4.68-8.95c0,0-23.27-22.19,4.79-8.34c0,0-11.79-17.32,3.72-3.78c0,0-22.89-37.89,6.14-4.2 c0,0-11.34-25.53,6.25-3.59c0,0-8.13-28.59,4.43-3.28c0,0-11.4-33.02,6.86-3.7c0,0-8.61-38.51,7.57-3.2 c0,0-3.14-25.09,8.49-1.49c0,0-0.64-28.65,4.96-0.24c0,0,13.17-24.81,11.34,0.52c0,0,17.99-15.95-1.57,12.47 c0,0-31.49-4.82-44.33,21.82c-12.85,26.63-22.04,58.28,1.67,80.99C1260.53,379.77,1261.48,373.52,1260.66,382.16z" class="st48"/><path d="M1222.07,375.18c0.34,1.34,5.67,1.18,11.9-0.37c6.24-1.55,11.02-3.89,10.68-5.23 c-0.34-1.34-5.67-1.18-11.9,0.37C1226.52,371.49,1221.73,373.83,1222.07,375.18z" class="st83"/><path d="M1232.04,387.4c0.82,1.11,5.69-1.07,10.86-4.87c5.18-3.8,8.7-7.79,7.88-8.91s-5.69,1.07-10.86,4.88 C1234.74,382.3,1231.21,386.29,1232.04,387.4z" class="st83"/><path d="M1247.15,397.93c1.14,0.79,5.04-2.85,8.71-8.13c3.67-5.28,5.72-10.19,4.58-10.98 c-1.14-0.79-5.04,2.85-8.71,8.13S1246,397.14,1247.15,397.93z" class="st83"/><path d="M1214.79,354.56c0.32,1.35,5.66,1.23,11.91-0.26s11.06-3.78,10.73-5.13 c-0.32-1.35-5.66-1.23-11.91,0.26C1219.26,350.92,1214.45,353.21,1214.79,354.56z" class="st83"/><path d="M1204.77,315.73c-0.04,1.38,5.13,2.69,11.56,2.91s11.67-0.71,11.72-2.09 c0.04-1.39-5.13-2.69-11.56-2.91C1210.06,313.41,1204.82,314.34,1204.77,315.73z" class="st83"/><path d="M1210.04,290.82c-0.04,1.38,5.13,2.69,11.56,2.91s11.67-0.71,11.72-2.09 c0.04-1.39-5.13-2.69-11.56-2.91S1210.08,289.43,1210.04,290.82z" class="st83"/><path d="M1222.36,266.14c-0.97,0.99,1.95,5.46,6.52,9.98c4.57,4.52,9.07,7.38,10.04,6.4 c0.97-0.99-1.95-5.46-6.52-9.98C1227.82,268.01,1223.32,265.14,1222.36,266.14z" class="st83"/><path d="M1242.71,255.03c-0.97,0.44-0.1,4.45,1.94,8.97c2.04,4.51,4.48,7.81,5.45,7.38 c0.97-0.44,0.1-4.45-1.94-8.97C1246.11,257.89,1243.68,254.59,1242.71,255.03z" class="st83"/><path d="M1262.22,243.3c-1.05,0.16-1.29,4.28-0.54,9.18c0.76,4.9,2.22,8.74,3.27,8.58 c1.05-0.16,1.29-4.27,0.54-9.18C1264.73,246.98,1263.27,243.14,1262.22,243.3z" class="st83"/><path d="M1281.6,244.71c-0.99-0.39-3.29,3.02-5.13,7.63c-1.85,4.6-2.55,8.66-1.56,9.04 c0.99,0.39,3.29-3.02,5.14-7.63C1281.89,249.15,1282.59,245.09,1281.6,244.71z" class="st83"/><path d="M1263.58,381.35c-1.19,2.05-13.85,19.62-9.47-0.15c0,0-26.38,21.42-3.87-4.07 c0,0-37.69,15.76-5.08-4.91c0,0-33.6,3.77-5.1-8.07c0,0-42.45,7.43-3.99-7.73c0,0-19.64-0.78-2.52-5.36 c0,0-37.39,0.22-3.05-8.43c0,0-34.28-6.13-3.32-9.96c0,0-32.75-6.4-1.85-7.58c0,0-36.9-3.03-2.54-8.51 c0,0-28.54-3.44-0.07-9.47c0,0-27.93-11.98,1.06-5.98c0,0-26.24-14.38,3.86-8.06c0,0-26.82-19.56,3.95-7.54 c0,0-19.61-18.71,4.04-7.03c0,0-9.94-14.6,3.14-3.19c0,0-19.29-31.94,5.18-3.54c0,0-9.56-21.52,5.27-3.03 c0,0-6.85-24.1,3.73-2.76c0,0-9.62-27.84,5.78-3.12c0,0-7.26-32.47,6.38-2.7c0,0-2.65-21.15,7.16-1.26 c0,0-0.54-24.15,4.18-0.21c0,0,11.1-20.92,9.56,0.44c0,0,15.17-13.44-1.32,10.51c0,0-26.54-4.05-37.37,18.39 c-2.67,5.53-5.41,11.57-7.67,17.74c-6.92,18.89-9.31,38.97,8.96,49.07C1269.72,366.55,1267.24,375.06,1263.58,381.35z" class="st84"/><path d="M1260.67,350.29c0,0,3.95-3.47-1.75-9.97c0,0,5.29,0.38,0.86-4.4c0,0,7.42,0.01,2-8.83 c0,0,9.24,0.34,1.84-6.52c0,0,6.16,3.49,5.35-4.85c0,0,7.02-0.91,1-7.35c0,0,11.23-2.94,4.13-11.82c0,0,7.28-1.27,0.2-8.19 c0,0,11.97,3.12,1.49-4.5c0,0,6.54-1.8,2.67-8.95c0,0,5.06,4.66,5.31-3.22c0,0,10.19-23.15-2.2-9.36 c0,0,4.56-19.4-6.48,0.76c0,0-3.97-13.33-6.22,1.74c0,0-12.46-11.52-6.9,3.49c0,0-14.04-11.25-5.72,4.59 c0,0-21.6-11.55-7.31,4.87c0,0-16.86-6.84-3.71,4.89c0,0-17.12-6.46-3.86,5.9c0,0-22-13.82-2.92,5.71 c0,0-25.85-2.3-3.37,6.81c0,0-22.92-4.15-1.63,7.46c0,0-12.67,2.22-2,7.2c0,0-24.88,6.96-0.85,6.35 c0,0-27.97,4.24,0.32,7.45c0,0-15.73,1.45-0.16,6.55c0,0-18.35,5.17,1.06,6.01c0,0-14.74,6.73,4.35,5.07 c0,0-15.43,15.47,5.9,6.85c0,0-15.61,13.2,3.72,2.62c0,0-10.23,10.82,2.87,2.54c0,0-2.85,18,5.36,1.56 c0,0,0.33,8.84,2.06,8.94c3.92,0.24,1.27-11.4,1.27-11.4s11.08-4.06,10.34-7.11 C1267.27,349.48,1260.67,350.29,1260.67,350.29z" class="st83"/><path d="M1253.64,323.83c0.28,0.66,2.27,0.43,4.45-0.51c2.17-0.94,3.7-2.24,3.42-2.89 c-0.29-0.66-2.27-0.43-4.45,0.51C1254.88,321.87,1253.35,323.17,1253.64,323.83z" class="st84"/><g><path d="M1245.45,325.85c-0.29-0.66-3.23-0.01-6.56,1.44c-3.34,1.45-5.81,3.16-5.53,3.82 c0.29,0.66,3.22,0.01,6.56-1.44C1243.26,328.22,1245.74,326.51,1245.45,325.85z" class="st84"/><path d="M1245.03,315.91c0.26-0.82-2.33-2.4-5.8-3.52c-3.47-1.12-6.49-1.36-6.75-0.54 c-0.27,0.82,2.33,2.4,5.8,3.52C1241.75,316.5,1244.77,316.73,1245.03,315.91z" class="st84"/><path d="M1239.82,307.27c2.27,1.71,4.54,2.54,5.06,1.86c0.52-0.69-0.91-2.63-3.19-4.35 c-0.12-0.09-0.23-0.17-0.35-0.26c-2.15-1.54-4.22-2.25-4.71-1.6C1236.11,303.62,1237.54,305.56,1239.82,307.27z" class="st84"/><path d="M1263.73,268.66c-0.86,0.07-1.36,2.44-1.12,5.27c0.24,2.84,1.12,5.08,1.98,5.01 c0.86-0.07,1.36-2.44,1.12-5.27C1265.48,270.83,1264.59,268.59,1263.73,268.66z" class="st84"/><path d="M1275.95,268.17c-0.41-0.32-2.16,1.27-3.91,3.54c-1.75,2.27-2.83,4.37-2.42,4.68 c0.41,0.32,2.16-1.27,3.91-3.54C1275.28,270.58,1276.36,268.49,1275.95,268.17z" class="st84"/><path d="M1255.23,277.32c-2.27-1.71-4.54-2.54-5.06-1.86c-0.52,0.69,0.91,2.63,3.19,4.35 c2.28,1.71,4.54,2.54,5.06,1.86C1258.94,280.98,1257.51,279.03,1255.23,277.32z" class="st84"/><path d="M1248.97,346.39c-2.17,0.94-3.7,2.24-3.42,2.9c0.28,0.66,2.28,0.43,4.45-0.51s3.7-2.24,3.42-2.9 C1253.14,345.22,1251.14,345.45,1248.97,346.39z" class="st84"/><path d="M1243.62,300.23c2.17-0.94,3.7-2.24,3.42-2.89c-0.29-0.66-2.28-0.43-4.45,0.51 c-2.17,0.94-3.7,2.24-3.42,2.9C1239.45,301.41,1241.44,301.18,1243.62,300.23z" class="st84"/><path d="M1275.71,272.81c-0.49,0.11-0.61,1.53-0.26,3.19c0.35,1.66,1.04,2.91,1.52,2.8 c0.49-0.11,0.61-1.53,0.26-3.19C1276.88,273.97,1276.2,272.71,1275.71,272.81z" class="st84"/><path d="M1279.74,263.83c-0.49-0.12-1.21,1.13-1.62,2.78c-0.41,1.66-0.34,3.09,0.15,3.2 c0.49,0.12,1.22-1.12,1.62-2.78C1280.3,265.38,1280.23,263.95,1279.74,263.83z" class="st84"/><path d="M1246.88,291.93c2.3,0.55,4.31,0.42,4.47-0.27c0.17-0.7-1.56-1.71-3.87-2.26 c-2.3-0.55-4.31-0.42-4.48,0.27C1242.85,290.37,1244.58,291.38,1246.88,291.93z" class="st84"/><path d="M1251.87,291.19c0.67-0.24,0.45-2.58-0.5-5.23c-0.95-2.65-2.27-4.6-2.94-4.37 c-0.67,0.24-0.45,2.57,0.5,5.23C1249.89,289.48,1251.21,291.43,1251.87,291.19z" class="st84"/><path d="M1241.27,319.1c-0.34,0.62,1.41,2.2,3.88,3.53c2.48,1.32,4.77,1.89,5.1,1.26 c0.34-0.63-1.41-2.2-3.88-3.53C1243.89,319.03,1241.61,318.46,1241.27,319.1z" class="st84"/><path d="M1247.8,337.16c-0.28-0.66-2.28-0.43-4.45,0.51c-2.17,0.94-3.7,2.24-3.42,2.9 c0.28,0.66,2.27,0.43,4.45-0.51C1246.55,339.11,1248.08,337.81,1247.8,337.16z" class="st84"/></g><g><path d="M1247.4,334.01c-0.04-1.12-3.57-1.91-7.89-1.76c-4.32,0.15-7.78,1.19-7.74,2.31 c0.04,1.12,3.57,1.9,7.89,1.76C1243.97,336.17,1247.43,335.13,1247.4,334.01z" class="st85"/><path d="M1244.04,308.68c0.11-0.87-3.86-2.09-8.86-2.71c-5-0.62-9.15-0.42-9.26,0.45 c-0.11,0.87,3.86,2.09,8.87,2.71C1239.78,309.76,1243.93,309.56,1244.04,308.68z" class="st85"/><path d="M1243.47,326.52c0.08-1.12-3.34-2.3-7.64-2.63s-7.86,0.3-7.94,1.42c-0.08,1.12,3.34,2.3,7.64,2.63 C1239.83,328.26,1243.39,327.63,1243.47,326.52z" class="st85"/><path d="M1247.97,320.54c-4.3-0.34-7.86,0.3-7.94,1.42c-0.08,1.12,3.34,2.3,7.64,2.63 c4.3,0.33,7.86-0.3,7.94-1.42S1252.27,320.88,1247.97,320.54z" class="st85"/><path d="M1235.82,319.61c5.05-1.26,8.92-3.15,8.64-4.23c-0.27-1.09-4.59-0.96-9.64,0.3 c-5.05,1.25-8.92,3.15-8.64,4.24C1226.46,321,1230.78,320.86,1235.82,319.61z" class="st85"/><path d="M1282.41,269.71c-0.69-0.52-2.64,0.91-4.35,3.17c-1.72,2.27-2.55,4.53-1.87,5.05 s2.64-0.91,4.35-3.17C1282.26,272.49,1283.1,270.23,1282.41,269.71z" class="st85"/><path d="M1247.53,342.65c-3.73,0.13-6.73,1.15-6.7,2.27c0.04,1.12,3.1,1.92,6.84,1.79 c3.73-0.13,6.73-1.15,6.7-2.27C1254.33,343.32,1251.27,342.52,1247.53,342.65z" class="st85"/><path d="M1259.65,297.15c-3.52,1.27-6.07,3.15-5.7,4.22c0.37,1.06,3.54,0.89,7.06-0.38 c3.52-1.27,6.08-3.15,5.7-4.22C1266.34,295.71,1263.17,295.89,1259.65,297.15z" class="st85"/><path d="M1252.96,309.97c-3.73-0.31-6.83,0.34-6.93,1.46c-0.09,1.12,2.85,2.27,6.58,2.59 c3.73,0.31,6.84-0.34,6.93-1.46C1259.64,311.44,1256.7,310.28,1252.96,309.97z" class="st85"/><path d="M1265.84,286.37c-3.12-2.07-6.05-3.15-6.55-2.41c-0.5,0.74,1.62,3.03,4.74,5.11 c3.12,2.07,6.05,3.15,6.55,2.41C1271.08,290.73,1268.96,288.45,1265.84,286.37z" class="st85"/><path d="M1241.75,296.22c3.2,2.52,6.35,3.88,7.03,3.02c0.68-0.86-1.37-3.59-4.57-6.11s-6.35-3.87-7.03-3.02 S1238.55,293.7,1241.75,296.22z" class="st85"/><path d="M1270.79,266.31c-0.8-0.07-1.67,2.52-1.94,5.8c-0.27,3.27,0.16,5.98,0.97,6.05 c0.8,0.07,1.67-2.52,1.94-5.8C1272.03,269.08,1271.6,266.37,1270.79,266.31z" class="st85"/><path d="M1244.86,288.58c3.2,2.52,6.35,3.87,7.03,3.02c0.68-0.86-1.37-3.59-4.57-6.11s-6.35-3.88-7.03-3.02 C1239.61,283.32,1241.66,286.05,1244.86,288.58z" class="st85"/><path d="M1258.47,276.55c3.2,2.52,6.35,3.87,7.03,3.02c0.67-0.86-1.37-3.59-4.57-6.11s-6.35-3.88-7.03-3.02 C1253.22,271.3,1255.27,274.03,1258.47,276.55z" class="st85"/><path d="M1252.01,282.34c5,0.62,9.15,0.42,9.26-0.45c0.11-0.87-3.86-2.09-8.86-2.71 c-5-0.62-9.15-0.42-9.26,0.45C1243.04,280.51,1247.01,281.72,1252.01,282.34z" class="st85"/></g><g><path d="M1270.79,282.16c-0.09-0.07-0.19-0.14-0.29-0.21c-1.79-1.26-3.55-1.78-4-1.17 c-0.49,0.64,0.66,2.31,2.54,3.72s3.81,2.02,4.3,1.38C1273.82,285.24,1272.68,283.58,1270.79,282.16z" class="st84"/><path d="M1251.89,332.41c2.27,1.71,4.54,2.54,5.06,1.86c0.52-0.69-0.91-2.63-3.19-4.34 c-0.12-0.09-0.23-0.17-0.35-0.26c-2.15-1.54-4.22-2.25-4.7-1.6C1248.18,328.75,1249.61,330.69,1251.89,332.41z" class="st84"/><path d="M1264.74,301.44c-0.86,0.07-1.36,2.44-1.12,5.27c0.24,2.84,1.13,5.08,1.99,5.01 c0.86-0.07,1.36-2.44,1.12-5.27C1266.48,303.61,1265.6,301.37,1264.74,301.44z" class="st84"/><path d="M1255.24,303.52c0.08-0.71-1.77-1.49-4.13-1.74c-2.36-0.26-4.33,0.12-4.41,0.83 c-0.08,0.71,1.77,1.49,4.13,1.74C1253.19,304.6,1255.17,304.23,1255.24,303.52z" class="st84"/><path d="M1260.94,294.65c0.62-0.36-0.03-2.61-1.43-5.04c-1.41-2.43-3.04-4.12-3.65-3.77 c-0.62,0.35,0.03,2.61,1.42,5.04C1258.69,293.32,1260.32,295.01,1260.94,294.65z" class="st84"/><path d="M1253.21,338.06c-2.17,0.94-3.7,2.24-3.42,2.9c0.28,0.66,2.27,0.43,4.45-0.51 c2.17-0.94,3.7-2.24,3.42-2.9C1257.38,336.89,1255.38,337.12,1253.21,338.06z" class="st84"/><path d="M1260.02,311.69c-0.12-0.09-0.23-0.17-0.35-0.26c-2.15-1.54-4.22-2.25-4.7-1.6 c-0.52,0.69,0.91,2.64,3.19,4.35c2.28,1.71,4.54,2.54,5.05,1.86C1263.73,315.35,1262.3,313.4,1260.02,311.69z" class="st84"/><path d="M1252.25,319.1c0.67-0.24,0.45-2.58-0.5-5.23c-0.95-2.65-2.27-4.6-2.94-4.37 c-0.67,0.24-0.46,2.58,0.5,5.23C1250.27,317.38,1251.58,319.33,1252.25,319.1z" class="st84"/><path d="M1256.1,298.91c2.28,1.71,4.54,2.54,5.06,1.86c0.52-0.69-0.91-2.64-3.19-4.35 c-2.28-1.71-4.54-2.54-5.06-1.86C1252.39,295.25,1253.82,297.2,1256.1,298.91z" class="st84"/><path d="M1268.94,297.09c-2.36-0.26-4.33,0.12-4.41,0.83c-0.08,0.71,1.77,1.49,4.13,1.74 c2.36,0.25,4.33-0.12,4.42-0.83C1273.15,298.12,1271.3,297.34,1268.94,297.09z" class="st84"/><path d="M1267.99,294.32c0.67-0.24,0.46-2.58-0.5-5.23c-0.95-2.65-2.27-4.6-2.94-4.37 c-0.67,0.24-0.46,2.58,0.5,5.22C1266,292.6,1267.31,294.56,1267.99,294.32z" class="st84"/></g></g></g></g></g></g></g></g></g></switch></svg>